Hoogli-Regular.ufo
<glyph name="exclam" format="1">
  <advance width="314"/>
  <unicode hex="0021"/>
  <outline>
    <contour>
      <point x="168" y="241"/>
      <point x="180" y="252"/>
      <point x="180" y="264" type="curve" smooth="yes"/>
      <point x="187" y="554" type="line" smooth="yes"/>
      <point x="187" y="566"/>
      <point x="176" y="577"/>
      <point x="163" y="577" type="curve" smooth="yes"/>
      <point x="151" y="577"/>
      <point x="139" y="567"/>
      <point x="139" y="554" type="curve" smooth="yes"/>
      <point x="132" y="264" type="line" smooth="yes"/>
      <point x="132" y="253"/>
      <point x="143" y="241"/>
      <point x="156" y="241" type="curve" smooth="yes"/>
    </contour>
    <contour>
      <point x="183" y="-16"/>
      <point x="202" y="-1"/>
      <point x="202" y="37" type="curve" smooth="yes"/>
      <point x="202" y="69"/>
      <point x="182" y="91"/>
      <point x="156" y="91" type="curve" smooth="yes"/>
      <point x="128" y="91"/>
      <point x="111" y="69"/>
      <point x="111" y="37" type="curve" smooth="yes"/>
      <point x="111" y="0"/>
      <point x="135" y="-16"/>
      <point x="157" y="-16" type="curve" smooth="yes"/>
    </contour>
  </outline>
</glyph>
<glyph name="quotedbl" format="1">
  <advance width="395"/>
  <unicode hex="0022"/>
  <outline>
    <contour>
      <point x="263" y="362"/>
      <point x="276" y="370"/>
      <point x="279" y="382" type="curve" smooth="yes"/>
      <point x="321" y="565" type="line" smooth="yes"/>
      <point x="324" y="576"/>
      <point x="315" y="589"/>
      <point x="303" y="592" type="curve" smooth="yes"/>
      <point x="291" y="595"/>
      <point x="277" y="587"/>
      <point x="275" y="575" type="curve" smooth="yes"/>
      <point x="233" y="392" type="line" smooth="yes"/>
      <point x="230" y="381"/>
      <point x="238" y="368"/>
      <point x="251" y="365" type="curve" smooth="yes"/>
    </contour>
    <contour>
      <point x="96" y="362"/>
      <point x="109" y="370"/>
      <point x="112" y="382" type="curve" smooth="yes"/>
      <point x="154" y="565" type="line" smooth="yes"/>
      <point x="157" y="576"/>
      <point x="148" y="589"/>
      <point x="136" y="592" type="curve" smooth="yes"/>
      <point x="124" y="595"/>
      <point x="110" y="587"/>
      <point x="108" y="575" type="curve" smooth="yes"/>
      <point x="66" y="392" type="line" smooth="yes"/>
      <point x="63" y="381"/>
      <point x="71" y="368"/>
      <point x="84" y="365" type="curve" smooth="yes"/>
    </contour>
  </outline>
</glyph>
<glyph name="dollar" format="1">
  <advance width="574"/>
  <unicode hex="0024"/>
  <outline>
    <contour>
      <point x="451" y="-19"/>
      <point x="510" y="57"/>
      <point x="510" y="131" type="curve" smooth="yes"/>
      <point x="510" y="205"/>
      <point x="463" y="270"/>
      <point x="292" y="302" type="curve" smooth="yes"/>
      <point x="158" y="324"/>
      <point x="124" y="370"/>
      <point x="124" y="416" type="curve" smooth="yes"/>
      <point x="124" y="463"/>
      <point x="183" y="502"/>
      <point x="264" y="502" type="curve" smooth="yes"/>
      <point x="343" y="502"/>
      <point x="382" y="490"/>
      <point x="437" y="472" type="curve" smooth="yes"/>
      <point x="449" y="468"/>
      <point x="462" y="474"/>
      <point x="467" y="485" type="curve" smooth="yes"/>
      <point x="470" y="498"/>
      <point x="465" y="511"/>
      <point x="453" y="515" type="curve" smooth="yes"/>
      <point x="393" y="536"/>
      <point x="350" y="548"/>
      <point x="264" y="548" type="curve" smooth="yes"/>
      <point x="139" y="548"/>
      <point x="76" y="480"/>
      <point x="76" y="416" type="curve" smooth="yes"/>
      <point x="76" y="359"/>
      <point x="97" y="288"/>
      <point x="285" y="256" type="curve" smooth="yes"/>
      <point x="409" y="233"/>
      <point x="462" y="191"/>
      <point x="462" y="131" type="curve" smooth="yes"/>
      <point x="462" y="73"/>
      <point x="400" y="28"/>
      <point x="288" y="28" type="curve" smooth="yes"/>
      <point x="219" y="28"/>
      <point x="155" y="40"/>
      <point x="95" y="70" type="curve" smooth="yes"/>
      <point x="84" y="75"/>
      <point x="69" y="71"/>
      <point x="64" y="59" type="curve" smooth="yes"/>
      <point x="58" y="48"/>
      <point x="63" y="34"/>
      <point x="74" y="28" type="curve" smooth="yes"/>
      <point x="141" y="-4"/>
      <point x="212" y="-19"/>
      <point x="288" y="-19" type="curve" smooth="yes"/>
    </contour>
    <contour>
      <point x="297" y="-121"/>
      <point x="308" y="-110"/>
      <point x="308" y="-98" type="curve" smooth="yes"/>
      <point x="308" y="620" type="line" smooth="yes"/>
      <point x="308" y="633"/>
      <point x="297" y="643"/>
      <point x="284" y="643" type="curve" smooth="yes"/>
      <point x="271" y="643"/>
      <point x="260" y="633"/>
      <point x="260" y="620" type="curve" smooth="yes"/>
      <point x="260" y="-98" type="line" smooth="yes"/>
      <point x="260" y="-110"/>
      <point x="271" y="-121"/>
      <point x="284" y="-121" type="curve" smooth="yes"/>
    </contour>
  </outline>
</glyph>
<glyph name="quotesingle" format="1">
  <advance width="228"/>
  <unicode hex="0027"/>
  <outline>
    <contour>
      <point x="96" y="362"/>
      <point x="109" y="370"/>
      <point x="112" y="382" type="curve" smooth="yes"/>
      <point x="154" y="565" type="line" smooth="yes"/>
      <point x="157" y="576"/>
      <point x="148" y="589"/>
      <point x="136" y="592" type="curve" smooth="yes"/>
      <point x="124" y="595"/>
      <point x="110" y="587"/>
      <point x="108" y="575" type="curve" smooth="yes"/>
      <point x="66" y="392" type="line" smooth="yes"/>
      <point x="63" y="381"/>
      <point x="71" y="368"/>
      <point x="84" y="365" type="curve" smooth="yes"/>
    </contour>
  </outline>
</glyph>
<glyph name="parenright" format="1">
  <advance width="323"/>
  <unicode hex="0029"/>
  <outline>
    <contour>
      <point x="86" y="-115"/>
      <point x="101" y="-115"/>
      <point x="109" y="-106" type="curve" smooth="yes"/>
      <point x="197" y="-16"/>
      <point x="260" y="116"/>
      <point x="260" y="259" type="curve" smooth="yes"/>
      <point x="260" y="404"/>
      <point x="193" y="543"/>
      <point x="110" y="633" type="curve" smooth="yes"/>
      <point x="102" y="642"/>
      <point x="87" y="643"/>
      <point x="77" y="635" type="curve" smooth="yes"/>
      <point x="68" y="626"/>
      <point x="67" y="611"/>
      <point x="75" y="602" type="curve" smooth="yes"/>
      <point x="151" y="520"/>
      <point x="212" y="392"/>
      <point x="212" y="259" type="curve" smooth="yes"/>
      <point x="212" y="128"/>
      <point x="155" y="7"/>
      <point x="76" y="-74" type="curve" smooth="yes"/>
      <point x="67" y="-83"/>
      <point x="67" y="-98"/>
      <point x="76" y="-106" type="curve" smooth="yes"/>
    </contour>
  </outline>
</glyph>
<glyph name="plus" format="1">
  <advance width="528"/>
  <unicode hex="002B"/>
  <outline>
    <contour>
      <point x="441" y="241" type="line" smooth="yes"/>
      <point x="454" y="241"/>
      <point x="464" y="252"/>
      <point x="464" y="264" type="curve" smooth="yes"/>
      <point x="464" y="277"/>
      <point x="454" y="287"/>
      <point x="441" y="287" type="curve" smooth="yes"/>
      <point x="87" y="287" type="line" smooth="yes"/>
      <point x="74" y="287"/>
      <point x="63" y="277"/>
      <point x="63" y="264" type="curve" smooth="yes"/>
      <point x="63" y="252"/>
      <point x="74" y="241"/>
      <point x="87" y="241" type="curve" smooth="yes"/>
    </contour>
    <contour>
      <point x="277" y="71"/>
      <point x="288" y="81"/>
      <point x="288" y="94" type="curve" smooth="yes"/>
      <point x="288" y="434" type="line" smooth="yes"/>
      <point x="288" y="447"/>
      <point x="277" y="457"/>
      <point x="264" y="457" type="curve" smooth="yes"/>
      <point x="251" y="457"/>
      <point x="240" y="447"/>
      <point x="240" y="434" type="curve" smooth="yes"/>
      <point x="240" y="94" type="line" smooth="yes"/>
      <point x="240" y="81"/>
      <point x="251" y="71"/>
      <point x="264" y="71" type="curve" smooth="yes"/>
    </contour>
  </outline>
</glyph>
<glyph name="hyphen" format="1">
  <advance width="399"/>
  <unicode hex="002D"/>
  <outline>
    <contour>
      <point x="299" y="196" type="line" smooth="yes"/>
      <point x="312" y="196"/>
      <point x="322" y="206"/>
      <point x="322" y="219" type="curve" smooth="yes"/>
      <point x="322" y="231"/>
      <point x="312" y="242"/>
      <point x="299" y="242" type="curve" smooth="yes"/>
      <point x="100" y="242" type="line" smooth="yes"/>
      <point x="87" y="242"/>
      <point x="76" y="231"/>
      <point x="76" y="219" type="curve" smooth="yes"/>
      <point x="76" y="206"/>
      <point x="87" y="196"/>
      <point x="100" y="196" type="curve" smooth="yes"/>
    </contour>
  </outline>
</glyph>
<glyph name="slash" format="1">
  <advance width="386"/>
  <unicode hex="002F"/>
  <outline>
    <contour>
      <point x="63" y="-116"/>
      <point x="78" y="-110"/>
      <point x="82" y="-99" type="curve" smooth="yes"/>
      <point x="343" y="609" type="line" smooth="yes"/>
      <point x="347" y="621"/>
      <point x="341" y="635"/>
      <point x="329" y="639" type="curve" smooth="yes"/>
      <point x="317" y="643"/>
      <point x="303" y="637"/>
      <point x="298" y="625" type="curve" smooth="yes"/>
      <point x="37" y="-83" type="line" smooth="yes"/>
      <point x="33" y="-94"/>
      <point x="40" y="-108"/>
      <point x="52" y="-112" type="curve" smooth="yes"/>
    </contour>
  </outline>
</glyph>
<glyph name="one" format="1">
  <advance width="315"/>
  <unicode hex="0031"/>
  <outline>
    <contour>
      <point x="214" y="-10"/>
      <point x="225" y="1"/>
      <point x="225" y="14" type="curve" smooth="yes"/>
      <point x="225" y="511" type="line" smooth="yes"/>
      <point x="225" y="524"/>
      <point x="214" y="534"/>
      <point x="201" y="534" type="curve" smooth="yes"/>
      <point x="188" y="534"/>
      <point x="177" y="524"/>
      <point x="177" y="511" type="curve" smooth="yes"/>
      <point x="177" y="14" type="line" smooth="yes"/>
      <point x="177" y="1"/>
      <point x="188" y="-10"/>
      <point x="201" y="-10" type="curve" smooth="yes"/>
    </contour>
    <contour>
      <point x="212" y="498" type="line" smooth="yes"/>
      <point x="223" y="504"/>
      <point x="227" y="518"/>
      <point x="222" y="530" type="curve" smooth="yes"/>
      <point x="215" y="540"/>
      <point x="201" y="545"/>
      <point x="189" y="539" type="curve" smooth="yes"/>
      <point x="53" y="465" type="line" smooth="yes"/>
      <point x="42" y="459"/>
      <point x="38" y="445"/>
      <point x="44" y="433" type="curve" smooth="yes"/>
      <point x="51" y="423"/>
      <point x="65" y="418"/>
      <point x="76" y="424" type="curve" smooth="yes"/>
    </contour>
  </outline>
</glyph>
<glyph name="two" format="1">
  <advance width="504"/>
  <unicode hex="0032"/>
  <outline>
    <contour>
      <point x="267" y="172" type="line" smooth="yes"/>
      <point x="389" y="288"/>
      <point x="425" y="340"/>
      <point x="425" y="409" type="curve" smooth="yes"/>
      <point x="425" y="479"/>
      <point x="373" y="550"/>
      <point x="257" y="550" type="curve" smooth="yes"/>
      <point x="197" y="550"/>
      <point x="139" y="534"/>
      <point x="85" y="501" type="curve" smooth="yes"/>
      <point x="74" y="494"/>
      <point x="71" y="480"/>
      <point x="78" y="469" type="curve" smooth="yes"/>
      <point x="85" y="459"/>
      <point x="99" y="455"/>
      <point x="110" y="462" type="curve" smooth="yes"/>
      <point x="156" y="490"/>
      <point x="206" y="504"/>
      <point x="257" y="504" type="curve" smooth="yes"/>
      <point x="335" y="504"/>
      <point x="377" y="460"/>
      <point x="377" y="409" type="curve" smooth="yes"/>
      <point x="377" y="349"/>
      <point x="340" y="304"/>
      <point x="234" y="204" type="curve" smooth="yes"/>
      <point x="59" y="39" type="line" smooth="yes"/>
      <point x="50" y="31"/>
      <point x="50" y="16"/>
      <point x="59" y="6" type="curve" smooth="yes"/>
      <point x="68" y="-3"/>
      <point x="83" y="-3"/>
      <point x="92" y="6" type="curve" smooth="yes"/>
    </contour>
    <contour>
      <point x="435" y="-10" type="line" smooth="yes"/>
      <point x="448" y="-10"/>
      <point x="458" y="1"/>
      <point x="458" y="14" type="curve" smooth="yes"/>
      <point x="458" y="26"/>
      <point x="448" y="36"/>
      <point x="435" y="36" type="curve" smooth="yes"/>
      <point x="66" y="36" type="line" smooth="yes"/>
      <point x="53" y="36"/>
      <point x="42" y="26"/>
      <point x="42" y="14" type="curve" smooth="yes"/>
      <point x="42" y="1"/>
      <point x="53" y="-10"/>
      <point x="66" y="-10" type="curve" smooth="yes"/>
    </contour>
  </outline>
</glyph>
<glyph name="three" format="1">
  <advance width="509"/>
  <unicode hex="0033"/>
  <outline>
    <contour>
      <point x="396" y="-14"/>
      <point x="458" y="59"/>
      <point x="458" y="151" type="curve" smooth="yes"/>
      <point x="458" y="241"/>
      <point x="389" y="309"/>
      <point x="265" y="309" type="curve" smooth="yes"/>
      <point x="212" y="309"/>
      <point x="170" y="300"/>
      <point x="145" y="292" type="curve" smooth="yes"/>
      <point x="133" y="288"/>
      <point x="127" y="275"/>
      <point x="130" y="262" type="curve" smooth="yes"/>
      <point x="135" y="251"/>
      <point x="148" y="245"/>
      <point x="161" y="248" type="curve" smooth="yes"/>
      <point x="182" y="256"/>
      <point x="219" y="263"/>
      <point x="265" y="263" type="curve" smooth="yes"/>
      <point x="352" y="263"/>
      <point x="410" y="220"/>
      <point x="410" y="151" type="curve" smooth="yes"/>
      <point x="410" y="81"/>
      <point x="356" y="32"/>
      <point x="254" y="32" type="curve" smooth="yes"/>
      <point x="192" y="32"/>
      <point x="140" y="44"/>
      <point x="98" y="62" type="curve" smooth="yes"/>
      <point x="86" y="67"/>
      <point x="72" y="62"/>
      <point x="68" y="50" type="curve" smooth="yes"/>
      <point x="62" y="39"/>
      <point x="68" y="25"/>
      <point x="79" y="20" type="curve" smooth="yes"/>
      <point x="126" y="1"/>
      <point x="185" y="-14"/>
      <point x="254" y="-14" type="curve" smooth="yes"/>
    </contour>
    <contour>
      <point x="425" y="493" type="line" smooth="yes"/>
      <point x="434" y="502"/>
      <point x="434" y="517"/>
      <point x="426" y="526" type="curve" smooth="yes"/>
      <point x="417" y="535"/>
      <point x="402" y="536"/>
      <point x="392" y="528" type="curve" smooth="yes"/>
      <point x="141" y="293" type="line" smooth="yes"/>
      <point x="132" y="283"/>
      <point x="132" y="268"/>
      <point x="140" y="259" type="curve" smooth="yes"/>
      <point x="149" y="250"/>
      <point x="165" y="250"/>
      <point x="174" y="258" type="curve" smooth="yes"/>
    </contour>
    <contour>
      <point x="419" y="495" type="line" smooth="yes"/>
      <point x="432" y="495"/>
      <point x="442" y="506"/>
      <point x="442" y="518" type="curve" smooth="yes"/>
      <point x="442" y="531"/>
      <point x="432" y="541"/>
      <point x="419" y="541" type="curve" smooth="yes"/>
      <point x="107" y="541" type="line" smooth="yes"/>
      <point x="94" y="541"/>
      <point x="83" y="531"/>
      <point x="83" y="518" type="curve" smooth="yes"/>
      <point x="83" y="506"/>
      <point x="94" y="495"/>
      <point x="107" y="495" type="curve" smooth="yes"/>
    </contour>
  </outline>
</glyph>
<glyph name="eight" format="1">
  <advance width="557"/>
  <unicode hex="0038"/>
  <outline>
    <contour>
      <point x="442" y="-18"/>
      <point x="496" y="60"/>
      <point x="496" y="145" type="curve" smooth="yes"/>
      <point x="496" y="240"/>
      <point x="416" y="309"/>
      <point x="280" y="309" type="curve" smooth="yes"/>
      <point x="136" y="309"/>
      <point x="62" y="240"/>
      <point x="62" y="144" type="curve" smooth="yes"/>
      <point x="62" y="60"/>
      <point x="128" y="-18"/>
      <point x="280" y="-18" type="curve" smooth="yes"/>
    </contour>
    <contour>
      <point x="172" y="29"/>
      <point x="110" y="78"/>
      <point x="110" y="144" type="curve" smooth="yes"/>
      <point x="110" y="219"/>
      <point x="176" y="263"/>
      <point x="280" y="263" type="curve" smooth="yes"/>
      <point x="378" y="263"/>
      <point x="448" y="219"/>
      <point x="448" y="145" type="curve" smooth="yes"/>
      <point x="448" y="78"/>
      <point x="395" y="29"/>
      <point x="280" y="29" type="curve" smooth="yes"/>
    </contour>
    <contour>
      <point x="411" y="263"/>
      <point x="469" y="331"/>
      <point x="469" y="408" type="curve" smooth="yes"/>
      <point x="469" y="490"/>
      <point x="401" y="549"/>
      <point x="280" y="549" type="curve" smooth="yes"/>
      <point x="153" y="549"/>
      <point x="89" y="490"/>
      <point x="89" y="408" type="curve" smooth="yes"/>
      <point x="89" y="331"/>
      <point x="143" y="263"/>
      <point x="280" y="263" type="curve" smooth="yes"/>
    </contour>
    <contour>
      <point x="187" y="309"/>
      <point x="137" y="350"/>
      <point x="137" y="408" type="curve" smooth="yes"/>
      <point x="137" y="469"/>
      <point x="195" y="503"/>
      <point x="280" y="503" type="curve" smooth="yes"/>
      <point x="361" y="503"/>
      <point x="421" y="469"/>
      <point x="421" y="408" type="curve" smooth="yes"/>
      <point x="421" y="350"/>
      <point x="369" y="309"/>
      <point x="280" y="309" type="curve" smooth="yes"/>
    </contour>
  </outline>
</glyph>
<glyph name="nine" format="1">
  <advance width="534"/>
  <unicode hex="0039"/>
  <outline>
    <contour>
      <point x="390" y="-13"/>
      <point x="473" y="86"/>
      <point x="473" y="268" type="curve" smooth="yes"/>
      <point x="473" y="453"/>
      <point x="379" y="550"/>
      <point x="250" y="550" type="curve" smooth="yes"/>
      <point x="115" y="550"/>
      <point x="53" y="459"/>
      <point x="53" y="371" type="curve" smooth="yes"/>
      <point x="53" y="260"/>
      <point x="119" y="197"/>
      <point x="240" y="197" type="curve" smooth="yes"/>
      <point x="346" y="197"/>
      <point x="411" y="250"/>
      <point x="462" y="334" type="curve" smooth="yes"/>
      <point x="469" y="344"/>
      <point x="465" y="359"/>
      <point x="454" y="365" type="curve" smooth="yes"/>
      <point x="443" y="372"/>
      <point x="428" y="369"/>
      <point x="421" y="357" type="curve" smooth="yes"/>
      <point x="380" y="290"/>
      <point x="327" y="243"/>
      <point x="240" y="243" type="curve" smooth="yes"/>
      <point x="152" y="243"/>
      <point x="101" y="288"/>
      <point x="101" y="371" type="curve" smooth="yes"/>
      <point x="101" y="438"/>
      <point x="150" y="504"/>
      <point x="250" y="504" type="curve" smooth="yes"/>
      <point x="358" y="504"/>
      <point x="425" y="413"/>
      <point x="425" y="268" type="curve" smooth="yes"/>
      <point x="425" y="121"/>
      <point x="364" y="33"/>
      <point x="231" y="33" type="curve" smooth="yes"/>
      <point x="198" y="33"/>
      <point x="175" y="39"/>
      <point x="151" y="45" type="curve" smooth="yes"/>
      <point x="139" y="49"/>
      <point x="125" y="41"/>
      <point x="122" y="29" type="curve" smooth="yes"/>
      <point x="119" y="18"/>
      <point x="127" y="4"/>
      <point x="139" y="1" type="curve" smooth="yes"/>
      <point x="168" y="-6"/>
      <point x="193" y="-13"/>
      <point x="231" y="-13" type="curve" smooth="yes"/>
    </contour>
  </outline>
</glyph>
<glyph name="less" format="1">
  <advance width="528"/>
  <unicode hex="003C"/>
  <outline>
    <contour>
      <point x="429" y="85"/>
      <point x="443" y="91"/>
      <point x="448" y="102" type="curve" smooth="yes"/>
      <point x="453" y="114"/>
      <point x="448" y="128"/>
      <point x="436" y="132" type="curve" smooth="yes"/>
      <point x="98" y="284" type="line" smooth="yes"/>
      <point x="87" y="290"/>
      <point x="72" y="284"/>
      <point x="68" y="273" type="curve" smooth="yes"/>
      <point x="62" y="261"/>
      <point x="68" y="247"/>
      <point x="79" y="243" type="curve" smooth="yes"/>
      <point x="417" y="91" type="line" smooth="yes"/>
    </contour>
    <contour>
      <point x="430" y="392" type="line" smooth="yes"/>
      <point x="442" y="397"/>
      <point x="447" y="411"/>
      <point x="442" y="422" type="curve" smooth="yes"/>
      <point x="437" y="434"/>
      <point x="423" y="440"/>
      <point x="411" y="434" type="curve" smooth="yes"/>
      <point x="85" y="288" type="line" smooth="yes"/>
      <point x="74" y="283"/>
      <point x="68" y="270"/>
      <point x="74" y="258" type="curve" smooth="yes"/>
      <point x="78" y="246"/>
      <point x="92" y="241"/>
      <point x="104" y="246" type="curve" smooth="yes"/>
    </contour>
  </outline>
</glyph>
<glyph name="equal" format="1">
  <advance width="528"/>
  <unicode hex="003D"/>
  <outline>
    <contour>
      <point x="441" y="339" type="line" smooth="yes"/>
      <point x="454" y="339"/>
      <point x="464" y="349"/>
      <point x="464" y="361" type="curve" smooth="yes"/>
      <point x="464" y="374"/>
      <point x="454" y="385"/>
      <point x="441" y="385" type="curve" smooth="yes"/>
      <point x="87" y="385" type="line" smooth="yes"/>
      <point x="74" y="385"/>
      <point x="63" y="374"/>
      <point x="63" y="361" type="curve" smooth="yes"/>
      <point x="63" y="349"/>
      <point x="74" y="339"/>
      <point x="87" y="339" type="curve" smooth="yes"/>
    </contour>
    <contour>
      <point x="441" y="132" type="line" smooth="yes"/>
      <point x="454" y="132"/>
      <point x="464" y="143"/>
      <point x="464" y="155" type="curve" smooth="yes"/>
      <point x="464" y="168"/>
      <point x="454" y="178"/>
      <point x="441" y="178" type="curve" smooth="yes"/>
      <point x="87" y="178" type="line" smooth="yes"/>
      <point x="74" y="178"/>
      <point x="63" y="168"/>
      <point x="63" y="155" type="curve" smooth="yes"/>
      <point x="63" y="143"/>
      <point x="74" y="132"/>
      <point x="87" y="132" type="curve" smooth="yes"/>
    </contour>
  </outline>
</glyph>
<glyph name="greater" format="1">
  <advance width="512"/>
  <unicode hex="003E"/>
  <outline>
    <contour>
      <point x="445" y="243" type="line" smooth="yes"/>
      <point x="457" y="247"/>
      <point x="462" y="261"/>
      <point x="457" y="273" type="curve" smooth="yes"/>
      <point x="452" y="284"/>
      <point x="438" y="290"/>
      <point x="426" y="284" type="curve" smooth="yes"/>
      <point x="88" y="132" type="line" smooth="yes"/>
      <point x="77" y="128"/>
      <point x="71" y="114"/>
      <point x="77" y="102" type="curve" smooth="yes"/>
      <point x="81" y="91"/>
      <point x="96" y="85"/>
      <point x="107" y="91" type="curve" smooth="yes"/>
    </contour>
    <contour>
      <point x="432" y="241"/>
      <point x="446" y="246"/>
      <point x="451" y="258" type="curve" smooth="yes"/>
      <point x="456" y="270"/>
      <point x="451" y="283"/>
      <point x="439" y="288" type="curve" smooth="yes"/>
      <point x="114" y="434" type="line" smooth="yes"/>
      <point x="103" y="440"/>
      <point x="88" y="434"/>
      <point x="84" y="422" type="curve" smooth="yes"/>
      <point x="78" y="411"/>
      <point x="84" y="397"/>
      <point x="95" y="392" type="curve" smooth="yes"/>
      <point x="420" y="246" type="line" smooth="yes"/>
    </contour>
  </outline>
</glyph>
<glyph name="A" format="1">
  <advance width="580"/>
  <unicode hex="0041"/>
  <outline>
    <contour>
      <point x="536" y="-4"/>
      <point x="543" y="10"/>
      <point x="538" y="22" type="curve" smooth="yes"/>
      <point x="488" y="151"/>
      <point x="384" y="377"/>
      <point x="308" y="538" type="curve" smooth="yes"/>
      <point x="302" y="548"/>
      <point x="288" y="554"/>
      <point x="276" y="548" type="curve" smooth="yes"/>
      <point x="266" y="542"/>
      <point x="260" y="528"/>
      <point x="265" y="517" type="curve" smooth="yes"/>
      <point x="341" y="358"/>
      <point x="443" y="132"/>
      <point x="493" y="5" type="curve" smooth="yes"/>
      <point x="498" y="-6"/>
      <point x="512" y="-13"/>
      <point x="524" y="-8" type="curve" smooth="yes"/>
    </contour>
    <contour>
      <point x="66" y="-12"/>
      <point x="81" y="-6"/>
      <point x="85" y="6" type="curve" smooth="yes"/>
      <point x="132" y="136"/>
      <point x="231" y="359"/>
      <point x="302" y="518" type="curve" smooth="yes"/>
      <point x="308" y="529"/>
      <point x="302" y="543"/>
      <point x="290" y="548" type="curve" smooth="yes"/>
      <point x="278" y="554"/>
      <point x="264" y="548"/>
      <point x="259" y="537" type="curve" smooth="yes"/>
      <point x="188" y="378"/>
      <point x="87" y="153"/>
      <point x="40" y="22" type="curve" smooth="yes"/>
      <point x="36" y="10"/>
      <point x="43" y="-4"/>
      <point x="55" y="-8" type="curve" smooth="yes"/>
    </contour>
    <contour>
      <point x="441" y="141" type="line" smooth="yes"/>
      <point x="454" y="141"/>
      <point x="464" y="152"/>
      <point x="464" y="164" type="curve" smooth="yes"/>
      <point x="464" y="177"/>
      <point x="454" y="187"/>
      <point x="441" y="187" type="curve" smooth="yes"/>
      <point x="135" y="187" type="line" smooth="yes"/>
      <point x="122" y="187"/>
      <point x="111" y="177"/>
      <point x="111" y="164" type="curve" smooth="yes"/>
      <point x="111" y="152"/>
      <point x="122" y="141"/>
      <point x="135" y="141" type="curve" smooth="yes"/>
    </contour>
    <contour>
      <point x="517" y="14" type="move" name="ogonek"/>
    </contour>
    <contour>
      <point x="283" y="545" type="move" name="top"/>
    </contour>
  </outline>
</glyph>
<glyph name="B" format="1">
  <advance width="525"/>
  <unicode hex="0042"/>
  <outline>
    <contour>
      <point x="278" y="-10" type="line" smooth="yes"/>
      <point x="356" y="-10"/>
      <point x="403" y="13"/>
      <point x="434" y="43" type="curve" smooth="yes"/>
      <point x="463" y="71"/>
      <point x="477" y="109"/>
      <point x="477" y="145" type="curve" smooth="yes"/>
      <point x="477" y="186"/>
      <point x="462" y="221"/>
      <point x="430" y="253" type="curve" smooth="yes"/>
      <point x="398" y="285"/>
      <point x="343" y="307"/>
      <point x="281" y="307" type="curve" smooth="yes"/>
      <point x="125" y="307" type="line" smooth="yes"/>
      <point x="112" y="307"/>
      <point x="101" y="297"/>
      <point x="101" y="284" type="curve" smooth="yes"/>
      <point x="101" y="271"/>
      <point x="112" y="261"/>
      <point x="125" y="261" type="curve" smooth="yes"/>
      <point x="281" y="261" type="line" smooth="yes"/>
      <point x="329" y="261"/>
      <point x="372" y="245"/>
      <point x="397" y="220" type="curve" smooth="yes"/>
      <point x="419" y="198"/>
      <point x="429" y="174"/>
      <point x="429" y="145" type="curve" smooth="yes"/>
      <point x="429" y="120"/>
      <point x="421" y="95"/>
      <point x="401" y="75" type="curve" smooth="yes"/>
      <point x="377" y="52"/>
      <point x="339" y="36"/>
      <point x="278" y="36" type="curve" smooth="yes"/>
      <point x="115" y="36" type="line"/>
      <point x="139" y="14" type="line"/>
      <point x="139" y="518" type="line"/>
      <point x="115" y="495" type="line"/>
      <point x="261" y="495" type="line" smooth="yes"/>
      <point x="305" y="495"/>
      <point x="336" y="482"/>
      <point x="354" y="463" type="curve" smooth="yes"/>
      <point x="369" y="448"/>
      <point x="379" y="424"/>
      <point x="379" y="403" type="curve" smooth="yes"/>
      <point x="379" y="379"/>
      <point x="369" y="356"/>
      <point x="354" y="341" type="curve" smooth="yes"/>
      <point x="338" y="326"/>
      <point x="307" y="310"/>
      <point x="271" y="307" type="curve" smooth="yes"/>
      <point x="259" y="306"/>
      <point x="248" y="295"/>
      <point x="249" y="283" type="curve" smooth="yes"/>
      <point x="250" y="270"/>
      <point x="262" y="260"/>
      <point x="274" y="261" type="curve" smooth="yes"/>
      <point x="324" y="264"/>
      <point x="366" y="286"/>
      <point x="387" y="308" type="curve" smooth="yes"/>
      <point x="411" y="331"/>
      <point x="427" y="365"/>
      <point x="427" y="403" type="curve" smooth="yes"/>
      <point x="427" y="436"/>
      <point x="411" y="473"/>
      <point x="387" y="496" type="curve" smooth="yes"/>
      <point x="362" y="521"/>
      <point x="322" y="541"/>
      <point x="261" y="541" type="curve" smooth="yes"/>
      <point x="115" y="541" type="line" smooth="yes"/>
      <point x="101" y="541"/>
      <point x="91" y="531"/>
      <point x="91" y="518" type="curve" smooth="yes"/>
      <point x="91" y="14" type="line" smooth="yes"/>
      <point x="91" y="1"/>
      <point x="101" y="-10"/>
      <point x="115" y="-10" type="curve" smooth="yes"/>
    </contour>
  </outline>
</glyph>
<glyph name="E" format="1">
  <advance width="482"/>
  <unicode hex="0045"/>
  <outline>
    <contour>
      <point x="128" y="-10"/>
      <point x="139" y="1"/>
      <point x="139" y="14" type="curve" smooth="yes"/>
      <point x="139" y="518" type="line" smooth="yes"/>
      <point x="139" y="531"/>
      <point x="128" y="541"/>
      <point x="115" y="541" type="curve" smooth="yes"/>
      <point x="102" y="541"/>
      <point x="91" y="531"/>
      <point x="91" y="518" type="curve" smooth="yes"/>
      <point x="91" y="14" type="line" smooth="yes"/>
      <point x="91" y="1"/>
      <point x="102" y="-10"/>
      <point x="115" y="-10" type="curve" smooth="yes"/>
    </contour>
    <contour>
      <point x="408" y="-10" type="line" smooth="yes"/>
      <point x="421" y="-10"/>
      <point x="431" y="1"/>
      <point x="431" y="14" type="curve" smooth="yes"/>
      <point x="431" y="26"/>
      <point x="421" y="36"/>
      <point x="408" y="36" type="curve" smooth="yes"/>
      <point x="124" y="36" type="line" smooth="yes"/>
      <point x="111" y="36"/>
      <point x="100" y="26"/>
      <point x="100" y="14" type="curve" smooth="yes"/>
      <point x="100" y="1"/>
      <point x="111" y="-10"/>
      <point x="124" y="-10" type="curve" smooth="yes"/>
    </contour>
    <contour>
      <point x="361" y="262" type="line" smooth="yes"/>
      <point x="374" y="262"/>
      <point x="384" y="272"/>
      <point x="384" y="285" type="curve" smooth="yes"/>
      <point x="384" y="298"/>
      <point x="374" y="308"/>
      <point x="361" y="308" type="curve" smooth="yes"/>
      <point x="124" y="308" type="line" smooth="yes"/>
      <point x="111" y="308"/>
      <point x="100" y="298"/>
      <point x="100" y="285" type="curve" smooth="yes"/>
      <point x="100" y="272"/>
      <point x="111" y="262"/>
      <point x="124" y="262" type="curve" smooth="yes"/>
    </contour>
    <contour>
      <point x="406" y="495" type="line" smooth="yes"/>
      <point x="419" y="495"/>
      <point x="429" y="506"/>
      <point x="429" y="518" type="curve" smooth="yes"/>
      <point x="429" y="531"/>
      <point x="419" y="541"/>
      <point x="406" y="541" type="curve" smooth="yes"/>
      <point x="124" y="541" type="line" smooth="yes"/>
      <point x="111" y="541"/>
      <point x="100" y="531"/>
      <point x="100" y="518" type="curve" smooth="yes"/>
      <point x="100" y="506"/>
      <point x="111" y="495"/>
      <point x="124" y="495" type="curve" smooth="yes"/>
    </contour>
    <contour>
      <point x="410" y="10" type="move" name="ogonek"/>
    </contour>
    <contour>
      <point x="248" y="542" type="move" name="top"/>
    </contour>
  </outline>
</glyph>
<glyph name="H" format="1">
  <advance width="634"/>
  <unicode hex="0048"/>
  <outline>
    <contour>
      <point x="532" y="-10"/>
      <point x="543" y="1"/>
      <point x="543" y="14" type="curve" smooth="yes"/>
      <point x="543" y="518" type="line" smooth="yes"/>
      <point x="543" y="531"/>
      <point x="532" y="541"/>
      <point x="519" y="541" type="curve" smooth="yes"/>
      <point x="506" y="541"/>
      <point x="495" y="531"/>
      <point x="495" y="518" type="curve" smooth="yes"/>
      <point x="495" y="14" type="line" smooth="yes"/>
      <point x="495" y="1"/>
      <point x="506" y="-10"/>
      <point x="519" y="-10" type="curve" smooth="yes"/>
    </contour>
    <contour>
      <point x="128" y="-10"/>
      <point x="139" y="1"/>
      <point x="139" y="14" type="curve" smooth="yes"/>
      <point x="139" y="518" type="line" smooth="yes"/>
      <point x="139" y="531"/>
      <point x="128" y="541"/>
      <point x="115" y="541" type="curve" smooth="yes"/>
      <point x="102" y="541"/>
      <point x="91" y="531"/>
      <point x="91" y="518" type="curve" smooth="yes"/>
      <point x="91" y="14" type="line" smooth="yes"/>
      <point x="91" y="1"/>
      <point x="102" y="-10"/>
      <point x="115" y="-10" type="curve" smooth="yes"/>
    </contour>
    <contour>
      <point x="518" y="261" type="line" smooth="yes"/>
      <point x="531" y="261"/>
      <point x="541" y="271"/>
      <point x="541" y="284" type="curve" smooth="yes"/>
      <point x="541" y="297"/>
      <point x="531" y="307"/>
      <point x="518" y="307" type="curve" smooth="yes"/>
      <point x="119" y="307" type="line" smooth="yes"/>
      <point x="106" y="307"/>
      <point x="95" y="297"/>
      <point x="95" y="284" type="curve" smooth="yes"/>
      <point x="95" y="271"/>
      <point x="106" y="261"/>
      <point x="119" y="261" type="curve" smooth="yes"/>
    </contour>
  </outline>
</glyph>
<glyph name="I" format="1">
  <advance width="240"/>
  <unicode hex="0049"/>
  <outline>
    <contour>
      <point x="133" y="-10"/>
      <point x="144" y="1"/>
      <point x="144" y="14" type="curve" smooth="yes"/>
      <point x="144" y="518" type="line" smooth="yes"/>
      <point x="144" y="531"/>
      <point x="133" y="541"/>
      <point x="120" y="541" type="curve" smooth="yes"/>
      <point x="107" y="541"/>
      <point x="96" y="531"/>
      <point x="96" y="518" type="curve" smooth="yes"/>
      <point x="96" y="14" type="line" smooth="yes"/>
      <point x="96" y="1"/>
      <point x="107" y="-10"/>
      <point x="120" y="-10" type="curve" smooth="yes"/>
    </contour>
    <contour>
      <point x="121" y="31" type="move" name="ogonek"/>
    </contour>
    <contour>
      <point x="120" y="-10" type="move" name="bottom"/>
    </contour>
    <contour>
      <point x="120" y="541" type="move" name="top"/>
    </contour>
  </outline>
</glyph>
<glyph name="J" format="1">
  <advance width="379"/>
  <unicode hex="004A"/>
  <outline>
    <contour>
      <point x="248" y="-19"/>
      <point x="302" y="37"/>
      <point x="302" y="161" type="curve" smooth="yes"/>
      <point x="302" y="518" type="line" smooth="yes"/>
      <point x="302" y="531"/>
      <point x="291" y="541"/>
      <point x="278" y="541" type="curve" smooth="yes"/>
      <point x="265" y="541"/>
      <point x="254" y="531"/>
      <point x="254" y="518" type="curve" smooth="yes"/>
      <point x="254" y="161" type="line" smooth="yes"/>
      <point x="254" y="77"/>
      <point x="224" y="28"/>
      <point x="154" y="28" type="curve" smooth="yes"/>
      <point x="126" y="28"/>
      <point x="98" y="32"/>
      <point x="70" y="45" type="curve" smooth="yes"/>
      <point x="59" y="51"/>
      <point x="44" y="45"/>
      <point x="40" y="34" type="curve" smooth="yes"/>
      <point x="34" y="23"/>
      <point x="40" y="8"/>
      <point x="51" y="4" type="curve" smooth="yes"/>
      <point x="84" y="-12"/>
      <point x="119" y="-19"/>
      <point x="154" y="-19" type="curve" smooth="yes"/>
    </contour>
  </outline>
</glyph>
<glyph name="K" format="1">
  <advance width="556"/>
  <unicode hex="004B"/>
  <outline>
    <contour>
      <point x="182" y="216"/>
      <point x="379" y="393"/>
      <point x="484" y="502" type="curve" smooth="yes"/>
      <point x="493" y="511"/>
      <point x="493" y="526"/>
      <point x="484" y="534" type="curve" smooth="yes"/>
      <point x="475" y="543"/>
      <point x="459" y="543"/>
      <point x="451" y="534" type="curve" smooth="yes"/>
      <point x="346" y="425"/>
      <point x="149" y="251"/>
      <point x="99" y="205" type="curve" smooth="yes"/>
      <point x="90" y="197"/>
      <point x="89" y="182"/>
      <point x="97" y="173" type="curve" smooth="yes"/>
      <point x="105" y="164"/>
      <point x="121" y="163"/>
      <point x="130" y="171" type="curve" smooth="yes"/>
    </contour>
    <contour>
      <point x="128" y="-10"/>
      <point x="139" y="1"/>
      <point x="139" y="14" type="curve" smooth="yes"/>
      <point x="139" y="518" type="line" smooth="yes"/>
      <point x="139" y="531"/>
      <point x="128" y="541"/>
      <point x="115" y="541" type="curve" smooth="yes"/>
      <point x="102" y="541"/>
      <point x="91" y="531"/>
      <point x="91" y="518" type="curve" smooth="yes"/>
      <point x="91" y="14" type="line" smooth="yes"/>
      <point x="91" y="1"/>
      <point x="102" y="-10"/>
      <point x="115" y="-10" type="curve" smooth="yes"/>
    </contour>
    <contour>
      <point x="513" y="4"/>
      <point x="515" y="19"/>
      <point x="506" y="29" type="curve" smooth="yes"/>
      <point x="448" y="94"/>
      <point x="323" y="246"/>
      <point x="263" y="318" type="curve" smooth="yes"/>
      <point x="255" y="327"/>
      <point x="240" y="328"/>
      <point x="230" y="320" type="curve" smooth="yes"/>
      <point x="220" y="313"/>
      <point x="219" y="298"/>
      <point x="227" y="288" type="curve" smooth="yes"/>
      <point x="287" y="216"/>
      <point x="413" y="64"/>
      <point x="471" y="-2" type="curve" smooth="yes"/>
      <point x="479" y="-11"/>
      <point x="495" y="-12"/>
      <point x="504" y="-4" type="curve" smooth="yes"/>
    </contour>
    <contour>
      <point x="273" y="15" type="move" name="bottom"/>
    </contour>
  </outline>
</glyph>
<glyph name="N" format="1">
  <advance width="638"/>
  <unicode hex="004E"/>
  <outline>
    <contour>
      <point x="541" y="2"/>
      <point x="543" y="17"/>
      <point x="536" y="27" type="curve" smooth="yes"/>
      <point x="424" y="176"/>
      <point x="219" y="428"/>
      <point x="140" y="532" type="curve" smooth="yes"/>
      <point x="132" y="542"/>
      <point x="117" y="544"/>
      <point x="107" y="537" type="curve" smooth="yes"/>
      <point x="96" y="529"/>
      <point x="95" y="515"/>
      <point x="102" y="504" type="curve" smooth="yes"/>
      <point x="181" y="400"/>
      <point x="386" y="148"/>
      <point x="498" y="-1" type="curve" smooth="yes"/>
      <point x="505" y="-11"/>
      <point x="520" y="-12"/>
      <point x="531" y="-5" type="curve" smooth="yes"/>
    </contour>
    <contour>
      <point x="128" y="-10"/>
      <point x="139" y="1"/>
      <point x="139" y="14" type="curve" smooth="yes"/>
      <point x="139" y="518" type="line" smooth="yes"/>
      <point x="139" y="531"/>
      <point x="128" y="541"/>
      <point x="115" y="541" type="curve" smooth="yes"/>
      <point x="102" y="541"/>
      <point x="91" y="531"/>
      <point x="91" y="518" type="curve" smooth="yes"/>
      <point x="91" y="14" type="line" smooth="yes"/>
      <point x="91" y="1"/>
      <point x="102" y="-10"/>
      <point x="115" y="-10" type="curve" smooth="yes"/>
    </contour>
    <contour>
      <point x="537" y="-10"/>
      <point x="548" y="1"/>
      <point x="548" y="14" type="curve" smooth="yes"/>
      <point x="548" y="518" type="line" smooth="yes"/>
      <point x="548" y="531"/>
      <point x="537" y="541"/>
      <point x="524" y="541" type="curve" smooth="yes"/>
      <point x="511" y="541"/>
      <point x="500" y="531"/>
      <point x="500" y="518" type="curve" smooth="yes"/>
      <point x="500" y="14" type="line" smooth="yes"/>
      <point x="500" y="1"/>
      <point x="511" y="-10"/>
      <point x="524" y="-10" type="curve" smooth="yes"/>
    </contour>
    <contour>
      <point x="326" y="517" type="move" name="top"/>
    </contour>
    <contour>
      <point x="304" y="34" type="move" name="bottom"/>
    </contour>
  </outline>
</glyph>
<glyph name="O" format="1">
  <advance width="643"/>
  <unicode hex="004F"/>
  <outline>
    <contour>
      <point x="492" y="-20"/>
      <point x="592" y="104"/>
      <point x="592" y="265" type="curve" smooth="yes"/>
      <point x="592" y="434"/>
      <point x="472" y="551"/>
      <point x="324" y="551" type="curve" smooth="yes"/>
      <point x="163" y="551"/>
      <point x="52" y="434"/>
      <point x="52" y="262" type="curve" smooth="yes"/>
      <point x="52" y="104"/>
      <point x="165" y="-20"/>
      <point x="324" y="-20" type="curve" smooth="yes"/>
    </contour>
    <contour>
      <point x="191" y="27"/>
      <point x="100" y="133"/>
      <point x="100" y="262" type="curve" smooth="yes"/>
      <point x="100" y="404"/>
      <point x="189" y="505"/>
      <point x="324" y="505" type="curve" smooth="yes"/>
      <point x="448" y="505"/>
      <point x="544" y="404"/>
      <point x="544" y="265" type="curve" smooth="yes"/>
      <point x="544" y="133"/>
      <point x="464" y="27"/>
      <point x="324" y="27" type="curve" smooth="yes"/>
    </contour>
    <contour>
      <point x="323" y="552" type="move" name="top"/>
    </contour>
    <contour>
      <point x="325" y="-17" type="move" name="bottom"/>
    </contour>
  </outline>
</glyph>
<glyph name="P" format="1">
  <advance width="507"/>
  <unicode hex="0050"/>
  <outline>
    <contour>
      <point x="128" y="-10"/>
      <point x="139" y="1"/>
      <point x="139" y="14" type="curve" smooth="yes"/>
      <point x="139" y="518" type="line"/>
      <point x="115" y="495" type="line"/>
      <point x="265" y="495" type="line" smooth="yes"/>
      <point x="355" y="495"/>
      <point x="421" y="439"/>
      <point x="421" y="358" type="curve" smooth="yes"/>
      <point x="421" y="281"/>
      <point x="366" y="220"/>
      <point x="265" y="220" type="curve" smooth="yes"/>
      <point x="142" y="220" type="line" smooth="yes"/>
      <point x="129" y="220"/>
      <point x="118" y="210"/>
      <point x="118" y="197" type="curve" smooth="yes"/>
      <point x="118" y="184"/>
      <point x="129" y="174"/>
      <point x="142" y="174" type="curve" smooth="yes"/>
      <point x="265" y="174" type="line" smooth="yes"/>
      <point x="401" y="174"/>
      <point x="469" y="258"/>
      <point x="469" y="358" type="curve" smooth="yes"/>
      <point x="469" y="465"/>
      <point x="386" y="541"/>
      <point x="265" y="541" type="curve" smooth="yes"/>
      <point x="115" y="541" type="line" smooth="yes"/>
      <point x="101" y="541"/>
      <point x="91" y="531"/>
      <point x="91" y="518" type="curve" smooth="yes"/>
      <point x="91" y="14" type="line" smooth="yes"/>
      <point x="91" y="1"/>
      <point x="102" y="-10"/>
      <point x="115" y="-10" type="curve" smooth="yes"/>
    </contour>
  </outline>
</glyph>
<glyph name="Q" format="1">
  <advance width="643"/>
  <unicode hex="0051"/>
  <outline>
    <contour>
      <point x="492" y="-16"/>
      <point x="592" y="107"/>
      <point x="592" y="268" type="curve" smooth="yes"/>
      <point x="592" y="438"/>
      <point x="472" y="554"/>
      <point x="324" y="554" type="curve" smooth="yes"/>
      <point x="163" y="554"/>
      <point x="52" y="438"/>
      <point x="52" y="265" type="curve" smooth="yes"/>
      <point x="52" y="107"/>
      <point x="165" y="-16"/>
      <point x="324" y="-16" type="curve" smooth="yes"/>
    </contour>
    <contour>
      <point x="537" y="-155"/>
      <point x="547" y="-145"/>
      <point x="547" y="-132" type="curve" smooth="yes"/>
      <point x="547" y="-120"/>
      <point x="537" y="-109"/>
      <point x="524" y="-109" type="curve" smooth="yes"/>
      <point x="426" y="-109"/>
      <point x="360" y="-58"/>
      <point x="343" y="11" type="curve" smooth="yes"/>
      <point x="340" y="22"/>
      <point x="326" y="30"/>
      <point x="314" y="27" type="curve" smooth="yes"/>
      <point x="302" y="24"/>
      <point x="293" y="10"/>
      <point x="297" y="-1" type="curve" smooth="yes"/>
      <point x="319" y="-86"/>
      <point x="398" y="-155"/>
      <point x="524" y="-155" type="curve" smooth="yes"/>
    </contour>
    <contour>
      <point x="191" y="31"/>
      <point x="100" y="136"/>
      <point x="100" y="265" type="curve" smooth="yes"/>
      <point x="100" y="408"/>
      <point x="189" y="508"/>
      <point x="324" y="508" type="curve" smooth="yes"/>
      <point x="448" y="508"/>
      <point x="544" y="408"/>
      <point x="544" y="268" type="curve" smooth="yes"/>
      <point x="544" y="136"/>
      <point x="464" y="31"/>
      <point x="324" y="31" type="curve" smooth="yes"/>
    </contour>
  </outline>
</glyph>
<glyph name="S" format="1">
  <advance width="522"/>
  <unicode hex="0053"/>
  <outline>
    <contour>
      <point x="404" y="-19"/>
      <point x="458" y="55"/>
      <point x="458" y="131" type="curve" smooth="yes"/>
      <point x="458" y="206"/>
      <point x="415" y="269"/>
      <point x="267" y="302" type="curve" smooth="yes"/>
      <point x="151" y="324"/>
      <point x="122" y="371"/>
      <point x="122" y="416" type="curve" smooth="yes"/>
      <point x="122" y="462"/>
      <point x="171" y="502"/>
      <point x="241" y="502" type="curve" smooth="yes"/>
      <point x="310" y="502"/>
      <point x="343" y="490"/>
      <point x="390" y="472" type="curve" smooth="yes"/>
      <point x="402" y="467"/>
      <point x="416" y="474"/>
      <point x="421" y="485" type="curve" smooth="yes"/>
      <point x="425" y="497"/>
      <point x="419" y="511"/>
      <point x="407" y="515" type="curve" smooth="yes"/>
      <point x="355" y="536"/>
      <point x="317" y="548"/>
      <point x="241" y="548" type="curve" smooth="yes"/>
      <point x="133" y="548"/>
      <point x="74" y="481"/>
      <point x="74" y="416" type="curve" smooth="yes"/>
      <point x="74" y="358"/>
      <point x="95" y="288"/>
      <point x="258" y="256" type="curve" smooth="yes"/>
      <point x="366" y="232"/>
      <point x="410" y="190"/>
      <point x="410" y="131" type="curve" smooth="yes"/>
      <point x="410" y="74"/>
      <point x="360" y="28"/>
      <point x="262" y="28" type="curve" smooth="yes"/>
      <point x="203" y="28"/>
      <point x="147" y="40"/>
      <point x="96" y="69" type="curve" smooth="yes"/>
      <point x="86" y="75"/>
      <point x="71" y="71"/>
      <point x="65" y="61" type="curve" smooth="yes"/>
      <point x="58" y="50"/>
      <point x="62" y="35"/>
      <point x="73" y="30" type="curve" smooth="yes"/>
      <point x="131" y="-3"/>
      <point x="194" y="-19"/>
      <point x="262" y="-19" type="curve" smooth="yes"/>
    </contour>
    <contour>
      <point x="239" y="547" type="move" name="top"/>
    </contour>
    <contour>
      <point x="261" y="-21" type="move" name="bottom"/>
    </contour>
  </outline>
</glyph>
<glyph name="T" format="1">
  <advance width="544"/>
  <unicode hex="0054"/>
  <outline>
    <contour>
      <point x="284" y="-10"/>
      <point x="295" y="1"/>
      <point x="295" y="14" type="curve" smooth="yes"/>
      <point x="295" y="518" type="line" smooth="yes"/>
      <point x="295" y="531"/>
      <point x="284" y="541"/>
      <point x="271" y="541" type="curve" smooth="yes"/>
      <point x="258" y="541"/>
      <point x="247" y="531"/>
      <point x="247" y="518" type="curve" smooth="yes"/>
      <point x="247" y="14" type="line" smooth="yes"/>
      <point x="247" y="1"/>
      <point x="258" y="-10"/>
      <point x="271" y="-10" type="curve" smooth="yes"/>
    </contour>
    <contour>
      <point x="497" y="495" type="line" smooth="yes"/>
      <point x="510" y="495"/>
      <point x="520" y="506"/>
      <point x="520" y="518" type="curve" smooth="yes"/>
      <point x="520" y="531"/>
      <point x="510" y="541"/>
      <point x="497" y="541" type="curve" smooth="yes"/>
      <point x="48" y="541" type="line" smooth="yes"/>
      <point x="35" y="541"/>
      <point x="24" y="531"/>
      <point x="24" y="518" type="curve" smooth="yes"/>
      <point x="24" y="506"/>
      <point x="35" y="495"/>
      <point x="48" y="495" type="curve" smooth="yes"/>
    </contour>
    <contour>
      <point x="271" y="542" type="move" name="top"/>
    </contour>
    <contour>
      <point x="271" y="-8" type="move" name="bottom"/>
    </contour>
  </outline>
</glyph>
<glyph name="U" format="1">
  <advance width="618"/>
  <unicode hex="0055"/>
  <outline>
    <contour>
      <point x="456" y="-19"/>
      <point x="540" y="63"/>
      <point x="540" y="214" type="curve" smooth="yes"/>
      <point x="540" y="518" type="line" smooth="yes"/>
      <point x="540" y="531"/>
      <point x="529" y="541"/>
      <point x="516" y="541" type="curve" smooth="yes"/>
      <point x="503" y="541"/>
      <point x="492" y="531"/>
      <point x="492" y="518" type="curve" smooth="yes"/>
      <point x="492" y="214" type="line" smooth="yes"/>
      <point x="492" y="93"/>
      <point x="426" y="28"/>
      <point x="307" y="28" type="curve" smooth="yes"/>
      <point x="201" y="28"/>
      <point x="127" y="93"/>
      <point x="127" y="211" type="curve" smooth="yes"/>
      <point x="127" y="518" type="line" smooth="yes"/>
      <point x="127" y="531"/>
      <point x="116" y="541"/>
      <point x="103" y="541" type="curve" smooth="yes"/>
      <point x="90" y="541"/>
      <point x="79" y="531"/>
      <point x="79" y="518" type="curve" smooth="yes"/>
      <point x="79" y="211" type="line" smooth="yes"/>
      <point x="79" y="63"/>
      <point x="173" y="-19"/>
      <point x="307" y="-19" type="curve" smooth="yes"/>
    </contour>
    <contour>
      <point x="358" y="-8" type="move" name="ogonek"/>
    </contour>
    <contour>
      <point x="305" y="511" type="move" name="top"/>
    </contour>
  </outline>
</glyph>
<glyph name="W" format="1">
  <advance width="913"/>
  <unicode hex="0057"/>
  <outline>
    <contour>
      <point x="265" y="-22"/>
      <point x="280" y="-16"/>
      <point x="284" y="-5" type="curve" smooth="yes"/>
      <point x="323" y="83"/>
      <point x="434" y="360"/>
      <point x="479" y="507" type="curve" smooth="yes"/>
      <point x="483" y="520"/>
      <point x="476" y="533"/>
      <point x="464" y="536" type="curve" smooth="yes"/>
      <point x="451" y="540"/>
      <point x="437" y="533"/>
      <point x="434" y="521" type="curve" smooth="yes"/>
      <point x="389" y="375"/>
      <point x="280" y="101"/>
      <point x="241" y="14" type="curve" smooth="yes"/>
      <point x="236" y="2"/>
      <point x="242" y="-12"/>
      <point x="253" y="-16" type="curve" smooth="yes"/>
    </contour>
    <contour>
      <point x="280" y="-5"/>
      <point x="286" y="10"/>
      <point x="280" y="21" type="curve" smooth="yes"/>
      <point x="243" y="97"/>
      <point x="139" y="395"/>
      <point x="105" y="523" type="curve" smooth="yes"/>
      <point x="102" y="536"/>
      <point x="88" y="543"/>
      <point x="76" y="539" type="curve" smooth="yes"/>
      <point x="63" y="537"/>
      <point x="55" y="523"/>
      <point x="59" y="511" type="curve" smooth="yes"/>
      <point x="94" y="381"/>
      <point x="200" y="78"/>
      <point x="237" y="0" type="curve" smooth="yes"/>
      <point x="243" y="-11"/>
      <point x="257" y="-16"/>
      <point x="269" y="-10" type="curve" smooth="yes"/>
    </contour>
    <contour>
      <point x="669" y="-5"/>
      <point x="675" y="9"/>
      <point x="669" y="20" type="curve" smooth="yes"/>
      <point x="631" y="96"/>
      <point x="524" y="384"/>
      <point x="484" y="509" type="curve" smooth="yes"/>
      <point x="481" y="521"/>
      <point x="467" y="528"/>
      <point x="455" y="524" type="curve" smooth="yes"/>
      <point x="443" y="521"/>
      <point x="435" y="507"/>
      <point x="439" y="495" type="curve" smooth="yes"/>
      <point x="479" y="367"/>
      <point x="588" y="77"/>
      <point x="626" y="-1" type="curve" smooth="yes"/>
      <point x="632" y="-12"/>
      <point x="647" y="-17"/>
      <point x="658" y="-11" type="curve" smooth="yes"/>
    </contour>
    <contour>
      <point x="654" y="-23"/>
      <point x="669" y="-17"/>
      <point x="673" y="-6" type="curve" smooth="yes"/>
      <point x="712" y="82"/>
      <point x="812" y="361"/>
      <point x="855" y="510" type="curve" smooth="yes"/>
      <point x="859" y="523"/>
      <point x="851" y="536"/>
      <point x="840" y="539" type="curve" smooth="yes"/>
      <point x="827" y="543"/>
      <point x="813" y="536"/>
      <point x="810" y="524" type="curve" smooth="yes"/>
      <point x="767" y="376"/>
      <point x="669" y="100"/>
      <point x="630" y="13" type="curve" smooth="yes"/>
      <point x="625" y="1"/>
      <point x="631" y="-13"/>
      <point x="642" y="-17" type="curve" smooth="yes"/>
    </contour>
    <contour>
      <point x="457" y="534" type="move" name="top"/>
    </contour>
  </outline>
</glyph>
<glyph name="Z" format="1">
  <advance width="562"/>
  <unicode hex="005A"/>
  <outline>
    <contour>
      <point x="81" y="-5"/>
      <point x="97" y="-2"/>
      <point x="104" y="9" type="curve" smooth="yes"/>
      <point x="159" y="94"/>
      <point x="425" y="406"/>
      <point x="491" y="506" type="curve" smooth="yes"/>
      <point x="498" y="516"/>
      <point x="494" y="531"/>
      <point x="484" y="538" type="curve" smooth="yes"/>
      <point x="473" y="545"/>
      <point x="458" y="541"/>
      <point x="451" y="531" type="curve" smooth="yes"/>
      <point x="385" y="432"/>
      <point x="119" y="119"/>
      <point x="64" y="34" type="curve" smooth="yes"/>
      <point x="57" y="24"/>
      <point x="60" y="9"/>
      <point x="71" y="2" type="curve" smooth="yes"/>
    </contour>
    <contour>
      <point x="484" y="-10" type="line" smooth="yes"/>
      <point x="497" y="-10"/>
      <point x="507" y="1"/>
      <point x="507" y="14" type="curve" smooth="yes"/>
      <point x="507" y="26"/>
      <point x="497" y="36"/>
      <point x="484" y="36" type="curve" smooth="yes"/>
      <point x="79" y="36" type="line" smooth="yes"/>
      <point x="66" y="36"/>
      <point x="55" y="26"/>
      <point x="55" y="14" type="curve" smooth="yes"/>
      <point x="55" y="1"/>
      <point x="66" y="-10"/>
      <point x="79" y="-10" type="curve" smooth="yes"/>
    </contour>
    <contour>
      <point x="460" y="495" type="line" smooth="yes"/>
      <point x="473" y="495"/>
      <point x="483" y="506"/>
      <point x="483" y="518" type="curve" smooth="yes"/>
      <point x="483" y="531"/>
      <point x="473" y="541"/>
      <point x="460" y="541" type="curve" smooth="yes"/>
      <point x="93" y="541" type="line" smooth="yes"/>
      <point x="80" y="541"/>
      <point x="69" y="531"/>
      <point x="69" y="518" type="curve" smooth="yes"/>
      <point x="69" y="506"/>
      <point x="80" y="495"/>
      <point x="93" y="495" type="curve" smooth="yes"/>
    </contour>
    <contour>
      <point x="270" y="542" type="move" name="top"/>
    </contour>
  </outline>
</glyph>
<glyph name="backslash" format="1">
  <advance width="386"/>
  <unicode hex="005C"/>
  <outline>
    <contour>
      <point x="347" y="-88"/>
      <point x="353" y="-74"/>
      <point x="349" y="-63" type="curve" smooth="yes"/>
      <point x="88" y="645" type="line" smooth="yes"/>
      <point x="84" y="657"/>
      <point x="69" y="663"/>
      <point x="58" y="659" type="curve" smooth="yes"/>
      <point x="46" y="654"/>
      <point x="39" y="641"/>
      <point x="43" y="629" type="curve" smooth="yes"/>
      <point x="304" y="-79" type="line" smooth="yes"/>
      <point x="309" y="-91"/>
      <point x="323" y="-96"/>
      <point x="335" y="-93" type="curve" smooth="yes"/>
    </contour>
  </outline>
</glyph>
<glyph name="bracketright" format="1">
  <advance width="323"/>
  <unicode hex="005D"/>
  <outline>
    <contour>
      <point x="235" y="-105" type="line" smooth="yes"/>
      <point x="248" y="-105"/>
      <point x="259" y="-94"/>
      <point x="259" y="-82" type="curve" smooth="yes"/>
      <point x="259" y="625" type="line" smooth="yes"/>
      <point x="259" y="638"/>
      <point x="248" y="648"/>
      <point x="235" y="648" type="curve" smooth="yes"/>
      <point x="93" y="648" type="line" smooth="yes"/>
      <point x="80" y="648"/>
      <point x="69" y="638"/>
      <point x="69" y="625" type="curve" smooth="yes"/>
      <point x="69" y="613"/>
      <point x="80" y="602"/>
      <point x="93" y="602" type="curve" smooth="yes"/>
      <point x="235" y="602" type="line"/>
      <point x="211" y="625" type="line"/>
      <point x="211" y="-82" type="line"/>
      <point x="235" y="-59" type="line"/>
      <point x="93" y="-59" type="line" smooth="yes"/>
      <point x="80" y="-59"/>
      <point x="69" y="-69"/>
      <point x="69" y="-82" type="curve" smooth="yes"/>
      <point x="69" y="-94"/>
      <point x="80" y="-105"/>
      <point x="93" y="-105" type="curve" smooth="yes"/>
    </contour>
  </outline>
</glyph>
<glyph name="underscore" format="1">
  <advance width="491"/>
  <unicode hex="005F"/>
  <outline>
    <contour>
      <point x="464" y="-121" type="line" smooth="yes"/>
      <point x="477" y="-121"/>
      <point x="487" y="-110"/>
      <point x="487" y="-98" type="curve" smooth="yes"/>
      <point x="487" y="-85"/>
      <point x="477" y="-75"/>
      <point x="464" y="-75" type="curve" smooth="yes"/>
      <point x="28" y="-75" type="line" smooth="yes"/>
      <point x="15" y="-75"/>
      <point x="4" y="-85"/>
      <point x="4" y="-98" type="curve" smooth="yes"/>
      <point x="4" y="-110"/>
      <point x="15" y="-121"/>
      <point x="28" y="-121" type="curve" smooth="yes"/>
    </contour>
  </outline>
</glyph>
<glyph name="a" format="1">
  <advance width="447"/>
  <unicode hex="0061"/>
  <outline>
    <contour>
      <point x="418" y="8"/>
      <point x="420" y="23"/>
      <point x="411" y="33" type="curve" smooth="yes"/>
      <point x="390" y="57"/>
      <point x="379" y="86"/>
      <point x="379" y="135" type="curve" smooth="yes"/>
      <point x="379" y="231" type="line" smooth="yes"/>
      <point x="379" y="329"/>
      <point x="326" y="396"/>
      <point x="215" y="396" type="curve" smooth="yes"/>
      <point x="177" y="396"/>
      <point x="133" y="386"/>
      <point x="110" y="378" type="curve" smooth="yes"/>
      <point x="98" y="375"/>
      <point x="91" y="361"/>
      <point x="94" y="350" type="curve" smooth="yes"/>
      <point x="98" y="338"/>
      <point x="112" y="331"/>
      <point x="124" y="335" type="curve" smooth="yes"/>
      <point x="144" y="342"/>
      <point x="182" y="350"/>
      <point x="215" y="350" type="curve" smooth="yes"/>
      <point x="295" y="350"/>
      <point x="331" y="301"/>
      <point x="331" y="231" type="curve" smooth="yes"/>
      <point x="331" y="135" type="line" smooth="yes"/>
      <point x="331" y="70"/>
      <point x="348" y="33"/>
      <point x="376" y="2" type="curve" smooth="yes"/>
      <point x="384" y="-7"/>
      <point x="400" y="-8"/>
      <point x="409" y="0" type="curve" smooth="yes"/>
    </contour>
    <contour>
      <point x="255" y="-7"/>
      <point x="319" y="27"/>
      <point x="374" y="102" type="curve" smooth="yes"/>
      <point x="382" y="112"/>
      <point x="379" y="127"/>
      <point x="369" y="134" type="curve" smooth="yes"/>
      <point x="358" y="142"/>
      <point x="343" y="140"/>
      <point x="336" y="130" type="curve" smooth="yes"/>
      <point x="291" y="69"/>
      <point x="239" y="39"/>
      <point x="170" y="39" type="curve" smooth="yes"/>
      <point x="116" y="39"/>
      <point x="92" y="73"/>
      <point x="92" y="101" type="curve" smooth="yes"/>
      <point x="92" y="121"/>
      <point x="96" y="140"/>
      <point x="113" y="156" type="curve" smooth="yes"/>
      <point x="142" y="183"/>
      <point x="188" y="199"/>
      <point x="257" y="199" type="curve" smooth="yes"/>
      <point x="287" y="199"/>
      <point x="319" y="197"/>
      <point x="353" y="196" type="curve" smooth="yes"/>
      <point x="365" y="196"/>
      <point x="377" y="206"/>
      <point x="377" y="218" type="curve" smooth="yes"/>
      <point x="377" y="230"/>
      <point x="367" y="242"/>
      <point x="355" y="242" type="curve" smooth="yes"/>
      <point x="319" y="243"/>
      <point x="287" y="245"/>
      <point x="257" y="245" type="curve" smooth="yes"/>
      <point x="171" y="245"/>
      <point x="116" y="223"/>
      <point x="80" y="188" type="curve" smooth="yes"/>
      <point x="53" y="163"/>
      <point x="44" y="135"/>
      <point x="44" y="101" type="curve" smooth="yes"/>
      <point x="44" y="56"/>
      <point x="74" y="-7"/>
      <point x="170" y="-7" type="curve" smooth="yes"/>
    </contour>
    <contour>
      <point x="396" y="13" type="move" name="ogonek"/>
    </contour>
    <contour>
      <point x="207" y="399" type="move" name="top"/>
    </contour>
  </outline>
</glyph>
<glyph name="b" format="1">
  <advance width="511"/>
  <unicode hex="0062"/>
  <outline>
    <contour>
      <point x="381" y="-11"/>
      <point x="464" y="67"/>
      <point x="464" y="190" type="curve" smooth="yes"/>
      <point x="464" y="313"/>
      <point x="380" y="392"/>
      <point x="281" y="392" type="curve" smooth="yes"/>
      <point x="209" y="392"/>
      <point x="135" y="344"/>
      <point x="83" y="261" type="curve" smooth="yes"/>
      <point x="76" y="250"/>
      <point x="79" y="236"/>
      <point x="90" y="229" type="curve" smooth="yes"/>
      <point x="101" y="222"/>
      <point x="116" y="225"/>
      <point x="123" y="236" type="curve" smooth="yes"/>
      <point x="164" y="302"/>
      <point x="223" y="346"/>
      <point x="281" y="346" type="curve" smooth="yes"/>
      <point x="357" y="346"/>
      <point x="416" y="281"/>
      <point x="416" y="190" type="curve" smooth="yes"/>
      <point x="416" y="97"/>
      <point x="355" y="35"/>
      <point x="267" y="35" type="curve" smooth="yes"/>
      <point x="209" y="35"/>
      <point x="160" y="48"/>
      <point x="113" y="74" type="curve" smooth="yes"/>
      <point x="102" y="79"/>
      <point x="88" y="75"/>
      <point x="81" y="65" type="curve" smooth="yes"/>
      <point x="75" y="53"/>
      <point x="79" y="39"/>
      <point x="90" y="33" type="curve" smooth="yes"/>
      <point x="144" y="5"/>
      <point x="200" y="-11"/>
      <point x="267" y="-11" type="curve" smooth="yes"/>
    </contour>
    <contour>
      <point x="115" y="-10"/>
      <point x="126" y="1"/>
      <point x="126" y="14" type="curve" smooth="yes"/>
      <point x="126" y="545" type="line" smooth="yes"/>
      <point x="126" y="558"/>
      <point x="115" y="568"/>
      <point x="102" y="568" type="curve" smooth="yes"/>
      <point x="89" y="568"/>
      <point x="78" y="558"/>
      <point x="78" y="545" type="curve" smooth="yes"/>
      <point x="78" y="14" type="line" smooth="yes"/>
      <point x="78" y="1"/>
      <point x="89" y="-10"/>
      <point x="102" y="-10" type="curve" smooth="yes"/>
    </contour>
  </outline>
</glyph>
<glyph name="d" format="1">
  <advance width="511"/>
  <unicode hex="0064"/>
  <outline>
    <contour>
      <point x="319" y="-11"/>
      <point x="384" y="46"/>
      <point x="430" y="123" type="curve" smooth="yes"/>
      <point x="437" y="133"/>
      <point x="433" y="148"/>
      <point x="421" y="154" type="curve" smooth="yes"/>
      <point x="411" y="161"/>
      <point x="395" y="157"/>
      <point x="389" y="146" type="curve" smooth="yes"/>
      <point x="353" y="86"/>
      <point x="303" y="35"/>
      <point x="231" y="35" type="curve" smooth="yes"/>
      <point x="154" y="35"/>
      <point x="98" y="94"/>
      <point x="98" y="182" type="curve" smooth="yes"/>
      <point x="98" y="277"/>
      <point x="163" y="346"/>
      <point x="253" y="346" type="curve" smooth="yes"/>
      <point x="310" y="346"/>
      <point x="353" y="324"/>
      <point x="396" y="290" type="curve" smooth="yes"/>
      <point x="406" y="282"/>
      <point x="420" y="283"/>
      <point x="428" y="292" type="curve" smooth="yes"/>
      <point x="436" y="302"/>
      <point x="435" y="316"/>
      <point x="426" y="324" type="curve" smooth="yes"/>
      <point x="374" y="367"/>
      <point x="322" y="392"/>
      <point x="253" y="392" type="curve" smooth="yes"/>
      <point x="137" y="392"/>
      <point x="50" y="305"/>
      <point x="50" y="182" type="curve" smooth="yes"/>
      <point x="50" y="64"/>
      <point x="130" y="-11"/>
      <point x="231" y="-11" type="curve" smooth="yes"/>
    </contour>
    <contour>
      <point x="424" y="-11"/>
      <point x="435" y="0"/>
      <point x="435" y="13" type="curve" smooth="yes"/>
      <point x="435" y="545" type="line" smooth="yes"/>
      <point x="435" y="558"/>
      <point x="424" y="568"/>
      <point x="411" y="568" type="curve" smooth="yes"/>
      <point x="398" y="568"/>
      <point x="387" y="558"/>
      <point x="387" y="545" type="curve" smooth="yes"/>
      <point x="387" y="13" type="line" smooth="yes"/>
      <point x="387" y="0"/>
      <point x="398" y="-11"/>
      <point x="411" y="-11" type="curve" smooth="yes"/>
    </contour>
  </outline>
</glyph>
<glyph name="k" format="1">
  <advance width="463"/>
  <unicode hex="006B"/>
  <outline>
    <contour>
      <point x="401" y="350" type="line" smooth="yes"/>
      <point x="411" y="358"/>
      <point x="412" y="373"/>
      <point x="405" y="382" type="curve" smooth="yes"/>
      <point x="397" y="393"/>
      <point x="382" y="394"/>
      <point x="373" y="387" type="curve" smooth="yes"/>
      <point x="90" y="167" type="line" smooth="yes"/>
      <point x="79" y="159"/>
      <point x="78" y="144"/>
      <point x="85" y="134" type="curve" smooth="yes"/>
      <point x="93" y="124"/>
      <point x="108" y="123"/>
      <point x="118" y="130" type="curve" smooth="yes"/>
    </contour>
    <contour>
      <point x="115" y="-11"/>
      <point x="126" y="0"/>
      <point x="126" y="13" type="curve" smooth="yes"/>
      <point x="126" y="545" type="line" smooth="yes"/>
      <point x="126" y="558"/>
      <point x="115" y="568"/>
      <point x="102" y="568" type="curve" smooth="yes"/>
      <point x="89" y="568"/>
      <point x="78" y="558"/>
      <point x="78" y="545" type="curve" smooth="yes"/>
      <point x="78" y="13" type="line" smooth="yes"/>
      <point x="78" y="0"/>
      <point x="89" y="-11"/>
      <point x="102" y="-11" type="curve" smooth="yes"/>
    </contour>
    <contour>
      <point x="424" y="1"/>
      <point x="428" y="16"/>
      <point x="420" y="26" type="curve" smooth="yes"/>
      <point x="251" y="262" type="line" smooth="yes"/>
      <point x="244" y="272"/>
      <point x="228" y="275"/>
      <point x="218" y="267" type="curve" smooth="yes"/>
      <point x="208" y="260"/>
      <point x="205" y="245"/>
      <point x="213" y="235" type="curve" smooth="yes"/>
      <point x="382" y="-1" type="line" smooth="yes"/>
      <point x="389" y="-11"/>
      <point x="404" y="-14"/>
      <point x="415" y="-6" type="curve" smooth="yes"/>
    </contour>
    <contour>
      <point x="229" y="27" type="move" name="bottom"/>
    </contour>
  </outline>
</glyph>
<glyph name="l" format="1">
  <advance width="215"/>
  <unicode hex="006C"/>
  <outline>
    <contour>
      <point x="121" y="-11"/>
      <point x="132" y="0"/>
      <point x="132" y="13" type="curve" smooth="yes"/>
      <point x="132" y="545" type="line" smooth="yes"/>
      <point x="132" y="558"/>
      <point x="121" y="568"/>
      <point x="108" y="568" type="curve" smooth="yes"/>
      <point x="95" y="568"/>
      <point x="84" y="558"/>
      <point x="84" y="545" type="curve" smooth="yes"/>
      <point x="84" y="13" type="line" smooth="yes"/>
      <point x="84" y="0"/>
      <point x="95" y="-11"/>
      <point x="108" y="-11" type="curve" smooth="yes"/>
    </contour>
    <contour>
      <point x="108" y="569" type="move" name="top"/>
    </contour>
    <contour>
      <point x="107" y="-9" type="move" name="bottom"/>
    </contour>
  </outline>
</glyph>
<glyph name="m" format="1">
  <advance width="761"/>
  <unicode hex="006D"/>
  <outline>
    <contour>
      <point x="684" y="-7"/>
      <point x="695" y="4"/>
      <point x="695" y="17" type="curve" smooth="yes"/>
      <point x="695" y="236" type="line" smooth="yes"/>
      <point x="695" y="365"/>
      <point x="630" y="397"/>
      <point x="556" y="397" type="curve" smooth="yes"/>
      <point x="490" y="397"/>
      <point x="421" y="353"/>
      <point x="369" y="295" type="curve" smooth="yes"/>
      <point x="361" y="286"/>
      <point x="362" y="271"/>
      <point x="371" y="263" type="curve" smooth="yes"/>
      <point x="381" y="255"/>
      <point x="396" y="256"/>
      <point x="404" y="265" type="curve" smooth="yes"/>
      <point x="447" y="311"/>
      <point x="502" y="351"/>
      <point x="556" y="351" type="curve" smooth="yes"/>
      <point x="609" y="351"/>
      <point x="647" y="320"/>
      <point x="647" y="236" type="curve" smooth="yes"/>
      <point x="647" y="17" type="line" smooth="yes"/>
      <point x="647" y="4"/>
      <point x="658" y="-7"/>
      <point x="671" y="-7" type="curve" smooth="yes"/>
    </contour>
    <contour>
      <point x="115" y="-7"/>
      <point x="126" y="4"/>
      <point x="126" y="17" type="curve" smooth="yes"/>
      <point x="126" y="374" type="line" smooth="yes"/>
      <point x="126" y="386"/>
      <point x="115" y="397"/>
      <point x="102" y="397" type="curve" smooth="yes"/>
      <point x="89" y="397"/>
      <point x="78" y="386"/>
      <point x="78" y="374" type="curve" smooth="yes"/>
      <point x="78" y="17" type="line" smooth="yes"/>
      <point x="78" y="4"/>
      <point x="89" y="-7"/>
      <point x="102" y="-7" type="curve" smooth="yes"/>
    </contour>
    <contour>
      <point x="400" y="-7"/>
      <point x="411" y="4"/>
      <point x="411" y="17" type="curve" smooth="yes"/>
      <point x="411" y="236" type="line" smooth="yes"/>
      <point x="411" y="365"/>
      <point x="347" y="397"/>
      <point x="273" y="397" type="curve" smooth="yes"/>
      <point x="207" y="397"/>
      <point x="137" y="353"/>
      <point x="86" y="295" type="curve" smooth="yes"/>
      <point x="78" y="286"/>
      <point x="79" y="271"/>
      <point x="88" y="263" type="curve" smooth="yes"/>
      <point x="98" y="255"/>
      <point x="113" y="256"/>
      <point x="121" y="265" type="curve" smooth="yes"/>
      <point x="163" y="311"/>
      <point x="219" y="351"/>
      <point x="273" y="351" type="curve" smooth="yes"/>
      <point x="326" y="351"/>
      <point x="363" y="320"/>
      <point x="363" y="236" type="curve" smooth="yes"/>
      <point x="363" y="17" type="line" smooth="yes"/>
      <point x="363" y="4"/>
      <point x="374" y="-7"/>
      <point x="387" y="-7" type="curve" smooth="yes"/>
    </contour>
  </outline>
</glyph>
<glyph name="n" format="1">
  <advance width="493"/>
  <unicode hex="006E"/>
  <outline>
    <contour>
      <point x="416" y="-7"/>
      <point x="427" y="4"/>
      <point x="427" y="17" type="curve" smooth="yes"/>
      <point x="427" y="225" type="line" smooth="yes"/>
      <point x="427" y="357"/>
      <point x="362" y="396"/>
      <point x="285" y="396" type="curve" smooth="yes"/>
      <point x="213" y="396"/>
      <point x="144" y="354"/>
      <point x="89" y="298" type="curve" smooth="yes"/>
      <point x="80" y="289"/>
      <point x="80" y="274"/>
      <point x="89" y="266" type="curve" smooth="yes"/>
      <point x="99" y="257"/>
      <point x="114" y="257"/>
      <point x="122" y="266" type="curve" smooth="yes"/>
      <point x="168" y="312"/>
      <point x="225" y="350"/>
      <point x="285" y="350" type="curve" smooth="yes"/>
      <point x="341" y="350"/>
      <point x="379" y="312"/>
      <point x="379" y="225" type="curve" smooth="yes"/>
      <point x="379" y="17" type="line" smooth="yes"/>
      <point x="379" y="4"/>
      <point x="390" y="-7"/>
      <point x="403" y="-7" type="curve" smooth="yes"/>
    </contour>
    <contour>
      <point x="115" y="-7"/>
      <point x="126" y="4"/>
      <point x="126" y="17" type="curve" smooth="yes"/>
      <point x="126" y="373" type="line" smooth="yes"/>
      <point x="126" y="386"/>
      <point x="115" y="396"/>
      <point x="102" y="396" type="curve" smooth="yes"/>
      <point x="89" y="396"/>
      <point x="78" y="386"/>
      <point x="78" y="373" type="curve" smooth="yes"/>
      <point x="78" y="17" type="line" smooth="yes"/>
      <point x="78" y="4"/>
      <point x="89" y="-7"/>
      <point x="102" y="-7" type="curve" smooth="yes"/>
    </contour>
    <contour>
      <point x="256" y="404" type="move" name="top"/>
    </contour>
    <contour>
      <point x="241" y="31" type="move" name="bottom"/>
    </contour>
  </outline>
</glyph>
<glyph name="o" format="1">
  <advance width="511"/>
  <unicode hex="006F"/>
  <outline>
    <contour>
      <point x="382" y="-11"/>
      <point x="462" y="77"/>
      <point x="462" y="190" type="curve" smooth="yes"/>
      <point x="462" y="306"/>
      <point x="382" y="400"/>
      <point x="255" y="400" type="curve" smooth="yes"/>
      <point x="128" y="400"/>
      <point x="49" y="306"/>
      <point x="49" y="192" type="curve" smooth="yes"/>
      <point x="49" y="78"/>
      <point x="130" y="-11"/>
      <point x="255" y="-11" type="curve" smooth="yes"/>
    </contour>
    <contour>
      <point x="158" y="35"/>
      <point x="97" y="104"/>
      <point x="97" y="192" type="curve" smooth="yes"/>
      <point x="97" y="280"/>
      <point x="156" y="354"/>
      <point x="255" y="354" type="curve" smooth="yes"/>
      <point x="354" y="354"/>
      <point x="414" y="280"/>
      <point x="414" y="190" type="curve" smooth="yes"/>
      <point x="414" y="103"/>
      <point x="352" y="35"/>
      <point x="255" y="35" type="curve" smooth="yes"/>
    </contour>
    <contour>
      <point x="255" y="401" type="move" name="top"/>
    </contour>
    <contour>
      <point x="255" y="-9" type="move" name="bottom"/>
    </contour>
  </outline>
</glyph>
<glyph name="q" format="1">
  <advance width="511"/>
  <unicode hex="0071"/>
  <outline>
    <contour>
      <point x="303" y="-2"/>
      <point x="376" y="37"/>
      <point x="430" y="122" type="curve" smooth="yes"/>
      <point x="437" y="133"/>
      <point x="433" y="147"/>
      <point x="422" y="154" type="curve" smooth="yes"/>
      <point x="411" y="161"/>
      <point x="396" y="158"/>
      <point x="390" y="147" type="curve" smooth="yes"/>
      <point x="347" y="79"/>
      <point x="289" y="44"/>
      <point x="229" y="44" type="curve" smooth="yes"/>
      <point x="160" y="44"/>
      <point x="98" y="97"/>
      <point x="98" y="184" type="curve" smooth="yes"/>
      <point x="98" y="290"/>
      <point x="172" y="354"/>
      <point x="260" y="354" type="curve" smooth="yes"/>
      <point x="315" y="354"/>
      <point x="358" y="341"/>
      <point x="398" y="315" type="curve" smooth="yes"/>
      <point x="408" y="308"/>
      <point x="424" y="312"/>
      <point x="431" y="322" type="curve" smooth="yes"/>
      <point x="437" y="332"/>
      <point x="434" y="347"/>
      <point x="424" y="354" type="curve" smooth="yes"/>
      <point x="377" y="384"/>
      <point x="325" y="400"/>
      <point x="260" y="400" type="curve" smooth="yes"/>
      <point x="148" y="400"/>
      <point x="50" y="320"/>
      <point x="50" y="184" type="curve" smooth="yes"/>
      <point x="50" y="66"/>
      <point x="137" y="-2"/>
      <point x="229" y="-2" type="curve" smooth="yes"/>
    </contour>
    <contour>
      <point x="424" y="-200"/>
      <point x="435" y="-190"/>
      <point x="435" y="-177" type="curve" smooth="yes"/>
      <point x="435" y="377" type="line" smooth="yes"/>
      <point x="435" y="390"/>
      <point x="424" y="400"/>
      <point x="411" y="400" type="curve" smooth="yes"/>
      <point x="398" y="400"/>
      <point x="387" y="390"/>
      <point x="387" y="377" type="curve" smooth="yes"/>
      <point x="387" y="-177" type="line" smooth="yes"/>
      <point x="387" y="-190"/>
      <point x="398" y="-200"/>
      <point x="411" y="-200" type="curve" smooth="yes"/>
    </contour>
  </outline>
</glyph>
<glyph name="s" format="1">
  <advance width="450"/>
  <unicode hex="0073"/>
  <outline>
    <contour>
      <point x="363" y="-11"/>
      <point x="400" y="50"/>
      <point x="400" y="107" type="curve" smooth="yes"/>
      <point x="400" y="161"/>
      <point x="365" y="215"/>
      <point x="263" y="225" type="curve" smooth="yes"/>
      <point x="221" y="230" type="line" smooth="yes"/>
      <point x="153" y="236"/>
      <point x="117" y="257"/>
      <point x="117" y="289" type="curve" smooth="yes"/>
      <point x="117" y="325"/>
      <point x="155" y="353"/>
      <point x="227" y="353" type="curve" smooth="yes"/>
      <point x="268" y="353"/>
      <point x="306" y="346"/>
      <point x="336" y="339" type="curve" smooth="yes"/>
      <point x="348" y="335"/>
      <point x="362" y="343"/>
      <point x="364" y="355" type="curve" smooth="yes"/>
      <point x="367" y="366"/>
      <point x="359" y="380"/>
      <point x="348" y="383" type="curve" smooth="yes"/>
      <point x="315" y="391"/>
      <point x="273" y="399"/>
      <point x="227" y="399" type="curve" smooth="yes"/>
      <point x="104" y="399"/>
      <point x="69" y="339"/>
      <point x="69" y="289" type="curve" smooth="yes"/>
      <point x="69" y="243"/>
      <point x="95" y="195"/>
      <point x="216" y="184" type="curve" smooth="yes"/>
      <point x="258" y="179" type="line" smooth="yes"/>
      <point x="320" y="173"/>
      <point x="352" y="144"/>
      <point x="352" y="107" type="curve" smooth="yes"/>
      <point x="352" y="66"/>
      <point x="312" y="35"/>
      <point x="234" y="35" type="curve" smooth="yes"/>
      <point x="187" y="35"/>
      <point x="139" y="44"/>
      <point x="96" y="63" type="curve" smooth="yes"/>
      <point x="84" y="68"/>
      <point x="70" y="63"/>
      <point x="66" y="51" type="curve" smooth="yes"/>
      <point x="60" y="40"/>
      <point x="66" y="26"/>
      <point x="77" y="21" type="curve" smooth="yes"/>
      <point x="127" y="0"/>
      <point x="180" y="-11"/>
      <point x="234" y="-11" type="curve" smooth="yes"/>
    </contour>
    <contour>
      <point x="226" y="398" type="move" name="top"/>
    </contour>
    <contour>
      <point x="230" y="-9" type="move" name="bottom"/>
    </contour>
  </outline>
</glyph>
<glyph name="t" format="1">
  <advance width="343"/>
  <unicode hex="0074"/>
  <outline>
    <contour>
      <point x="291" y="-10"/>
      <point x="302" y="1"/>
      <point x="302" y="13" type="curve" smooth="yes"/>
      <point x="302" y="25"/>
      <point x="292" y="36"/>
      <point x="279" y="36" type="curve" smooth="yes"/>
      <point x="194" y="38"/>
      <point x="151" y="70"/>
      <point x="151" y="135" type="curve" smooth="yes"/>
      <point x="151" y="501" type="line" smooth="yes"/>
      <point x="151" y="514"/>
      <point x="140" y="524"/>
      <point x="127" y="524" type="curve" smooth="yes"/>
      <point x="114" y="524"/>
      <point x="103" y="514"/>
      <point x="103" y="501" type="curve" smooth="yes"/>
      <point x="103" y="135" type="line" smooth="yes"/>
      <point x="103" y="46"/>
      <point x="152" y="-7"/>
      <point x="279" y="-10" type="curve" smooth="yes"/>
    </contour>
    <contour>
      <point x="293" y="347" type="line" smooth="yes"/>
      <point x="306" y="347"/>
      <point x="316" y="357"/>
      <point x="316" y="369" type="curve" smooth="yes"/>
      <point x="316" y="382"/>
      <point x="306" y="393"/>
      <point x="293" y="393" type="curve" smooth="yes"/>
      <point x="34" y="393" type="line" smooth="yes"/>
      <point x="21" y="393"/>
      <point x="10" y="382"/>
      <point x="10" y="369" type="curve" smooth="yes"/>
      <point x="10" y="357"/>
      <point x="21" y="347"/>
      <point x="34" y="347" type="curve" smooth="yes"/>
    </contour>
    <contour>
      <point x="170" y="-4" type="move" name="bottom"/>
    </contour>
  </outline>
</glyph>
<glyph name="v" format="1">
  <advance width="445"/>
  <unicode hex="0076"/>
  <outline>
    <contour>
      <point x="230" y="-11" type="line" smooth="yes"/>
      <point x="237" y="-11"/>
      <point x="246" y="-6"/>
      <point x="250" y="1" type="curve" smooth="yes"/>
      <point x="305" y="92"/>
      <point x="373" y="249"/>
      <point x="416" y="365" type="curve" smooth="yes"/>
      <point x="420" y="377"/>
      <point x="414" y="391"/>
      <point x="402" y="395" type="curve" smooth="yes"/>
      <point x="390" y="399"/>
      <point x="376" y="393"/>
      <point x="371" y="382" type="curve" smooth="yes"/>
      <point x="330" y="268"/>
      <point x="262" y="113"/>
      <point x="209" y="24" type="curve"/>
      <point x="230" y="35" type="line"/>
      <point x="226" y="35" type="line"/>
      <point x="246" y="24" type="line"/>
      <point x="192" y="114"/>
      <point x="135" y="224"/>
      <point x="74" y="382" type="curve" smooth="yes"/>
      <point x="70" y="393"/>
      <point x="55" y="400"/>
      <point x="43" y="395" type="curve" smooth="yes"/>
      <point x="32" y="391"/>
      <point x="25" y="377"/>
      <point x="29" y="365" type="curve" smooth="yes"/>
      <point x="92" y="203"/>
      <point x="149" y="91"/>
      <point x="205" y="1" type="curve" smooth="yes"/>
      <point x="209" y="-6"/>
      <point x="218" y="-11"/>
      <point x="226" y="-11" type="curve" smooth="yes"/>
    </contour>
  </outline>
</glyph>
<glyph name="w" format="1">
  <advance width="705"/>
  <unicode hex="0077"/>
  <outline>
    <contour>
      <point x="512" y="-11" type="line" smooth="yes"/>
      <point x="520" y="-11"/>
      <point x="530" y="-5"/>
      <point x="533" y="3" type="curve" smooth="yes"/>
      <point x="575" y="94"/>
      <point x="632" y="239"/>
      <point x="667" y="365" type="curve" smooth="yes"/>
      <point x="670" y="377"/>
      <point x="662" y="390"/>
      <point x="650" y="393" type="curve" smooth="yes"/>
      <point x="638" y="397"/>
      <point x="624" y="390"/>
      <point x="621" y="377" type="curve" smooth="yes"/>
      <point x="587" y="254"/>
      <point x="530" y="111"/>
      <point x="490" y="22" type="curve"/>
      <point x="512" y="35" type="line"/>
      <point x="510" y="35" type="line"/>
      <point x="531" y="23" type="line"/>
      <point x="483" y="113"/>
      <point x="427" y="232"/>
      <point x="379" y="370" type="curve" smooth="yes"/>
      <point x="375" y="381"/>
      <point x="361" y="387"/>
      <point x="349" y="383" type="curve" smooth="yes"/>
      <point x="337" y="379"/>
      <point x="330" y="366"/>
      <point x="334" y="353" type="curve" smooth="yes"/>
      <point x="384" y="213"/>
      <point x="440" y="92"/>
      <point x="488" y="2" type="curve" smooth="yes"/>
      <point x="492" y="-5"/>
      <point x="501" y="-11"/>
      <point x="510" y="-11" type="curve" smooth="yes"/>
    </contour>
    <contour>
      <point x="197" y="-10" type="line" smooth="yes"/>
      <point x="205" y="-10"/>
      <point x="215" y="-4"/>
      <point x="218" y="3" type="curve" smooth="yes"/>
      <point x="263" y="94"/>
      <point x="336" y="240"/>
      <point x="371" y="355" type="curve" smooth="yes"/>
      <point x="375" y="366"/>
      <point x="368" y="380"/>
      <point x="356" y="383" type="curve" smooth="yes"/>
      <point x="344" y="387"/>
      <point x="329" y="380"/>
      <point x="326" y="369" type="curve" smooth="yes"/>
      <point x="291" y="257"/>
      <point x="220" y="113"/>
      <point x="175" y="24" type="curve"/>
      <point x="197" y="36" type="line"/>
      <point x="195" y="36" type="line"/>
      <point x="216" y="24" type="line"/>
      <point x="173" y="113"/>
      <point x="124" y="242"/>
      <point x="85" y="378" type="curve" smooth="yes"/>
      <point x="82" y="391"/>
      <point x="69" y="398"/>
      <point x="57" y="394" type="curve" smooth="yes"/>
      <point x="44" y="391"/>
      <point x="36" y="378"/>
      <point x="40" y="366" type="curve" smooth="yes"/>
      <point x="79" y="225"/>
      <point x="130" y="94"/>
      <point x="173" y="3" type="curve" smooth="yes"/>
      <point x="177" y="-4"/>
      <point x="186" y="-10"/>
      <point x="195" y="-10" type="curve" smooth="yes"/>
    </contour>
    <contour>
      <point x="351" y="385" type="move" name="top"/>
    </contour>
  </outline>
</glyph>
<glyph name="y" format="1">
  <advance width="444"/>
  <unicode hex="0079"/>
  <outline>
    <contour>
      <point x="133" y="-141"/>
      <point x="196" y="-93"/>
      <point x="257" y="11" type="curve" smooth="yes"/>
      <point x="314" y="105"/>
      <point x="378" y="251"/>
      <point x="413" y="370" type="curve" smooth="yes"/>
      <point x="417" y="383"/>
      <point x="409" y="396"/>
      <point x="398" y="399" type="curve" smooth="yes"/>
      <point x="385" y="403"/>
      <point x="371" y="396"/>
      <point x="368" y="384" type="curve" smooth="yes"/>
      <point x="333" y="268"/>
      <point x="271" y="126"/>
      <point x="216" y="34" type="curve" smooth="yes"/>
      <point x="160" y="-61"/>
      <point x="103" y="-104"/>
      <point x="40" y="-140" type="curve" smooth="yes"/>
      <point x="29" y="-146"/>
      <point x="25" y="-161"/>
      <point x="32" y="-172" type="curve" smooth="yes"/>
      <point x="38" y="-182"/>
      <point x="53" y="-187"/>
      <point x="63" y="-180" type="curve" smooth="yes"/>
    </contour>
    <contour>
      <point x="257" y="10"/>
      <point x="261" y="25"/>
      <point x="254" y="35" type="curve" smooth="yes"/>
      <point x="200" y="116"/>
      <point x="132" y="229"/>
      <point x="76" y="387" type="curve" smooth="yes"/>
      <point x="72" y="398"/>
      <point x="58" y="404"/>
      <point x="46" y="400" type="curve" smooth="yes"/>
      <point x="34" y="396"/>
      <point x="27" y="383"/>
      <point x="31" y="370" type="curve" smooth="yes"/>
      <point x="89" y="208"/>
      <point x="159" y="93"/>
      <point x="214" y="10" type="curve" smooth="yes"/>
      <point x="221" y="-1"/>
      <point x="236" y="-4"/>
      <point x="247" y="3" type="curve" smooth="yes"/>
    </contour>
    <contour>
      <point x="219" y="376" type="move" name="top"/>
    </contour>
  </outline>
</glyph>
<glyph name="z" format="1">
  <advance width="437"/>
  <unicode hex="007A"/>
  <outline>
    <contour>
      <point x="61" y="0"/>
      <point x="76" y="1"/>
      <point x="85" y="10" type="curve" smooth="yes"/>
      <point x="383" y="358" type="line" smooth="yes"/>
      <point x="391" y="368"/>
      <point x="389" y="383"/>
      <point x="380" y="391" type="curve" smooth="yes"/>
      <point x="370" y="399"/>
      <point x="355" y="398"/>
      <point x="347" y="388" type="curve" smooth="yes"/>
      <point x="49" y="40" type="line" smooth="yes"/>
      <point x="41" y="31"/>
      <point x="42" y="16"/>
      <point x="52" y="8" type="curve" smooth="yes"/>
    </contour>
    <contour>
      <point x="377" y="-7" type="line" smooth="yes"/>
      <point x="390" y="-7"/>
      <point x="400" y="4"/>
      <point x="400" y="17" type="curve" smooth="yes"/>
      <point x="400" y="29"/>
      <point x="390" y="39"/>
      <point x="377" y="39" type="curve" smooth="yes"/>
      <point x="61" y="39" type="line" smooth="yes"/>
      <point x="48" y="39"/>
      <point x="37" y="29"/>
      <point x="37" y="17" type="curve" smooth="yes"/>
      <point x="37" y="4"/>
      <point x="48" y="-7"/>
      <point x="61" y="-7" type="curve" smooth="yes"/>
    </contour>
    <contour>
      <point x="359" y="350" type="line" smooth="yes"/>
      <point x="372" y="350"/>
      <point x="382" y="361"/>
      <point x="382" y="373" type="curve" smooth="yes"/>
      <point x="382" y="386"/>
      <point x="372" y="396"/>
      <point x="359" y="396" type="curve" smooth="yes"/>
      <point x="76" y="396" type="line" smooth="yes"/>
      <point x="63" y="396"/>
      <point x="52" y="386"/>
      <point x="52" y="373" type="curve" smooth="yes"/>
      <point x="52" y="361"/>
      <point x="63" y="350"/>
      <point x="76" y="350" type="curve" smooth="yes"/>
    </contour>
    <contour>
      <point x="216" y="396" type="move" name="top"/>
    </contour>
  </outline>
</glyph>
<glyph name="braceleft" format="1">
  <advance width="404"/>
  <unicode hex="007B"/>
  <outline>
    <contour>
      <point x="312" y="-114" type="line" smooth="yes"/>
      <point x="325" y="-114"/>
      <point x="335" y="-103"/>
      <point x="335" y="-91" type="curve" smooth="yes"/>
      <point x="335" y="-78"/>
      <point x="325" y="-68"/>
      <point x="312" y="-68" type="curve" smooth="yes"/>
      <point x="291" y="-68" type="line" smooth="yes"/>
      <point x="209" y="-68"/>
      <point x="149" y="-29"/>
      <point x="149" y="21" type="curve" smooth="yes"/>
      <point x="149" y="90"/>
      <point x="219" y="125"/>
      <point x="219" y="186" type="curve" smooth="yes"/>
      <point x="219" y="231"/>
      <point x="184" y="269"/>
      <point x="91" y="283" type="curve"/>
      <point x="112" y="260" type="line"/>
      <point x="112" y="266" type="line"/>
      <point x="91" y="243" type="line"/>
      <point x="184" y="258"/>
      <point x="219" y="296"/>
      <point x="219" y="341" type="curve" smooth="yes"/>
      <point x="219" y="401"/>
      <point x="149" y="437"/>
      <point x="149" y="505" type="curve" smooth="yes"/>
      <point x="149" y="556"/>
      <point x="209" y="594"/>
      <point x="291" y="594" type="curve" smooth="yes"/>
      <point x="312" y="594" type="line" smooth="yes"/>
      <point x="325" y="594"/>
      <point x="335" y="605"/>
      <point x="335" y="617" type="curve" smooth="yes"/>
      <point x="335" y="630"/>
      <point x="325" y="640"/>
      <point x="312" y="640" type="curve" smooth="yes"/>
      <point x="291" y="640" type="line" smooth="yes"/>
      <point x="167" y="640"/>
      <point x="101" y="572"/>
      <point x="101" y="505" type="curve" smooth="yes"/>
      <point x="101" y="437"/>
      <point x="171" y="401"/>
      <point x="171" y="341" type="curve" smooth="yes"/>
      <point x="171" y="310"/>
      <point x="133" y="297"/>
      <point x="84" y="289" type="curve" smooth="yes"/>
      <point x="73" y="287"/>
      <point x="64" y="277"/>
      <point x="64" y="266" type="curve" smooth="yes"/>
      <point x="64" y="260" type="line" smooth="yes"/>
      <point x="64" y="250"/>
      <point x="73" y="240"/>
      <point x="84" y="237" type="curve" smooth="yes"/>
      <point x="133" y="230"/>
      <point x="171" y="216"/>
      <point x="171" y="186" type="curve" smooth="yes"/>
      <point x="171" y="125"/>
      <point x="101" y="90"/>
      <point x="101" y="21" type="curve" smooth="yes"/>
      <point x="101" y="-45"/>
      <point x="167" y="-114"/>
      <point x="291" y="-114" type="curve" smooth="yes"/>
    </contour>
  </outline>
</glyph>
<glyph name="exclamdown" format="1">
  <advance width="314"/>
  <unicode hex="00A1"/>
  <outline>
    <contour>
      <point x="176" y="-21"/>
      <point x="187" y="-10"/>
      <point x="187" y="2" type="curve" smooth="yes"/>
      <point x="180" y="291" type="line" smooth="yes"/>
      <point x="180" y="304"/>
      <point x="168" y="314"/>
      <point x="156" y="314" type="curve" smooth="yes"/>
      <point x="143" y="314"/>
      <point x="132" y="303"/>
      <point x="132" y="291" type="curve" smooth="yes"/>
      <point x="139" y="1" type="line" smooth="yes"/>
      <point x="139" y="-11"/>
      <point x="151" y="-22"/>
      <point x="163" y="-22" type="curve" smooth="yes"/>
    </contour>
    <contour>
      <point x="182" y="465"/>
      <point x="202" y="487"/>
      <point x="202" y="518" type="curve" smooth="yes"/>
      <point x="202" y="556"/>
      <point x="183" y="571"/>
      <point x="157" y="571" type="curve" smooth="yes"/>
      <point x="135" y="571"/>
      <point x="111" y="555"/>
      <point x="111" y="518" type="curve" smooth="yes"/>
      <point x="111" y="487"/>
      <point x="128" y="465"/>
      <point x="156" y="465" type="curve" smooth="yes"/>
    </contour>
  </outline>
</glyph>
<glyph name="sterling" format="1">
  <advance width="450"/>
  <unicode hex="00A3"/>
  <outline>
    <contour>
      <point x="151" y="78" type="line" smooth="yes"/>
      <point x="188" y="110"/>
      <point x="213" y="152"/>
      <point x="213" y="187" type="curve" smooth="yes"/>
      <point x="213" y="218"/>
      <point x="195" y="259"/>
      <point x="165" y="292" type="curve" smooth="yes"/>
      <point x="130" y="334"/>
      <point x="107" y="365"/>
      <point x="107" y="410" type="curve" smooth="yes"/>
      <point x="107" y="459"/>
      <point x="144" y="504"/>
      <point x="211" y="504" type="curve" smooth="yes"/>
      <point x="254" y="504"/>
      <point x="293" y="491"/>
      <point x="327" y="471" type="curve" smooth="yes"/>
      <point x="338" y="464"/>
      <point x="353" y="468"/>
      <point x="360" y="478" type="curve" smooth="yes"/>
      <point x="366" y="489"/>
      <point x="363" y="503"/>
      <point x="352" y="510" type="curve" smooth="yes"/>
      <point x="312" y="535"/>
      <point x="263" y="550"/>
      <point x="211" y="550" type="curve" smooth="yes"/>
      <point x="111" y="550"/>
      <point x="59" y="480"/>
      <point x="59" y="410" type="curve" smooth="yes"/>
      <point x="59" y="354"/>
      <point x="85" y="315"/>
      <point x="130" y="262" type="curve" smooth="yes"/>
      <point x="150" y="238"/>
      <point x="165" y="209"/>
      <point x="165" y="187" type="curve" smooth="yes"/>
      <point x="165" y="163"/>
      <point x="145" y="135"/>
      <point x="120" y="113" type="curve" smooth="yes"/>
      <point x="39" y="39" type="line" smooth="yes"/>
      <point x="30" y="31"/>
      <point x="29" y="16"/>
      <point x="37" y="7" type="curve" smooth="yes"/>
      <point x="46" y="-2"/>
      <point x="62" y="-3"/>
      <point x="70" y="5" type="curve" smooth="yes"/>
    </contour>
    <contour>
      <point x="375" y="-10" type="line" smooth="yes"/>
      <point x="388" y="-10"/>
      <point x="398" y="1"/>
      <point x="398" y="14" type="curve" smooth="yes"/>
      <point x="398" y="26"/>
      <point x="388" y="36"/>
      <point x="375" y="36" type="curve" smooth="yes"/>
      <point x="45" y="36" type="line" smooth="yes"/>
      <point x="32" y="36"/>
      <point x="21" y="26"/>
      <point x="21" y="14" type="curve" smooth="yes"/>
      <point x="21" y="1"/>
      <point x="32" y="-10"/>
      <point x="45" y="-10" type="curve" smooth="yes"/>
    </contour>
    <contour>
      <point x="365" y="224" type="line" smooth="yes"/>
      <point x="378" y="224"/>
      <point x="388" y="235"/>
      <point x="388" y="248" type="curve" smooth="yes"/>
      <point x="388" y="260"/>
      <point x="378" y="271"/>
      <point x="365" y="271" type="curve" smooth="yes"/>
      <point x="51" y="271" type="line" smooth="yes"/>
      <point x="38" y="271"/>
      <point x="27" y="260"/>
      <point x="27" y="248" type="curve" smooth="yes"/>
      <point x="27" y="235"/>
      <point x="38" y="224"/>
      <point x="51" y="224" type="curve" smooth="yes"/>
    </contour>
  </outline>
</glyph>
<glyph name="yen" format="1">
  <advance width="559"/>
  <unicode hex="00A5"/>
  <outline>
    <contour>
      <point x="294" y="255"/>
      <point x="320" y="272"/>
      <point x="333" y="289" type="curve" smooth="yes"/>
      <point x="381" y="337"/>
      <point x="465" y="449"/>
      <point x="506" y="513" type="curve" smooth="yes"/>
      <point x="509" y="522"/>
      <point x="503" y="533"/>
      <point x="494" y="535" type="curve" smooth="yes"/>
      <point x="479" y="532"/>
      <point x="455" y="514"/>
      <point x="442" y="500" type="curve" smooth="yes"/>
      <point x="396" y="436"/>
      <point x="314" y="327"/>
      <point x="271" y="279" type="curve" smooth="yes"/>
      <point x="267" y="271"/>
      <point x="271" y="259"/>
      <point x="280" y="255" type="curve" smooth="yes"/>
    </contour>
    <contour>
      <point x="470" y="97" type="line" smooth="yes"/>
      <point x="483" y="97"/>
      <point x="493" y="107"/>
      <point x="493" y="120" type="curve" smooth="yes"/>
      <point x="493" y="132"/>
      <point x="483" y="142"/>
      <point x="470" y="142" type="curve" smooth="yes"/>
      <point x="105" y="142" type="line" smooth="yes"/>
      <point x="92" y="142"/>
      <point x="81" y="132"/>
      <point x="81" y="120" type="curve" smooth="yes"/>
      <point x="81" y="107"/>
      <point x="92" y="97"/>
      <point x="105" y="97" type="curve" smooth="yes"/>
    </contour>
    <contour>
      <point x="301" y="-10"/>
      <point x="312" y="1"/>
      <point x="312" y="14" type="curve" smooth="yes"/>
      <point x="312" y="265" type="line" smooth="yes"/>
      <point x="312" y="278"/>
      <point x="301" y="288"/>
      <point x="288" y="288" type="curve" smooth="yes"/>
      <point x="275" y="288"/>
      <point x="264" y="278"/>
      <point x="264" y="265" type="curve" smooth="yes"/>
      <point x="264" y="14" type="line" smooth="yes"/>
      <point x="264" y="1"/>
      <point x="275" y="-10"/>
      <point x="288" y="-10" type="curve" smooth="yes"/>
    </contour>
    <contour>
      <point x="470" y="244" type="line" smooth="yes"/>
      <point x="483" y="244"/>
      <point x="493" y="255"/>
      <point x="493" y="267" type="curve" smooth="yes"/>
      <point x="493" y="280"/>
      <point x="483" y="290"/>
      <point x="470" y="290" type="curve" smooth="yes"/>
      <point x="105" y="290" type="line" smooth="yes"/>
      <point x="92" y="290"/>
      <point x="81" y="280"/>
      <point x="81" y="267" type="curve" smooth="yes"/>
      <point x="81" y="255"/>
      <point x="92" y="244"/>
      <point x="105" y="244" type="curve" smooth="yes"/>
    </contour>
    <contour>
      <point x="278" y="257"/>
      <point x="293" y="257"/>
      <point x="301" y="266" type="curve" smooth="yes"/>
      <point x="310" y="275"/>
      <point x="310" y="290"/>
      <point x="301" y="299" type="curve" smooth="yes"/>
      <point x="261" y="337"/>
      <point x="154" y="460"/>
      <point x="103" y="531" type="curve" smooth="yes"/>
      <point x="96" y="542"/>
      <point x="80" y="545"/>
      <point x="71" y="537" type="curve" smooth="yes"/>
      <point x="60" y="530"/>
      <point x="57" y="515"/>
      <point x="65" y="505" type="curve" smooth="yes"/>
      <point x="116" y="432"/>
      <point x="228" y="305"/>
      <point x="268" y="266" type="curve" smooth="yes"/>
    </contour>
  </outline>
</glyph>
<glyph name="brokenbar" format="1">
  <advance width="286"/>
  <unicode hex="00A6"/>
  <outline>
    <contour>
      <point x="157" y="289"/>
      <point x="168" y="299"/>
      <point x="168" y="312" type="curve" smooth="yes"/>
      <point x="168" y="548" type="line" smooth="yes"/>
      <point x="168" y="561"/>
      <point x="157" y="571"/>
      <point x="144" y="571" type="curve" smooth="yes"/>
      <point x="131" y="571"/>
      <point x="120" y="561"/>
      <point x="120" y="548" type="curve" smooth="yes"/>
      <point x="120" y="312" type="line" smooth="yes"/>
      <point x="120" y="299"/>
      <point x="131" y="289"/>
      <point x="144" y="289" type="curve" smooth="yes"/>
    </contour>
    <contour>
      <point x="157" y="-113"/>
      <point x="168" y="-102"/>
      <point x="168" y="-90" type="curve" smooth="yes"/>
      <point x="168" y="146" type="line" smooth="yes"/>
      <point x="168" y="159"/>
      <point x="157" y="169"/>
      <point x="144" y="169" type="curve" smooth="yes"/>
      <point x="131" y="169"/>
      <point x="120" y="159"/>
      <point x="120" y="146" type="curve" smooth="yes"/>
      <point x="120" y="-90" type="line" smooth="yes"/>
      <point x="120" y="-102"/>
      <point x="131" y="-113"/>
      <point x="144" y="-113" type="curve" smooth="yes"/>
    </contour>
  </outline>
</glyph>
<glyph name="copyright" format="1">
  <advance width="657"/>
  <unicode hex="00A9"/>
  <outline>
    <contour>
      <point x="512" y="-19"/>
      <point x="617" y="106"/>
      <point x="617" y="265" type="curve" smooth="yes"/>
      <point x="617" y="433"/>
      <point x="490" y="551"/>
      <point x="331" y="551" type="curve" smooth="yes"/>
      <point x="157" y="551"/>
      <point x="40" y="433"/>
      <point x="40" y="262" type="curve" smooth="yes"/>
      <point x="40" y="106"/>
      <point x="160" y="-19"/>
      <point x="331" y="-19" type="curve" smooth="yes"/>
    </contour>
    <contour>
      <point x="372" y="107"/>
      <point x="401" y="115"/>
      <point x="424" y="126" type="curve" smooth="yes"/>
      <point x="436" y="132"/>
      <point x="440" y="146"/>
      <point x="435" y="157" type="curve" smooth="yes"/>
      <point x="429" y="168"/>
      <point x="415" y="173"/>
      <point x="403" y="167" type="curve" smooth="yes"/>
      <point x="387" y="158"/>
      <point x="365" y="153"/>
      <point x="341" y="153" type="curve" smooth="yes"/>
      <point x="269" y="153"/>
      <point x="225" y="201"/>
      <point x="225" y="264" type="curve" smooth="yes"/>
      <point x="225" y="332"/>
      <point x="277" y="379"/>
      <point x="338" y="379" type="curve" smooth="yes"/>
      <point x="362" y="379"/>
      <point x="385" y="372"/>
      <point x="400" y="365" type="curve" smooth="yes"/>
      <point x="412" y="359"/>
      <point x="426" y="364"/>
      <point x="432" y="375" type="curve" smooth="yes"/>
      <point x="437" y="386"/>
      <point x="433" y="400"/>
      <point x="421" y="406" type="curve" smooth="yes"/>
      <point x="401" y="416"/>
      <point x="371" y="425"/>
      <point x="338" y="425" type="curve" smooth="yes"/>
      <point x="254" y="425"/>
      <point x="178" y="359"/>
      <point x="178" y="264" type="curve" smooth="yes"/>
      <point x="178" y="175"/>
      <point x="239" y="107"/>
      <point x="341" y="107" type="curve" smooth="yes"/>
    </contour>
    <contour>
      <point x="188" y="26"/>
      <point x="87" y="131"/>
      <point x="87" y="262" type="curve" smooth="yes"/>
      <point x="87" y="405"/>
      <point x="185" y="505"/>
      <point x="331" y="505" type="curve" smooth="yes"/>
      <point x="464" y="505"/>
      <point x="570" y="405"/>
      <point x="570" y="265" type="curve" smooth="yes"/>
      <point x="570" y="131"/>
      <point x="482" y="26"/>
      <point x="331" y="26" type="curve" smooth="yes"/>
    </contour>
  </outline>
</glyph>
<glyph name="ordfeminine" format="1">
  <advance width="437"/>
  <unicode hex="00AA"/>
  <outline>
    <contour>
      <point x="351" y="266"/>
      <point x="352" y="281"/>
      <point x="344" y="290" type="curve" smooth="yes"/>
      <point x="331" y="306"/>
      <point x="325" y="325"/>
      <point x="325" y="355" type="curve" smooth="yes"/>
      <point x="325" y="417" type="line" smooth="yes"/>
      <point x="325" y="488"/>
      <point x="288" y="537"/>
      <point x="205" y="537" type="curve" smooth="yes"/>
      <point x="178" y="537"/>
      <point x="149" y="530"/>
      <point x="132" y="524" type="curve" smooth="yes"/>
      <point x="120" y="521"/>
      <point x="113" y="507"/>
      <point x="117" y="495" type="curve" smooth="yes"/>
      <point x="120" y="484"/>
      <point x="134" y="477"/>
      <point x="146" y="481" type="curve" smooth="yes"/>
      <point x="160" y="485"/>
      <point x="183" y="491"/>
      <point x="205" y="491" type="curve" smooth="yes"/>
      <point x="256" y="491"/>
      <point x="278" y="460"/>
      <point x="278" y="417" type="curve" smooth="yes"/>
      <point x="278" y="355" type="line" smooth="yes"/>
      <point x="278" y="309"/>
      <point x="289" y="283"/>
      <point x="309" y="260" type="curve" smooth="yes"/>
      <point x="317" y="251"/>
      <point x="333" y="250"/>
      <point x="342" y="258" type="curve" smooth="yes"/>
    </contour>
    <contour>
      <point x="360" y="133" type="line" smooth="yes"/>
      <point x="372" y="133"/>
      <point x="383" y="144"/>
      <point x="383" y="156" type="curve" smooth="yes"/>
      <point x="383" y="169"/>
      <point x="372" y="179"/>
      <point x="360" y="179" type="curve" smooth="yes"/>
      <point x="89" y="179" type="line" smooth="yes"/>
      <point x="76" y="179"/>
      <point x="65" y="169"/>
      <point x="65" y="156" type="curve" smooth="yes"/>
      <point x="65" y="144"/>
      <point x="76" y="133"/>
      <point x="89" y="133" type="curve" smooth="yes"/>
    </contour>
    <contour>
      <point x="236" y="252"/>
      <point x="280" y="275"/>
      <point x="320" y="328" type="curve" smooth="yes"/>
      <point x="327" y="338"/>
      <point x="326" y="353"/>
      <point x="316" y="360" type="curve" smooth="yes"/>
      <point x="305" y="367"/>
      <point x="291" y="366"/>
      <point x="284" y="355" type="curve" smooth="yes"/>
      <point x="253" y="316"/>
      <point x="220" y="298"/>
      <point x="174" y="298" type="curve" smooth="yes"/>
      <point x="144" y="298"/>
      <point x="129" y="316"/>
      <point x="129" y="332" type="curve" smooth="yes"/>
      <point x="129" y="344"/>
      <point x="132" y="354"/>
      <point x="141" y="363" type="curve" smooth="yes"/>
      <point x="160" y="379"/>
      <point x="189" y="391"/>
      <point x="234" y="391" type="curve" smooth="yes"/>
      <point x="255" y="391"/>
      <point x="275" y="389"/>
      <point x="299" y="388" type="curve" smooth="yes"/>
      <point x="311" y="387"/>
      <point x="323" y="396"/>
      <point x="323" y="409" type="curve" smooth="yes"/>
      <point x="323" y="421"/>
      <point x="314" y="432"/>
      <point x="301" y="432" type="curve" smooth="yes"/>
      <point x="277" y="433"/>
      <point x="255" y="435"/>
      <point x="234" y="435" type="curve" smooth="yes"/>
      <point x="173" y="435"/>
      <point x="136" y="419"/>
      <point x="110" y="396" type="curve" smooth="yes"/>
      <point x="88" y="376"/>
      <point x="82" y="357"/>
      <point x="82" y="332" type="curve" smooth="yes"/>
      <point x="82" y="299"/>
      <point x="105" y="252"/>
      <point x="174" y="252" type="curve" smooth="yes"/>
    </contour>
  </outline>
</glyph>
<glyph name="guillemotleft" format="1">
  <advance width="431"/>
  <unicode hex="00AB"/>
  <outline>
    <contour>
      <point x="380" y="22"/>
      <point x="383" y="37"/>
      <point x="375" y="47" type="curve" smooth="yes"/>
      <point x="258" y="204" type="line" smooth="yes"/>
      <point x="251" y="214"/>
      <point x="235" y="216"/>
      <point x="225" y="208" type="curve" smooth="yes"/>
      <point x="214" y="201"/>
      <point x="212" y="186"/>
      <point x="220" y="176" type="curve" smooth="yes"/>
      <point x="337" y="19" type="line" smooth="yes"/>
      <point x="344" y="9"/>
      <point x="359" y="7"/>
      <point x="370" y="15" type="curve" smooth="yes"/>
    </contour>
    <contour>
      <point x="201" y="22"/>
      <point x="204" y="37"/>
      <point x="196" y="47" type="curve" smooth="yes"/>
      <point x="80" y="204" type="line" smooth="yes"/>
      <point x="73" y="214"/>
      <point x="57" y="216"/>
      <point x="47" y="208" type="curve" smooth="yes"/>
      <point x="36" y="201"/>
      <point x="34" y="186"/>
      <point x="42" y="176" type="curve" smooth="yes"/>
      <point x="158" y="19" type="line" smooth="yes"/>
      <point x="165" y="9"/>
      <point x="180" y="7"/>
      <point x="191" y="15" type="curve" smooth="yes"/>
    </contour>
    <contour>
      <point x="57" y="169"/>
      <point x="73" y="171"/>
      <point x="80" y="181" type="curve" smooth="yes"/>
      <point x="196" y="338" type="line" smooth="yes"/>
      <point x="204" y="348"/>
      <point x="201" y="363"/>
      <point x="191" y="370" type="curve" smooth="yes"/>
      <point x="180" y="378"/>
      <point x="165" y="376"/>
      <point x="158" y="366" type="curve" smooth="yes"/>
      <point x="42" y="209" type="line" smooth="yes"/>
      <point x="34" y="199"/>
      <point x="36" y="184"/>
      <point x="47" y="176" type="curve" smooth="yes"/>
    </contour>
    <contour>
      <point x="235" y="169"/>
      <point x="251" y="171"/>
      <point x="258" y="181" type="curve" smooth="yes"/>
      <point x="375" y="338" type="line" smooth="yes"/>
      <point x="383" y="348"/>
      <point x="380" y="363"/>
      <point x="370" y="370" type="curve" smooth="yes"/>
      <point x="359" y="378"/>
      <point x="344" y="376"/>
      <point x="337" y="366" type="curve" smooth="yes"/>
      <point x="220" y="209" type="line" smooth="yes"/>
      <point x="212" y="199"/>
      <point x="214" y="184"/>
      <point x="225" y="176" type="curve" smooth="yes"/>
    </contour>
  </outline>
</glyph>
<glyph name="registered" format="1">
  <advance width="559"/>
  <unicode hex="00AE"/>
  <outline>
    <contour>
      <point x="416" y="174"/>
      <point x="514" y="271"/>
      <point x="514" y="402" type="curve" smooth="yes"/>
      <point x="514" y="532"/>
      <point x="418" y="629"/>
      <point x="277" y="629" type="curve" smooth="yes"/>
      <point x="143" y="629"/>
      <point x="51" y="538"/>
      <point x="51" y="405" type="curve" smooth="yes"/>
      <point x="51" y="281"/>
      <point x="143" y="174"/>
      <point x="284" y="174" type="curve" smooth="yes"/>
    </contour>
    <contour>
      <point x="384" y="303"/>
      <point x="385" y="318"/>
      <point x="377" y="327" type="curve" smooth="yes"/>
      <point x="327" y="383" type="line" smooth="yes"/>
      <point x="319" y="393"/>
      <point x="304" y="394"/>
      <point x="295" y="386" type="curve" smooth="yes"/>
      <point x="285" y="378"/>
      <point x="284" y="363"/>
      <point x="292" y="354" type="curve" smooth="yes"/>
      <point x="342" y="297" type="line" smooth="yes"/>
      <point x="350" y="288"/>
      <point x="366" y="287"/>
      <point x="375" y="295" type="curve" smooth="yes"/>
    </contour>
    <contour>
      <point x="171" y="220"/>
      <point x="98" y="306"/>
      <point x="98" y="405" type="curve" smooth="yes"/>
      <point x="98" y="510"/>
      <point x="171" y="584"/>
      <point x="277" y="584" type="curve" smooth="yes"/>
      <point x="390" y="584"/>
      <point x="467" y="507"/>
      <point x="467" y="402" type="curve" smooth="yes"/>
      <point x="467" y="297"/>
      <point x="390" y="220"/>
      <point x="284" y="220" type="curve" smooth="yes"/>
    </contour>
    <contour>
      <point x="234" y="289"/>
      <point x="245" y="299"/>
      <point x="245" y="312" type="curve" smooth="yes"/>
      <point x="245" y="494" type="line"/>
      <point x="222" y="472" type="line"/>
      <point x="282" y="472" type="line" smooth="yes"/>
      <point x="305" y="472"/>
      <point x="324" y="460"/>
      <point x="324" y="437" type="curve" smooth="yes"/>
      <point x="324" y="415"/>
      <point x="309" y="398"/>
      <point x="282" y="398" type="curve" smooth="yes"/>
      <point x="233" y="398" type="line" smooth="yes"/>
      <point x="220" y="398"/>
      <point x="209" y="388"/>
      <point x="209" y="375" type="curve" smooth="yes"/>
      <point x="209" y="363"/>
      <point x="220" y="353"/>
      <point x="233" y="353" type="curve" smooth="yes"/>
      <point x="282" y="353" type="line" smooth="yes"/>
      <point x="344" y="353"/>
      <point x="371" y="392"/>
      <point x="371" y="437" type="curve" smooth="yes"/>
      <point x="371" y="485"/>
      <point x="338" y="517"/>
      <point x="282" y="517" type="curve" smooth="yes"/>
      <point x="222" y="517" type="line" smooth="yes"/>
      <point x="209" y="517"/>
      <point x="198" y="507"/>
      <point x="198" y="494" type="curve" smooth="yes"/>
      <point x="198" y="312" type="line" smooth="yes"/>
      <point x="198" y="299"/>
      <point x="209" y="289"/>
      <point x="222" y="289" type="curve" smooth="yes"/>
    </contour>
  </outline>
</glyph>
<glyph name="degree" format="1">
  <advance width="433"/>
  <unicode hex="00B0"/>
  <outline>
    <contour>
      <point x="317" y="210"/>
      <point x="388" y="281"/>
      <point x="388" y="372" type="curve" smooth="yes"/>
      <point x="388" y="468"/>
      <point x="317" y="541"/>
      <point x="216" y="541" type="curve" smooth="yes"/>
      <point x="114" y="541"/>
      <point x="46" y="465"/>
      <point x="46" y="372" type="curve" smooth="yes"/>
      <point x="46" y="282"/>
      <point x="116" y="210"/>
      <point x="217" y="210" type="curve" smooth="yes"/>
    </contour>
    <contour>
      <point x="144" y="256"/>
      <point x="94" y="308"/>
      <point x="94" y="372" type="curve" smooth="yes"/>
      <point x="94" y="439"/>
      <point x="142" y="495"/>
      <point x="216" y="495" type="curve" smooth="yes"/>
      <point x="289" y="495"/>
      <point x="340" y="442"/>
      <point x="340" y="372" type="curve" smooth="yes"/>
      <point x="340" y="307"/>
      <point x="289" y="256"/>
      <point x="217" y="256" type="curve" smooth="yes"/>
    </contour>
  </outline>
</glyph>
<glyph name="uni00B3" format="1">
  <advance width="372"/>
  <unicode hex="00B3"/>
  <outline>
    <contour>
      <point x="277" y="218"/>
      <point x="312" y="264"/>
      <point x="312" y="316" type="curve" smooth="yes"/>
      <point x="312" y="370"/>
      <point x="271" y="412"/>
      <point x="192" y="412" type="curve" smooth="yes"/>
      <point x="158" y="412"/>
      <point x="133" y="406"/>
      <point x="120" y="402" type="curve" smooth="yes"/>
      <point x="107" y="399"/>
      <point x="101" y="385"/>
      <point x="105" y="373" type="curve" smooth="yes"/>
      <point x="108" y="361"/>
      <point x="122" y="355"/>
      <point x="134" y="359" type="curve" smooth="yes"/>
      <point x="145" y="363"/>
      <point x="165" y="367"/>
      <point x="192" y="367" type="curve" smooth="yes"/>
      <point x="234" y="367"/>
      <point x="265" y="349"/>
      <point x="265" y="316" type="curve" smooth="yes"/>
      <point x="265" y="283"/>
      <point x="233" y="264"/>
      <point x="184" y="264" type="curve" smooth="yes"/>
      <point x="150" y="264"/>
      <point x="120" y="270"/>
      <point x="97" y="279" type="curve" smooth="yes"/>
      <point x="85" y="283"/>
      <point x="71" y="277"/>
      <point x="67" y="265" type="curve" smooth="yes"/>
      <point x="63" y="254"/>
      <point x="69" y="240"/>
      <point x="81" y="236" type="curve" smooth="yes"/>
      <point x="108" y="227"/>
      <point x="143" y="218"/>
      <point x="184" y="218" type="curve" smooth="yes"/>
    </contour>
    <contour>
      <point x="119" y="358"/>
      <point x="134" y="359"/>
      <point x="144" y="367" type="curve" smooth="yes"/>
      <point x="290" y="491" type="line" smooth="yes"/>
      <point x="299" y="499"/>
      <point x="300" y="514"/>
      <point x="292" y="523" type="curve" smooth="yes"/>
      <point x="284" y="532"/>
      <point x="269" y="532"/>
      <point x="260" y="524" type="curve" smooth="yes"/>
      <point x="114" y="400" type="line" smooth="yes"/>
      <point x="104" y="392"/>
      <point x="103" y="377"/>
      <point x="111" y="367" type="curve" smooth="yes"/>
    </contour>
    <contour>
      <point x="280" y="490" type="line" smooth="yes"/>
      <point x="292" y="490"/>
      <point x="303" y="501"/>
      <point x="303" y="513" type="curve" smooth="yes"/>
      <point x="303" y="526"/>
      <point x="292" y="536"/>
      <point x="280" y="536" type="curve" smooth="yes"/>
      <point x="99" y="536" type="line" smooth="yes"/>
      <point x="86" y="536"/>
      <point x="75" y="526"/>
      <point x="75" y="513" type="curve" smooth="yes"/>
      <point x="75" y="501"/>
      <point x="86" y="490"/>
      <point x="99" y="490" type="curve" smooth="yes"/>
    </contour>
  </outline>
</glyph>
<glyph name="uni00B9" format="1">
  <advance width="215"/>
  <unicode hex="00B9"/>
  <outline>
    <contour>
      <point x="144" y="228"/>
      <point x="155" y="238"/>
      <point x="155" y="251" type="curve" smooth="yes"/>
      <point x="155" y="519" type="line" smooth="yes"/>
      <point x="155" y="532"/>
      <point x="144" y="542"/>
      <point x="132" y="542" type="curve" smooth="yes"/>
      <point x="119" y="542"/>
      <point x="108" y="532"/>
      <point x="108" y="519" type="curve" smooth="yes"/>
      <point x="108" y="251" type="line" smooth="yes"/>
      <point x="108" y="238"/>
      <point x="119" y="228"/>
      <point x="132" y="228" type="curve" smooth="yes"/>
    </contour>
    <contour>
      <point x="143" y="503" type="line" smooth="yes"/>
      <point x="154" y="509"/>
      <point x="158" y="523"/>
      <point x="153" y="535" type="curve" smooth="yes"/>
      <point x="146" y="545"/>
      <point x="132" y="549"/>
      <point x="120" y="544" type="curve" smooth="yes"/>
      <point x="34" y="497" type="line" smooth="yes"/>
      <point x="24" y="490"/>
      <point x="19" y="477"/>
      <point x="25" y="465" type="curve" smooth="yes"/>
      <point x="32" y="455"/>
      <point x="46" y="450"/>
      <point x="57" y="456" type="curve" smooth="yes"/>
    </contour>
  </outline>
</glyph>
<glyph name="guillemotright" format="1">
  <advance width="431"/>
  <unicode hex="00BB"/>
  <outline>
    <contour>
      <point x="72" y="7"/>
      <point x="88" y="9"/>
      <point x="95" y="19" type="curve" smooth="yes"/>
      <point x="212" y="176" type="line" smooth="yes"/>
      <point x="220" y="186"/>
      <point x="217" y="201"/>
      <point x="207" y="208" type="curve" smooth="yes"/>
      <point x="196" y="216"/>
      <point x="181" y="214"/>
      <point x="174" y="204" type="curve" smooth="yes"/>
      <point x="57" y="47" type="line" smooth="yes"/>
      <point x="49" y="37"/>
      <point x="51" y="22"/>
      <point x="62" y="15" type="curve" smooth="yes"/>
    </contour>
    <contour>
      <point x="217" y="184"/>
      <point x="220" y="199"/>
      <point x="212" y="209" type="curve" smooth="yes"/>
      <point x="95" y="366" type="line" smooth="yes"/>
      <point x="88" y="376"/>
      <point x="72" y="378"/>
      <point x="62" y="370" type="curve" smooth="yes"/>
      <point x="51" y="363"/>
      <point x="49" y="348"/>
      <point x="57" y="338" type="curve" smooth="yes"/>
      <point x="174" y="181" type="line" smooth="yes"/>
      <point x="181" y="171"/>
      <point x="196" y="169"/>
      <point x="207" y="176" type="curve" smooth="yes"/>
    </contour>
    <contour>
      <point x="251" y="7"/>
      <point x="267" y="9"/>
      <point x="274" y="19" type="curve" smooth="yes"/>
      <point x="390" y="176" type="line" smooth="yes"/>
      <point x="398" y="186"/>
      <point x="395" y="201"/>
      <point x="385" y="208" type="curve" smooth="yes"/>
      <point x="374" y="216"/>
      <point x="359" y="214"/>
      <point x="352" y="204" type="curve" smooth="yes"/>
      <point x="236" y="47" type="line" smooth="yes"/>
      <point x="228" y="37"/>
      <point x="230" y="22"/>
      <point x="241" y="15" type="curve" smooth="yes"/>
    </contour>
    <contour>
      <point x="395" y="184"/>
      <point x="398" y="199"/>
      <point x="390" y="209" type="curve" smooth="yes"/>
      <point x="274" y="366" type="line" smooth="yes"/>
      <point x="267" y="376"/>
      <point x="251" y="378"/>
      <point x="241" y="370" type="curve" smooth="yes"/>
      <point x="230" y="363"/>
      <point x="228" y="348"/>
      <point x="236" y="338" type="curve" smooth="yes"/>
      <point x="352" y="181" type="line" smooth="yes"/>
      <point x="359" y="171"/>
      <point x="374" y="169"/>
      <point x="385" y="176" type="curve" smooth="yes"/>
    </contour>
  </outline>
</glyph>
<glyph name="questiondown" format="1">
  <advance width="361"/>
  <unicode hex="00BF"/>
  <outline>
    <contour>
      <point x="246" y="1"/>
      <point x="286" y="15"/>
      <point x="326" y="40" type="curve" smooth="yes"/>
      <point x="337" y="47"/>
      <point x="340" y="61"/>
      <point x="334" y="73" type="curve" smooth="yes"/>
      <point x="327" y="83"/>
      <point x="312" y="86"/>
      <point x="301" y="80" type="curve" smooth="yes"/>
      <point x="267" y="59"/>
      <point x="235" y="47"/>
      <point x="182" y="47" type="curve" smooth="yes"/>
      <point x="116" y="47"/>
      <point x="77" y="85"/>
      <point x="77" y="130" type="curve" smooth="yes"/>
      <point x="77" y="174"/>
      <point x="113" y="204"/>
      <point x="155" y="225" type="curve" smooth="yes"/>
      <point x="222" y="260"/>
      <point x="241" y="285"/>
      <point x="244" y="347" type="curve" smooth="yes"/>
      <point x="245" y="360"/>
      <point x="234" y="371"/>
      <point x="221" y="372" type="curve" smooth="yes"/>
      <point x="208" y="373"/>
      <point x="197" y="362"/>
      <point x="196" y="350" type="curve" smooth="yes"/>
      <point x="193" y="307"/>
      <point x="180" y="290"/>
      <point x="134" y="266" type="curve" smooth="yes"/>
      <point x="73" y="236"/>
      <point x="29" y="190"/>
      <point x="29" y="130" type="curve" smooth="yes"/>
      <point x="29" y="63"/>
      <point x="79" y="1"/>
      <point x="182" y="1" type="curve" smooth="yes"/>
    </contour>
    <contour>
      <point x="243" y="461"/>
      <point x="260" y="482"/>
      <point x="260" y="513" type="curve" smooth="yes"/>
      <point x="260" y="550"/>
      <point x="235" y="566"/>
      <point x="214" y="566" type="curve" smooth="yes"/>
      <point x="187" y="566"/>
      <point x="169" y="551"/>
      <point x="169" y="513" type="curve" smooth="yes"/>
      <point x="169" y="482"/>
      <point x="188" y="461"/>
      <point x="215" y="461" type="curve" smooth="yes"/>
    </contour>
  </outline>
</glyph>
<glyph name="Eth" format="1">
  <advance width="629"/>
  <unicode hex="00D0"/>
  <outline>
    <contour>
      <point x="316" y="-10" type="line" smooth="yes"/>
      <point x="474" y="-10"/>
      <point x="578" y="111"/>
      <point x="578" y="266" type="curve" smooth="yes"/>
      <point x="578" y="429"/>
      <point x="454" y="541"/>
      <point x="316" y="541" type="curve" smooth="yes"/>
      <point x="131" y="541" type="line" smooth="yes"/>
      <point x="118" y="541"/>
      <point x="107" y="531"/>
      <point x="107" y="518" type="curve" smooth="yes"/>
      <point x="107" y="14" type="line" smooth="yes"/>
      <point x="107" y="1"/>
      <point x="118" y="-10"/>
      <point x="131" y="-10" type="curve" smooth="yes"/>
    </contour>
    <contour>
      <point x="312" y="247" type="line" smooth="yes"/>
      <point x="325" y="247"/>
      <point x="335" y="258"/>
      <point x="335" y="270" type="curve" smooth="yes"/>
      <point x="335" y="283"/>
      <point x="325" y="293"/>
      <point x="312" y="293" type="curve" smooth="yes"/>
      <point x="53" y="293" type="line" smooth="yes"/>
      <point x="40" y="293"/>
      <point x="29" y="283"/>
      <point x="29" y="270" type="curve" smooth="yes"/>
      <point x="29" y="258"/>
      <point x="40" y="247"/>
      <point x="53" y="247" type="curve" smooth="yes"/>
    </contour>
    <contour>
      <point x="155" y="518" type="line"/>
      <point x="131" y="495" type="line"/>
      <point x="316" y="495" type="line" smooth="yes"/>
      <point x="430" y="495"/>
      <point x="530" y="399"/>
      <point x="530" y="266" type="curve" smooth="yes"/>
      <point x="530" y="140"/>
      <point x="448" y="36"/>
      <point x="316" y="36" type="curve" smooth="yes"/>
      <point x="131" y="36" type="line"/>
      <point x="155" y="14" type="line"/>
    </contour>
  </outline>
</glyph>
<glyph name="multiply" format="1">
  <advance width="528"/>
  <unicode hex="00D7"/>
  <outline>
    <contour>
      <point x="94" y="91"/>
      <point x="109" y="91"/>
      <point x="118" y="100" type="curve" smooth="yes"/>
      <point x="418" y="387" type="line" smooth="yes"/>
      <point x="427" y="395"/>
      <point x="427" y="410"/>
      <point x="418" y="419" type="curve" smooth="yes"/>
      <point x="410" y="428"/>
      <point x="395" y="429"/>
      <point x="385" y="419" type="curve" smooth="yes"/>
      <point x="85" y="133" type="line" smooth="yes"/>
      <point x="76" y="125"/>
      <point x="76" y="110"/>
      <point x="85" y="100" type="curve" smooth="yes"/>
    </contour>
    <contour>
      <point x="399" y="91"/>
      <point x="414" y="91"/>
      <point x="422" y="101" type="curve" smooth="yes"/>
      <point x="431" y="110"/>
      <point x="431" y="125"/>
      <point x="422" y="133" type="curve" smooth="yes"/>
      <point x="122" y="418" type="line" smooth="yes"/>
      <point x="113" y="428"/>
      <point x="98" y="427"/>
      <point x="89" y="418" type="curve" smooth="yes"/>
      <point x="80" y="409"/>
      <point x="80" y="394"/>
      <point x="89" y="386" type="curve" smooth="yes"/>
      <point x="389" y="100" type="line" smooth="yes"/>
    </contour>
  </outline>
</glyph>
<glyph name="Thorn" format="1">
  <advance width="501"/>
  <unicode hex="00DE"/>
  <outline>
    <contour>
      <point x="259" y="96" type="line" smooth="yes"/>
      <point x="396" y="96"/>
      <point x="459" y="175"/>
      <point x="459" y="267" type="curve" smooth="yes"/>
      <point x="459" y="369"/>
      <point x="381" y="443"/>
      <point x="259" y="443" type="curve" smooth="yes"/>
      <point x="127" y="443" type="line" smooth="yes"/>
      <point x="114" y="443"/>
      <point x="103" y="433"/>
      <point x="103" y="420" type="curve" smooth="yes"/>
      <point x="103" y="407"/>
      <point x="114" y="397"/>
      <point x="127" y="397" type="curve" smooth="yes"/>
      <point x="259" y="397" type="line" smooth="yes"/>
      <point x="348" y="397"/>
      <point x="411" y="345"/>
      <point x="411" y="267" type="curve" smooth="yes"/>
      <point x="411" y="197"/>
      <point x="359" y="141"/>
      <point x="259" y="141" type="curve" smooth="yes"/>
      <point x="142" y="141" type="line" smooth="yes"/>
      <point x="129" y="141"/>
      <point x="118" y="131"/>
      <point x="118" y="119" type="curve" smooth="yes"/>
      <point x="118" y="106"/>
      <point x="129" y="96"/>
      <point x="142" y="96" type="curve" smooth="yes"/>
    </contour>
    <contour>
      <point x="128" y="-10"/>
      <point x="139" y="1"/>
      <point x="139" y="14" type="curve" smooth="yes"/>
      <point x="139" y="518" type="line" smooth="yes"/>
      <point x="139" y="531"/>
      <point x="128" y="541"/>
      <point x="115" y="541" type="curve" smooth="yes"/>
      <point x="102" y="541"/>
      <point x="91" y="531"/>
      <point x="91" y="518" type="curve" smooth="yes"/>
      <point x="91" y="14" type="line" smooth="yes"/>
      <point x="91" y="1"/>
      <point x="102" y="-10"/>
      <point x="115" y="-10" type="curve" smooth="yes"/>
    </contour>
  </outline>
</glyph>
<glyph name="eth" format="1">
  <advance width="499"/>
  <unicode hex="00F0"/>
  <outline>
    <contour>
      <point x="364" y="-15"/>
      <point x="443" y="65"/>
      <point x="443" y="210" type="curve" smooth="yes"/>
      <point x="443" y="321"/>
      <point x="393" y="433"/>
      <point x="230" y="567" type="curve" smooth="yes"/>
      <point x="220" y="575"/>
      <point x="205" y="574"/>
      <point x="197" y="565" type="curve" smooth="yes"/>
      <point x="189" y="555"/>
      <point x="190" y="541"/>
      <point x="200" y="533" type="curve" smooth="yes"/>
      <point x="346" y="411"/>
      <point x="395" y="311"/>
      <point x="395" y="210" type="curve" smooth="yes"/>
      <point x="395" y="99"/>
      <point x="338" y="32"/>
      <point x="239" y="32" type="curve" smooth="yes"/>
      <point x="149" y="32"/>
      <point x="95" y="92"/>
      <point x="95" y="166" type="curve" smooth="yes"/>
      <point x="95" y="250"/>
      <point x="157" y="306"/>
      <point x="240" y="306" type="curve" smooth="yes"/>
      <point x="302" y="306"/>
      <point x="363" y="277"/>
      <point x="391" y="250" type="curve" smooth="yes"/>
      <point x="401" y="242"/>
      <point x="416" y="242"/>
      <point x="425" y="251" type="curve" smooth="yes"/>
      <point x="433" y="260"/>
      <point x="433" y="276"/>
      <point x="424" y="285" type="curve" smooth="yes"/>
      <point x="389" y="317"/>
      <point x="316" y="352"/>
      <point x="240" y="352" type="curve" smooth="yes"/>
      <point x="129" y="352"/>
      <point x="47" y="278"/>
      <point x="47" y="166" type="curve" smooth="yes"/>
      <point x="47" y="68"/>
      <point x="118" y="-15"/>
      <point x="239" y="-15" type="curve" smooth="yes"/>
    </contour>
    <contour>
      <point x="373" y="522" type="line" smooth="yes"/>
      <point x="385" y="528"/>
      <point x="388" y="542"/>
      <point x="382" y="553" type="curve" smooth="yes"/>
      <point x="376" y="564"/>
      <point x="361" y="567"/>
      <point x="350" y="561" type="curve" smooth="yes"/>
      <point x="178" y="457" type="line" smooth="yes"/>
      <point x="167" y="452"/>
      <point x="163" y="437"/>
      <point x="170" y="426" type="curve" smooth="yes"/>
      <point x="176" y="415"/>
      <point x="191" y="412"/>
      <point x="201" y="419" type="curve" smooth="yes"/>
    </contour>
  </outline>
</glyph>
<glyph name="divide" format="1">
  <advance width="528"/>
  <unicode hex="00F7"/>
  <outline>
    <contour>
      <point x="441" y="244" type="line" smooth="yes"/>
      <point x="454" y="244"/>
      <point x="464" y="255"/>
      <point x="464" y="267" type="curve" smooth="yes"/>
      <point x="464" y="280"/>
      <point x="454" y="290"/>
      <point x="441" y="290" type="curve" smooth="yes"/>
      <point x="87" y="290" type="line" smooth="yes"/>
      <point x="74" y="290"/>
      <point x="63" y="280"/>
      <point x="63" y="267" type="curve" smooth="yes"/>
      <point x="63" y="255"/>
      <point x="74" y="244"/>
      <point x="87" y="244" type="curve" smooth="yes"/>
    </contour>
    <contour>
      <point x="292" y="61"/>
      <point x="308" y="76"/>
      <point x="308" y="109" type="curve" smooth="yes"/>
      <point x="308" y="138"/>
      <point x="290" y="157"/>
      <point x="266" y="157" type="curve" smooth="yes"/>
      <point x="241" y="157"/>
      <point x="225" y="139"/>
      <point x="225" y="109" type="curve" smooth="yes"/>
      <point x="225" y="76"/>
      <point x="245" y="61"/>
      <point x="267" y="61" type="curve" smooth="yes"/>
    </contour>
    <contour>
      <point x="291" y="374"/>
      <point x="308" y="387"/>
      <point x="308" y="423" type="curve" smooth="yes"/>
      <point x="308" y="450"/>
      <point x="291" y="471"/>
      <point x="266" y="471" type="curve" smooth="yes"/>
      <point x="241" y="471"/>
      <point x="225" y="452"/>
      <point x="225" y="423" type="curve" smooth="yes"/>
      <point x="225" y="388"/>
      <point x="246" y="374"/>
      <point x="267" y="374" type="curve" smooth="yes"/>
    </contour>
  </outline>
</glyph>
<glyph name="thorn" format="1">
  <advance width="509"/>
  <unicode hex="00FE"/>
  <outline>
    <contour>
      <point x="380" y="-6"/>
      <point x="462" y="81"/>
      <point x="462" y="196" type="curve" smooth="yes"/>
      <point x="462" y="328"/>
      <point x="372" y="396"/>
      <point x="277" y="396" type="curve" smooth="yes"/>
      <point x="202" y="396"/>
      <point x="136" y="350"/>
      <point x="84" y="275" type="curve" smooth="yes"/>
      <point x="76" y="266"/>
      <point x="79" y="251"/>
      <point x="90" y="244" type="curve" smooth="yes"/>
      <point x="99" y="236"/>
      <point x="115" y="239"/>
      <point x="122" y="249" type="curve" smooth="yes"/>
      <point x="164" y="308"/>
      <point x="216" y="350"/>
      <point x="277" y="350" type="curve" smooth="yes"/>
      <point x="351" y="350"/>
      <point x="414" y="294"/>
      <point x="414" y="196" type="curve" smooth="yes"/>
      <point x="414" y="109"/>
      <point x="354" y="40"/>
      <point x="264" y="40" type="curve" smooth="yes"/>
      <point x="212" y="40"/>
      <point x="160" y="66"/>
      <point x="117" y="101" type="curve" smooth="yes"/>
      <point x="107" y="109"/>
      <point x="92" y="108"/>
      <point x="84" y="99" type="curve" smooth="yes"/>
      <point x="76" y="89"/>
      <point x="77" y="74"/>
      <point x="86" y="67" type="curve" smooth="yes"/>
      <point x="139" y="22"/>
      <point x="203" y="-6"/>
      <point x="264" y="-6" type="curve" smooth="yes"/>
    </contour>
    <contour>
      <point x="115" y="-205"/>
      <point x="126" y="-195"/>
      <point x="126" y="-182" type="curve" smooth="yes"/>
      <point x="126" y="549" type="line" smooth="yes"/>
      <point x="126" y="562"/>
      <point x="115" y="572"/>
      <point x="102" y="572" type="curve" smooth="yes"/>
      <point x="89" y="572"/>
      <point x="78" y="562"/>
      <point x="78" y="549" type="curve" smooth="yes"/>
      <point x="78" y="-182" type="line" smooth="yes"/>
      <point x="78" y="-195"/>
      <point x="89" y="-205"/>
      <point x="102" y="-205" type="curve" smooth="yes"/>
    </contour>
  </outline>
</glyph>
<glyph name="dcaron" format="1">
  <advance width="644"/>
  <unicode hex="010F"/>
  <outline>
    <contour>
      <point x="319" y="-11"/>
      <point x="384" y="45"/>
      <point x="430" y="122" type="curve" smooth="yes"/>
      <point x="437" y="132"/>
      <point x="433" y="147"/>
      <point x="421" y="153" type="curve" smooth="yes"/>
      <point x="411" y="160"/>
      <point x="395" y="156"/>
      <point x="389" y="145" type="curve" smooth="yes"/>
      <point x="353" y="85"/>
      <point x="303" y="35"/>
      <point x="231" y="35" type="curve" smooth="yes"/>
      <point x="154" y="35"/>
      <point x="98" y="94"/>
      <point x="98" y="182" type="curve" smooth="yes"/>
      <point x="98" y="276"/>
      <point x="163" y="346"/>
      <point x="253" y="346" type="curve" smooth="yes"/>
      <point x="310" y="346"/>
      <point x="353" y="324"/>
      <point x="396" y="290" type="curve" smooth="yes"/>
      <point x="406" y="282"/>
      <point x="420" y="283"/>
      <point x="428" y="292" type="curve" smooth="yes"/>
      <point x="436" y="302"/>
      <point x="435" y="316"/>
      <point x="426" y="324" type="curve" smooth="yes"/>
      <point x="374" y="367"/>
      <point x="322" y="392"/>
      <point x="253" y="392" type="curve" smooth="yes"/>
      <point x="137" y="392"/>
      <point x="50" y="304"/>
      <point x="50" y="182" type="curve" smooth="yes"/>
      <point x="50" y="64"/>
      <point x="130" y="-11"/>
      <point x="231" y="-11" type="curve" smooth="yes"/>
    </contour>
    <contour>
      <point x="424" y="-11"/>
      <point x="435" y="0"/>
      <point x="435" y="13" type="curve" smooth="yes"/>
      <point x="435" y="544" type="line" smooth="yes"/>
      <point x="435" y="557"/>
      <point x="424" y="567"/>
      <point x="411" y="567" type="curve" smooth="yes"/>
      <point x="398" y="567"/>
      <point x="387" y="557"/>
      <point x="387" y="544" type="curve" smooth="yes"/>
      <point x="387" y="13" type="line" smooth="yes"/>
      <point x="387" y="0"/>
      <point x="398" y="-11"/>
      <point x="411" y="-11" type="curve" smooth="yes"/>
    </contour>
    <contour>
      <point x="599" y="404"/>
      <point x="611" y="412"/>
      <point x="614" y="424" type="curve" smooth="yes"/>
      <point x="635" y="568" type="line" smooth="yes"/>
      <point x="636" y="581"/>
      <point x="627" y="593"/>
      <point x="614" y="595" type="curve" smooth="yes"/>
      <point x="601" y="596"/>
      <point x="589" y="588"/>
      <point x="587" y="575" type="curve" smooth="yes"/>
      <point x="566" y="431" type="line" smooth="yes"/>
      <point x="564" y="419"/>
      <point x="573" y="407"/>
      <point x="586" y="405" type="curve" smooth="yes"/>
    </contour>
  </outline>
</glyph>
<glyph name="Lcaron" format="1">
  <advance width="453"/>
  <unicode hex="013D"/>
  <outline>
    <contour>
      <point x="128" y="-10"/>
      <point x="139" y="1"/>
      <point x="139" y="14" type="curve" smooth="yes"/>
      <point x="139" y="518" type="line" smooth="yes"/>
      <point x="139" y="531"/>
      <point x="128" y="541"/>
      <point x="115" y="541" type="curve" smooth="yes"/>
      <point x="102" y="541"/>
      <point x="91" y="531"/>
      <point x="91" y="518" type="curve" smooth="yes"/>
      <point x="91" y="14" type="line" smooth="yes"/>
      <point x="91" y="1"/>
      <point x="102" y="-10"/>
      <point x="115" y="-10" type="curve" smooth="yes"/>
    </contour>
    <contour>
      <point x="400" y="-10" type="line" smooth="yes"/>
      <point x="413" y="-10"/>
      <point x="423" y="1"/>
      <point x="423" y="14" type="curve" smooth="yes"/>
      <point x="423" y="26"/>
      <point x="413" y="36"/>
      <point x="400" y="36" type="curve" smooth="yes"/>
      <point x="124" y="36" type="line" smooth="yes"/>
      <point x="111" y="36"/>
      <point x="100" y="26"/>
      <point x="100" y="14" type="curve" smooth="yes"/>
      <point x="100" y="1"/>
      <point x="111" y="-10"/>
      <point x="124" y="-10" type="curve" smooth="yes"/>
    </contour>
    <contour>
      <point x="311" y="363"/>
      <point x="323" y="371"/>
      <point x="326" y="384" type="curve" smooth="yes"/>
      <point x="347" y="528" type="line" smooth="yes"/>
      <point x="348" y="540"/>
      <point x="339" y="552"/>
      <point x="326" y="554" type="curve" smooth="yes"/>
      <point x="313" y="555"/>
      <point x="301" y="547"/>
      <point x="299" y="535" type="curve" smooth="yes"/>
      <point x="278" y="391" type="line" smooth="yes"/>
      <point x="276" y="378"/>
      <point x="285" y="367"/>
      <point x="298" y="364" type="curve" smooth="yes"/>
    </contour>
  </outline>
</glyph>
<glyph name="lslash" format="1">
  <advance width="227"/>
  <unicode hex="0142"/>
  <outline>
    <contour>
      <point x="127" y="-11"/>
      <point x="138" y="0"/>
      <point x="138" y="13" type="curve" smooth="yes"/>
      <point x="138" y="545" type="line" smooth="yes"/>
      <point x="138" y="558"/>
      <point x="127" y="568"/>
      <point x="114" y="568" type="curve" smooth="yes"/>
      <point x="101" y="568"/>
      <point x="90" y="558"/>
      <point x="90" y="545" type="curve" smooth="yes"/>
      <point x="90" y="13" type="line" smooth="yes"/>
      <point x="90" y="0"/>
      <point x="101" y="-11"/>
      <point x="114" y="-11" type="curve" smooth="yes"/>
    </contour>
    <contour>
      <point x="211" y="339" type="line" smooth="yes"/>
      <point x="220" y="346"/>
      <point x="223" y="361"/>
      <point x="216" y="371" type="curve" smooth="yes"/>
      <point x="208" y="381"/>
      <point x="193" y="384"/>
      <point x="183" y="376" type="curve" smooth="yes"/>
      <point x="19" y="259" type="line" smooth="yes"/>
      <point x="9" y="252"/>
      <point x="6" y="237"/>
      <point x="14" y="227" type="curve" smooth="yes"/>
      <point x="21" y="217"/>
      <point x="36" y="214"/>
      <point x="47" y="222" type="curve" smooth="yes"/>
    </contour>
  </outline>
</glyph>
<glyph name="Eng" format="1">
  <advance width="638"/>
  <unicode hex="014A"/>
  <outline>
    <contour>
      <point x="541" y="2"/>
      <point x="543" y="17"/>
      <point x="536" y="27" type="curve" smooth="yes"/>
      <point x="424" y="176"/>
      <point x="219" y="428"/>
      <point x="140" y="532" type="curve" smooth="yes"/>
      <point x="132" y="542"/>
      <point x="117" y="544"/>
      <point x="107" y="537" type="curve" smooth="yes"/>
      <point x="96" y="529"/>
      <point x="95" y="515"/>
      <point x="102" y="504" type="curve" smooth="yes"/>
      <point x="181" y="400"/>
      <point x="386" y="148"/>
      <point x="498" y="-1" type="curve" smooth="yes"/>
      <point x="505" y="-11"/>
      <point x="520" y="-12"/>
      <point x="531" y="-5" type="curve" smooth="yes"/>
    </contour>
    <contour>
      <point x="128" y="-10"/>
      <point x="139" y="1"/>
      <point x="139" y="14" type="curve" smooth="yes"/>
      <point x="139" y="518" type="line" smooth="yes"/>
      <point x="139" y="531"/>
      <point x="128" y="541"/>
      <point x="115" y="541" type="curve" smooth="yes"/>
      <point x="102" y="541"/>
      <point x="91" y="531"/>
      <point x="91" y="518" type="curve" smooth="yes"/>
      <point x="91" y="14" type="line" smooth="yes"/>
      <point x="91" y="1"/>
      <point x="102" y="-10"/>
      <point x="115" y="-10" type="curve" smooth="yes"/>
    </contour>
    <contour>
      <point x="513" y="-138"/>
      <point x="548" y="-85"/>
      <point x="548" y="-6" type="curve" smooth="yes"/>
      <point x="548" y="145" type="line" smooth="yes"/>
      <point x="548" y="157"/>
      <point x="537" y="168"/>
      <point x="524" y="168" type="curve" smooth="yes"/>
      <point x="511" y="168"/>
      <point x="500" y="157"/>
      <point x="500" y="145" type="curve" smooth="yes"/>
      <point x="500" y="-6" type="line" smooth="yes"/>
      <point x="500" y="-69"/>
      <point x="478" y="-102"/>
      <point x="415" y="-127" type="curve" smooth="yes"/>
      <point x="403" y="-132"/>
      <point x="396" y="-146"/>
      <point x="401" y="-157" type="curve" smooth="yes"/>
      <point x="406" y="-169"/>
      <point x="420" y="-175"/>
      <point x="432" y="-171" type="curve" smooth="yes"/>
    </contour>
    <contour>
      <point x="537" y="-10"/>
      <point x="548" y="1"/>
      <point x="548" y="14" type="curve" smooth="yes"/>
      <point x="548" y="518" type="line" smooth="yes"/>
      <point x="548" y="531"/>
      <point x="537" y="541"/>
      <point x="524" y="541" type="curve" smooth="yes"/>
      <point x="511" y="541"/>
      <point x="500" y="531"/>
      <point x="500" y="518" type="curve" smooth="yes"/>
      <point x="500" y="14" type="line" smooth="yes"/>
      <point x="500" y="1"/>
      <point x="511" y="-10"/>
      <point x="524" y="-10" type="curve" smooth="yes"/>
    </contour>
  </outline>
</glyph>
<glyph name="OE" format="1">
  <advance width="823"/>
  <unicode hex="0152"/>
  <outline>
    <contour>
      <point x="575" y="-10" type="line"/>
      <point x="575" y="36" type="line"/>
      <point x="324" y="36" type="line" smooth="yes"/>
      <point x="192" y="36"/>
      <point x="100" y="137"/>
      <point x="100" y="263" type="curve" smooth="yes"/>
      <point x="100" y="400"/>
      <point x="190" y="495"/>
      <point x="324" y="495" type="curve" smooth="yes"/>
      <point x="550" y="495" type="line"/>
      <point x="550" y="541" type="line"/>
      <point x="324" y="541" type="line" smooth="yes"/>
      <point x="162" y="541"/>
      <point x="52" y="428"/>
      <point x="52" y="263" type="curve" smooth="yes"/>
      <point x="52" y="110"/>
      <point x="164" y="-10"/>
      <point x="324" y="-10" type="curve" smooth="yes"/>
    </contour>
    <contour>
      <point x="748" y="-10" type="line" smooth="yes"/>
      <point x="761" y="-10"/>
      <point x="771" y="1"/>
      <point x="771" y="14" type="curve" smooth="yes"/>
      <point x="771" y="26"/>
      <point x="761" y="36"/>
      <point x="748" y="36" type="curve" smooth="yes"/>
      <point x="464" y="36" type="line"/>
      <point x="464" y="-10" type="line"/>
    </contour>
    <contour>
      <point x="468" y="-10"/>
      <point x="479" y="1"/>
      <point x="479" y="14" type="curve" smooth="yes"/>
      <point x="479" y="518" type="line" smooth="yes"/>
      <point x="479" y="531"/>
      <point x="468" y="541"/>
      <point x="455" y="541" type="curve" smooth="yes"/>
      <point x="442" y="541"/>
      <point x="431" y="531"/>
      <point x="431" y="518" type="curve" smooth="yes"/>
      <point x="431" y="14" type="line" smooth="yes"/>
      <point x="431" y="1"/>
      <point x="442" y="-10"/>
      <point x="455" y="-10" type="curve" smooth="yes"/>
    </contour>
    <contour>
      <point x="701" y="262" type="line" smooth="yes"/>
      <point x="714" y="262"/>
      <point x="724" y="272"/>
      <point x="724" y="285" type="curve" smooth="yes"/>
      <point x="724" y="298"/>
      <point x="714" y="308"/>
      <point x="701" y="308" type="curve" smooth="yes"/>
      <point x="464" y="308" type="line"/>
      <point x="464" y="262" type="line"/>
    </contour>
    <contour>
      <point x="746" y="495" type="line" smooth="yes"/>
      <point x="759" y="495"/>
      <point x="769" y="506"/>
      <point x="769" y="518" type="curve" smooth="yes"/>
      <point x="769" y="531"/>
      <point x="759" y="541"/>
      <point x="746" y="541" type="curve" smooth="yes"/>
      <point x="464" y="541" type="line"/>
      <point x="464" y="495" type="line"/>
    </contour>
  </outline>
</glyph>
<glyph name="oe" format="1">
  <advance width="838"/>
  <unicode hex="0153"/>
  <outline>
    <contour>
      <point x="382" y="-11"/>
      <point x="462" y="77"/>
      <point x="462" y="190" type="curve" smooth="yes"/>
      <point x="462" y="306"/>
      <point x="382" y="400"/>
      <point x="255" y="400" type="curve" smooth="yes"/>
      <point x="128" y="400"/>
      <point x="49" y="306"/>
      <point x="49" y="192" type="curve" smooth="yes"/>
      <point x="49" y="78"/>
      <point x="130" y="-11"/>
      <point x="255" y="-11" type="curve" smooth="yes"/>
    </contour>
    <contour>
      <point x="158" y="35"/>
      <point x="97" y="104"/>
      <point x="97" y="192" type="curve" smooth="yes"/>
      <point x="97" y="280"/>
      <point x="156" y="354"/>
      <point x="255" y="354" type="curve" smooth="yes"/>
      <point x="354" y="354"/>
      <point x="414" y="280"/>
      <point x="414" y="190" type="curve" smooth="yes"/>
      <point x="414" y="103"/>
      <point x="352" y="35"/>
      <point x="255" y="35" type="curve" smooth="yes"/>
    </contour>
    <contour>
      <point x="676" y="-7"/>
      <point x="716" y="2"/>
      <point x="745" y="13" type="curve" smooth="yes"/>
      <point x="757" y="18"/>
      <point x="763" y="32"/>
      <point x="759" y="43" type="curve" smooth="yes"/>
      <point x="754" y="55"/>
      <point x="740" y="61"/>
      <point x="728" y="57" type="curve" smooth="yes"/>
      <point x="704" y="47"/>
      <point x="669" y="39"/>
      <point x="635" y="39" type="curve" smooth="yes"/>
      <point x="534" y="39"/>
      <point x="462" y="91"/>
      <point x="462" y="190" type="curve" smooth="yes"/>
      <point x="462" y="285"/>
      <point x="529" y="350"/>
      <point x="614" y="350" type="curve" smooth="yes"/>
      <point x="684" y="350"/>
      <point x="733" y="300"/>
      <point x="733" y="258" type="curve" smooth="yes"/>
      <point x="733" y="230"/>
      <point x="711" y="217"/>
      <point x="671" y="217" type="curve" smooth="yes"/>
      <point x="452" y="217" type="line" smooth="yes"/>
      <point x="439" y="217"/>
      <point x="428" y="207"/>
      <point x="428" y="194" type="curve" smooth="yes"/>
      <point x="428" y="181"/>
      <point x="439" y="171"/>
      <point x="452" y="171" type="curve" smooth="yes"/>
      <point x="671" y="171" type="line" smooth="yes"/>
      <point x="756" y="171"/>
      <point x="781" y="208"/>
      <point x="781" y="258" type="curve" smooth="yes"/>
      <point x="781" y="316"/>
      <point x="719" y="396"/>
      <point x="614" y="396" type="curve" smooth="yes"/>
      <point x="505" y="396"/>
      <point x="414" y="314"/>
      <point x="414" y="190" type="curve" smooth="yes"/>
      <point x="414" y="63"/>
      <point x="503" y="-7"/>
      <point x="635" y="-7" type="curve" smooth="yes"/>
    </contour>
  </outline>
</glyph>
<glyph name="uni0302" format="1">
  <advance width="0"/>
  <unicode hex="0302"/>
  <outline>
    <contour>
      <point x="84" y="480"/>
      <point x="100" y="480"/>
      <point x="108" y="489" type="curve" smooth="yes"/>
      <point x="117" y="498"/>
      <point x="117" y="513"/>
      <point x="108" y="521" type="curve" smooth="yes"/>
      <point x="80" y="548"/>
      <point x="48" y="582"/>
      <point x="15" y="613" type="curve" smooth="yes"/>
      <point x="6" y="621"/>
      <point x="-10" y="621"/>
      <point x="-19" y="611" type="curve" smooth="yes"/>
      <point x="-27" y="602"/>
      <point x="-27" y="587"/>
      <point x="-18" y="578" type="curve" smooth="yes"/>
      <point x="15" y="548"/>
      <point x="47" y="516"/>
      <point x="75" y="489" type="curve" smooth="yes"/>
    </contour>
    <contour>
      <point x="-97" y="486"/>
      <point x="-80" y="490"/>
      <point x="-70" y="501" type="curve" smooth="yes"/>
      <point x="-44" y="526"/>
      <point x="-15" y="559"/>
      <point x="9" y="587" type="curve" smooth="yes"/>
      <point x="13" y="596"/>
      <point x="9" y="608"/>
      <point x="0" y="612" type="curve" smooth="yes"/>
      <point x="-10" y="614"/>
      <point x="-27" y="610"/>
      <point x="-37" y="600" type="curve" smooth="yes"/>
      <point x="-66" y="571"/>
      <point x="-95" y="539"/>
      <point x="-116" y="513" type="curve" smooth="yes"/>
      <point x="-120" y="505"/>
      <point x="-116" y="493"/>
      <point x="-107" y="489" type="curve" smooth="yes"/>
    </contour>
    <contour>
      <point x="0" y="394" type="move" name="_top"/>
    </contour>
  </outline>
</glyph>
<glyph name="uni0304" format="1">
  <advance width="0"/>
  <unicode hex="0304"/>
  <outline>
    <contour>
      <point x="106" y="515" type="line" smooth="yes"/>
      <point x="119" y="515"/>
      <point x="129" y="525"/>
      <point x="129" y="538" type="curve" smooth="yes"/>
      <point x="129" y="551"/>
      <point x="119" y="561"/>
      <point x="106" y="561" type="curve" smooth="yes"/>
      <point x="-105" y="561" type="line" smooth="yes"/>
      <point x="-118" y="561"/>
      <point x="-129" y="551"/>
      <point x="-129" y="538" type="curve" smooth="yes"/>
      <point x="-129" y="525"/>
      <point x="-118" y="515"/>
      <point x="-105" y="515" type="curve" smooth="yes"/>
    </contour>
    <contour>
      <point x="0" y="394" type="move" name="_top"/>
    </contour>
  </outline>
</glyph>
<glyph name="uni0306" format="1">
  <advance width="0"/>
  <unicode hex="0306"/>
  <outline>
    <contour>
      <point x="59" y="492"/>
      <point x="95" y="521"/>
      <point x="124" y="568" type="curve" smooth="yes"/>
      <point x="131" y="578"/>
      <point x="127" y="592"/>
      <point x="116" y="599" type="curve" smooth="yes"/>
      <point x="105" y="606"/>
      <point x="91" y="603"/>
      <point x="84" y="591" type="curve" smooth="yes"/>
      <point x="64" y="561"/>
      <point x="41" y="538"/>
      <point x="0" y="538" type="curve" smooth="yes"/>
      <point x="-37" y="538"/>
      <point x="-67" y="562"/>
      <point x="-87" y="592" type="curve" smooth="yes"/>
      <point x="-94" y="603"/>
      <point x="-109" y="606"/>
      <point x="-120" y="599" type="curve" smooth="yes"/>
      <point x="-131" y="592"/>
      <point x="-134" y="577"/>
      <point x="-127" y="567" type="curve" smooth="yes"/>
      <point x="-97" y="522"/>
      <point x="-51" y="492"/>
      <point x="0" y="492" type="curve" smooth="yes"/>
    </contour>
    <contour>
      <point x="0" y="394" type="move" name="_top"/>
    </contour>
  </outline>
</glyph>
<glyph name="uni0307" format="1">
  <advance width="0"/>
  <unicode hex="0307"/>
  <outline>
    <contour>
      <point x="22" y="499"/>
      <point x="43" y="514"/>
      <point x="43" y="547" type="curve" smooth="yes"/>
      <point x="43" y="580"/>
      <point x="21" y="597"/>
      <point x="1" y="597" type="curve" smooth="yes"/>
      <point x="-24" y="597"/>
      <point x="-43" y="577"/>
      <point x="-43" y="547" type="curve" smooth="yes"/>
      <point x="-43" y="516"/>
      <point x="-24" y="499"/>
      <point x="1" y="499" type="curve" smooth="yes"/>
    </contour>
    <contour>
      <point x="0" y="394" type="move" name="_top"/>
    </contour>
  </outline>
</glyph>
<glyph name="uni0308" format="1">
  <advance width="0"/>
  <unicode hex="0308"/>
  <outline>
    <contour>
      <point x="114" y="494"/>
      <point x="134" y="509"/>
      <point x="134" y="542" type="curve" smooth="yes"/>
      <point x="134" y="575"/>
      <point x="113" y="592"/>
      <point x="93" y="592" type="curve" smooth="yes"/>
      <point x="73" y="592"/>
      <point x="52" y="575"/>
      <point x="52" y="542" type="curve" smooth="yes"/>
      <point x="52" y="509"/>
      <point x="72" y="494"/>
      <point x="93" y="494" type="curve" smooth="yes"/>
    </contour>
    <contour>
      <point x="-75" y="494"/>
      <point x="-54" y="508"/>
      <point x="-54" y="542" type="curve" smooth="yes"/>
      <point x="-54" y="577"/>
      <point x="-76" y="592"/>
      <point x="-94" y="592" type="curve" smooth="yes"/>
      <point x="-117" y="592"/>
      <point x="-136" y="575"/>
      <point x="-136" y="542" type="curve"/>
      <point x="-136" y="509"/>
      <point x="-118" y="494"/>
      <point x="-94" y="494" type="curve" smooth="yes"/>
    </contour>
    <contour>
      <point x="0" y="394" type="move" name="_top"/>
    </contour>
  </outline>
</glyph>
<glyph name="uni030C" format="1">
  <advance width="0"/>
  <unicode hex="030C"/>
  <outline>
    <contour>
      <point x="1" y="480"/>
      <point x="18" y="486"/>
      <point x="28" y="496" type="curve" smooth="yes"/>
      <point x="51" y="519"/>
      <point x="85" y="557"/>
      <point x="107" y="582" type="curve" smooth="yes"/>
      <point x="111" y="591"/>
      <point x="107" y="602"/>
      <point x="98" y="607" type="curve" smooth="yes"/>
      <point x="88" y="610"/>
      <point x="71" y="605"/>
      <point x="61" y="595" type="curve" smooth="yes"/>
      <point x="34" y="569"/>
      <point x="1" y="531"/>
      <point x="-17" y="508" type="curve" smooth="yes"/>
      <point x="-22" y="500"/>
      <point x="-18" y="488"/>
      <point x="-8" y="484" type="curve" smooth="yes"/>
    </contour>
    <contour>
      <point x="-15" y="475"/>
      <point x="1" y="475"/>
      <point x="10" y="484" type="curve" smooth="yes"/>
      <point x="19" y="492"/>
      <point x="19" y="508"/>
      <point x="10" y="517" type="curve" smooth="yes"/>
      <point x="-15" y="541"/>
      <point x="-53" y="580"/>
      <point x="-80" y="607" type="curve" smooth="yes"/>
      <point x="-89" y="616"/>
      <point x="-105" y="616"/>
      <point x="-113" y="607" type="curve" smooth="yes"/>
      <point x="-123" y="598"/>
      <point x="-123" y="582"/>
      <point x="-113" y="574" type="curve" smooth="yes"/>
      <point x="-86" y="547"/>
      <point x="-49" y="509"/>
      <point x="-23" y="484" type="curve" smooth="yes"/>
    </contour>
    <contour>
      <point x="0" y="394" type="move" name="_top"/>
    </contour>
  </outline>
</glyph>
<glyph name="uni0326" format="1">
  <advance width="0"/>
  <unicode hex="0326"/>
  <outline>
    <contour>
      <point x="-2" y="-234"/>
      <point x="31" y="-189"/>
      <point x="31" y="-144" type="curve" smooth="yes"/>
      <point x="31" y="-126"/>
      <point x="29" y="-107"/>
      <point x="20" y="-93" type="curve" smooth="yes"/>
      <point x="12" y="-83"/>
      <point x="-3" y="-78"/>
      <point x="-14" y="-85" type="curve" smooth="yes"/>
      <point x="-24" y="-92"/>
      <point x="-30" y="-106"/>
      <point x="-23" y="-117" type="curve" smooth="yes"/>
      <point x="-18" y="-124"/>
      <point x="-16" y="-134"/>
      <point x="-16" y="-144" type="curve" smooth="yes"/>
      <point x="-16" y="-176"/>
      <point x="-44" y="-205"/>
      <point x="-83" y="-220" type="curve" smooth="yes"/>
      <point x="-95" y="-225"/>
      <point x="-100" y="-239"/>
      <point x="-95" y="-250" type="curve" smooth="yes"/>
      <point x="-90" y="-262"/>
      <point x="-75" y="-266"/>
      <point x="-64" y="-261" type="curve" smooth="yes"/>
    </contour>
    <contour>
      <point x="-1" y="0" type="move" name="_bottom"/>
    </contour>
  </outline>
</glyph>
<glyph name="uni0335" format="1">
  <advance width="0"/>
  <unicode hex="0335"/>
  <outline>
    <contour>
      <point x="297" y="232" type="line" smooth="yes"/>
      <point x="310" y="232"/>
      <point x="320" y="242"/>
      <point x="320" y="255" type="curve" smooth="yes"/>
      <point x="320" y="268"/>
      <point x="310" y="278"/>
      <point x="297" y="278" type="curve" smooth="yes"/>
      <point x="11" y="278" type="line" smooth="yes"/>
      <point x="-2" y="278"/>
      <point x="-12" y="268"/>
      <point x="-12" y="255" type="curve" smooth="yes"/>
      <point x="-12" y="242"/>
      <point x="-2" y="232"/>
      <point x="11" y="232" type="curve" smooth="yes"/>
    </contour>
  </outline>
</glyph>
<glyph name="uni0338" format="1">
  <advance width="0"/>
  <unicode hex="0338"/>
  <outline>
    <contour>
      <point x="96" y="-32"/>
      <point x="111" y="-31"/>
      <point x="119" y="-21" type="curve" smooth="yes"/>
      <point x="549" y="503" type="line" smooth="yes"/>
      <point x="557" y="513"/>
      <point x="556" y="529"/>
      <point x="545" y="536" type="curve" smooth="yes"/>
      <point x="535" y="544"/>
      <point x="520" y="543"/>
      <point x="512" y="533" type="curve" smooth="yes"/>
      <point x="82" y="8" type="line" smooth="yes"/>
      <point x="73" y="-1"/>
      <point x="75" y="-18"/>
      <point x="85" y="-25" type="curve" smooth="yes"/>
    </contour>
  </outline>
</glyph>
<glyph name="pi" format="1">
  <advance width="636"/>
  <unicode hex="03C0"/>
  <outline>
    <contour>
      <point x="524" y="-11"/>
      <point x="539" y="-7"/>
      <point x="546" y="4" type="curve" smooth="yes"/>
      <point x="552" y="14"/>
      <point x="549" y="28"/>
      <point x="538" y="35" type="curve" smooth="yes"/>
      <point x="486" y="66"/>
      <point x="466" y="113"/>
      <point x="466" y="220" type="curve" smooth="yes"/>
      <point x="466" y="406" type="line" smooth="yes"/>
      <point x="466" y="419"/>
      <point x="455" y="429"/>
      <point x="442" y="429" type="curve" smooth="yes"/>
      <point x="424.58" y="429.0"/>
      <point x="418.0" y="423.42"/>
      <point x="418" y="406" type="curve"/>
      <point x="418" y="220" type="line" smooth="yes"/>
      <point x="418" y="87"/>
      <point x="451" y="34"/>
      <point x="514" y="-4" type="curve" smooth="yes"/>
    </contour>
    <contour>
      <point x="203" y="-8"/>
      <point x="214" y="3"/>
      <point x="214" y="16" type="curve" smooth="yes"/>
      <point x="214" y="406" type="line" smooth="yes"/>
      <point x="214" y="419"/>
      <point x="203" y="429"/>
      <point x="190" y="429" type="curve" smooth="yes"/>
      <point x="172.58" y="429.0"/>
      <point x="166.0" y="423.42"/>
      <point x="166" y="406" type="curve"/>
      <point x="166" y="16" type="line" smooth="yes"/>
      <point x="166" y="3"/>
      <point x="177" y="-8"/>
      <point x="190" y="-8" type="curve" smooth="yes"/>
    </contour>
    <contour>
      <point x="554" y="389" type="line" smooth="yes"/>
      <point x="567" y="389"/>
      <point x="577" y="399"/>
      <point x="577" y="412" type="curve" smooth="yes"/>
      <point x="577.0" y="429.42"/>
      <point x="571.42" y="435.0"/>
      <point x="554" y="435" type="curve"/>
      <point x="82" y="435" type="line" smooth="yes"/>
      <point x="69" y="435"/>
      <point x="58" y="425"/>
      <point x="58" y="412" type="curve" smooth="yes"/>
      <point x="58" y="399"/>
      <point x="69" y="389"/>
      <point x="82" y="389" type="curve" smooth="yes"/>
    </contour>
  </outline>
</glyph>
<glyph name="uni0964" format="1">
  <advance width="322"/>
  <unicode hex="0964"/>
  <outline>
    <contour>
      <point x="225" y="-12"/>
      <point x="235" y="1"/>
      <point x="235" y="17" type="curve" smooth="yes"/>
      <point x="235" y="620" type="line" smooth="yes"/>
      <point x="235" y="636"/>
      <point x="224" y="649"/>
      <point x="211" y="649" type="curve" smooth="yes"/>
      <point x="198" y="649"/>
      <point x="187" y="636"/>
      <point x="187" y="620" type="curve" smooth="yes"/>
      <point x="187" y="17" type="line" smooth="yes"/>
      <point x="187" y="1"/>
      <point x="198" y="-12"/>
      <point x="211" y="-12" type="curve" smooth="yes"/>
    </contour>
  </outline>
</glyph>
<glyph name="uni0982" format="1">
  <advance width="342"/>
  <unicode hex="0982"/>
  <outline>
    <contour>
      <point x="357" y="-10"/>
      <point x="364" y="-4"/>
      <point x="364" y="7" type="curve" smooth="yes"/>
      <point x="364" y="14"/>
      <point x="360" y="22"/>
      <point x="353" y="31" type="curve"/>
      <point x="324" y="62"/>
      <point x="300" y="135"/>
      <point x="256" y="207" type="curve" smooth="yes"/>
      <point x="224" y="260"/>
      <point x="172" y="312"/>
      <point x="88" y="312" type="curve" smooth="yes"/>
      <point x="65" y="312"/>
      <point x="56" y="300"/>
      <point x="56" y="288" type="curve" smooth="yes"/>
      <point x="56" y="274"/>
      <point x="68" y="264"/>
      <point x="85" y="264" type="curve" smooth="yes"/>
      <point x="154" y="262"/>
      <point x="197" y="231"/>
      <point x="229" y="172" type="curve" smooth="yes"/>
      <point x="275" y="90"/>
      <point x="307" y="-10"/>
      <point x="347" y="-10" type="curve" smooth="yes"/>
    </contour>
    <contour>
      <point x="219" y="358"/>
      <point x="269" y="392"/>
      <point x="269" y="455" type="curve" smooth="yes"/>
      <point x="269" y="516"/>
      <point x="222" y="559"/>
      <point x="160" y="559" type="curve" smooth="yes"/>
      <point x="93" y="559"/>
      <point x="59" y="510"/>
      <point x="59" y="463" type="curve" smooth="yes"/>
      <point x="59" y="407"/>
      <point x="109" y="358"/>
      <point x="169" y="358" type="curve" smooth="yes"/>
    </contour>
    <contour>
      <point x="140" y="401"/>
      <point x="104" y="420"/>
      <point x="104" y="460" type="curve" smooth="yes"/>
      <point x="104" y="487"/>
      <point x="122" y="517"/>
      <point x="162" y="517" type="curve" smooth="yes"/>
      <point x="196" y="517"/>
      <point x="226" y="495"/>
      <point x="226" y="461" type="curve" smooth="yes"/>
      <point x="226" y="427"/>
      <point x="198" y="401"/>
      <point x="167" y="401" type="curve" smooth="yes"/>
    </contour>
  </outline>
</glyph>
<glyph name="uni0987" format="1">
  <advance width="488"/>
  <unicode hex="0987"/>
  <outline>
    <contour>
      <point x="410" y="573" type="line"/>
      <point x="410" y="698"/>
      <point x="355" y="728"/>
      <point x="272" y="728" type="curve" smooth="yes"/>
      <point x="216" y="728"/>
      <point x="174" y="714"/>
      <point x="121" y="714" type="curve" smooth="yes"/>
      <point x="31" y="714"/>
      <point x="27" y="752"/>
      <point x="26" y="796" type="curve" smooth="yes"/>
      <point x="26" y="813"/>
      <point x="19" y="822"/>
      <point x="7" y="822" type="curve" smooth="yes"/>
      <point x="-6" y="822"/>
      <point x="-14" y="813"/>
      <point x="-14" y="785" type="curve" smooth="yes"/>
      <point x="-14" y="702"/>
      <point x="49" y="670"/>
      <point x="126" y="670" type="curve" smooth="yes"/>
      <point x="176" y="670"/>
      <point x="236" y="682"/>
      <point x="282" y="682" type="curve" smooth="yes"/>
      <point x="362" y="682"/>
      <point x="365" y="648"/>
      <point x="365" y="573" type="curve"/>
    </contour>
    <contour>
      <point x="446" y="-16"/>
      <point x="454" y="-6"/>
      <point x="454" y="5" type="curve" smooth="yes"/>
      <point x="454" y="24"/>
      <point x="433" y="20"/>
      <point x="397" y="32" type="curve" smooth="yes"/>
      <point x="337" y="52"/>
      <point x="305" y="99"/>
      <point x="256" y="163" type="curve" smooth="yes"/>
      <point x="217" y="213"/>
      <point x="183" y="239"/>
      <point x="144" y="239" type="curve" smooth="yes"/>
      <point x="106" y="239"/>
      <point x="83" y="215"/>
      <point x="83" y="187" type="curve" smooth="yes"/>
      <point x="83" y="153"/>
      <point x="117" y="124"/>
      <point x="171" y="124" type="curve" smooth="yes"/>
      <point x="296" y="124"/>
      <point x="409" y="219"/>
      <point x="409" y="326" type="curve" smooth="yes"/>
      <point x="409" y="434"/>
      <point x="329" y="496"/>
      <point x="233" y="496" type="curve" smooth="yes"/>
      <point x="166" y="496"/>
      <point x="84" y="466"/>
      <point x="84" y="395" type="curve" smooth="yes"/>
      <point x="84" y="355"/>
      <point x="113" y="320"/>
      <point x="161" y="320" type="curve" smooth="yes"/>
      <point x="206" y="320"/>
      <point x="236" y="353"/>
      <point x="236" y="392" type="curve" smooth="yes"/>
      <point x="236" y="432"/>
      <point x="203" y="456"/>
      <point x="175" y="456" type="curve" smooth="yes"/>
      <point x="156" y="456"/>
      <point x="140" y="451"/>
      <point x="128" y="440" type="curve"/>
      <point x="142" y="436" type="line"/>
      <point x="163" y="449"/>
      <point x="196" y="460"/>
      <point x="227" y="460" type="curve" smooth="yes"/>
      <point x="289" y="460"/>
      <point x="360" y="413"/>
      <point x="360" y="337" type="curve" smooth="yes"/>
      <point x="360" y="241"/>
      <point x="265" y="172"/>
      <point x="162" y="172" type="curve" smooth="yes"/>
      <point x="138" y="172"/>
      <point x="125" y="181"/>
      <point x="125" y="188" type="curve" smooth="yes"/>
      <point x="125" y="192"/>
      <point x="130" y="195"/>
      <point x="140" y="195" type="curve" smooth="yes"/>
      <point x="165" y="195"/>
      <point x="191" y="161"/>
      <point x="213" y="136" type="curve" smooth="yes"/>
      <point x="258" y="88"/>
      <point x="330" y="-16"/>
      <point x="418" y="-16" type="curve" smooth="yes"/>
    </contour>
    <contour>
      <point x="142" y="361"/>
      <point x="127" y="377"/>
      <point x="127" y="396" type="curve" smooth="yes"/>
      <point x="127" y="415"/>
      <point x="142" y="431"/>
      <point x="161" y="431" type="curve" smooth="yes"/>
      <point x="180" y="431"/>
      <point x="196" y="415"/>
      <point x="196" y="396" type="curve" smooth="yes"/>
      <point x="196" y="377"/>
      <point x="180" y="361"/>
      <point x="161" y="361" type="curve" smooth="yes"/>
    </contour>
    <contour>
      <point x="488" y="547" type="line" smooth="yes"/>
      <point x="501" y="547"/>
      <point x="512" y="556"/>
      <point x="512" y="567" type="curve" smooth="yes"/>
      <point x="512" y="578"/>
      <point x="501" y="587"/>
      <point x="488" y="587" type="curve" smooth="yes"/>
      <point x="0" y="587" type="line" smooth="yes"/>
      <point x="-13" y="587"/>
      <point x="-24" y="578"/>
      <point x="-24" y="567" type="curve" smooth="yes"/>
      <point x="-24" y="556"/>
      <point x="-13" y="547"/>
      <point x="0" y="547" type="curve" smooth="yes"/>
    </contour>
  </outline>
</glyph>
<glyph name="uni0988" format="1">
  <advance width="538"/>
  <unicode hex="0988"/>
  <outline>
    <contour>
      <point x="486" y="22"/>
      <point x="489" y="31"/>
      <point x="489" y="38" type="curve" smooth="yes"/>
      <point x="489" y="71"/>
      <point x="415" y="153"/>
      <point x="415" y="261" type="curve" smooth="yes"/>
      <point x="415" y="381"/>
      <point x="507" y="395"/>
      <point x="507" y="431" type="curve" smooth="yes"/>
      <point x="507" y="441"/>
      <point x="499" y="451"/>
      <point x="485" y="451" type="curve" smooth="yes"/>
      <point x="442" y="451"/>
      <point x="378" y="358"/>
      <point x="320" y="282" type="curve"/>
      <point x="335" y="269" type="line"/>
      <point x="342" y="289"/>
      <point x="346" y="310"/>
      <point x="346" y="329" type="curve" smooth="yes"/>
      <point x="346" y="416"/>
      <point x="283" y="490"/>
      <point x="192" y="490" type="curve" smooth="yes"/>
      <point x="118" y="490"/>
      <point x="52" y="442"/>
      <point x="52" y="381" type="curve" smooth="yes"/>
      <point x="52" y="343"/>
      <point x="78" y="299"/>
      <point x="128" y="299" type="curve" smooth="yes"/>
      <point x="177" y="299"/>
      <point x="205" y="339"/>
      <point x="205" y="374" type="curve" smooth="yes"/>
      <point x="205" y="408"/>
      <point x="178" y="442"/>
      <point x="139" y="442" type="curve" smooth="yes"/>
      <point x="120" y="442"/>
      <point x="105" y="434"/>
      <point x="91" y="419" type="curve"/>
      <point x="105" y="417" type="line"/>
      <point x="130" y="443"/>
      <point x="158" y="453"/>
      <point x="185" y="453" type="curve" smooth="yes"/>
      <point x="252" y="453"/>
      <point x="307" y="392"/>
      <point x="307" y="314" type="curve" smooth="yes"/>
      <point x="307" y="242"/>
      <point x="239" y="170"/>
      <point x="172" y="170" type="curve" smooth="yes"/>
      <point x="129" y="170"/>
      <point x="116" y="208"/>
      <point x="96" y="208" type="curve" smooth="yes"/>
      <point x="88" y="208"/>
      <point x="77" y="202"/>
      <point x="77" y="189" type="curve" smooth="yes"/>
      <point x="77" y="163"/>
      <point x="117" y="121"/>
      <point x="177" y="121" type="curve" smooth="yes"/>
      <point x="273" y="121"/>
      <point x="349" y="234"/>
      <point x="384" y="291" type="curve"/>
      <point x="369" y="306" type="line"/>
      <point x="369" y="214"/>
      <point x="388" y="134"/>
      <point x="436" y="54" type="curve" smooth="yes"/>
      <point x="449" y="32"/>
      <point x="460" y="22"/>
      <point x="473" y="22" type="curve" smooth="yes"/>
    </contour>
    <contour>
      <point x="117" y="343"/>
      <point x="96" y="353"/>
      <point x="96" y="378" type="curve" smooth="yes"/>
      <point x="96" y="400"/>
      <point x="111" y="413"/>
      <point x="131" y="413" type="curve" smooth="yes"/>
      <point x="153" y="413"/>
      <point x="166" y="396"/>
      <point x="166" y="378" type="curve" smooth="yes"/>
      <point x="166" y="354"/>
      <point x="146" y="343"/>
      <point x="131" y="343" type="curve" smooth="yes"/>
    </contour>
    <contour>
      <point x="538" y="547" type="line" smooth="yes"/>
      <point x="551" y="547"/>
      <point x="562" y="556"/>
      <point x="562" y="567" type="curve" smooth="yes"/>
      <point x="562" y="578"/>
      <point x="551" y="587"/>
      <point x="538" y="587" type="curve" smooth="yes"/>
      <point x="0" y="587" type="line" smooth="yes"/>
      <point x="-13" y="587"/>
      <point x="-24" y="578"/>
      <point x="-24" y="567" type="curve" smooth="yes"/>
      <point x="-24" y="556"/>
      <point x="-13" y="547"/>
      <point x="0" y="547" type="curve" smooth="yes"/>
    </contour>
    <contour>
      <point x="460" y="573" type="line"/>
      <point x="460" y="698"/>
      <point x="405" y="728"/>
      <point x="323" y="728" type="curve" smooth="yes"/>
      <point x="266" y="728"/>
      <point x="224" y="714"/>
      <point x="171" y="714" type="curve" smooth="yes"/>
      <point x="78" y="714"/>
      <point x="76" y="752"/>
      <point x="75" y="796" type="curve" smooth="yes"/>
      <point x="75" y="813"/>
      <point x="68" y="822"/>
      <point x="56" y="822" type="curve" smooth="yes"/>
      <point x="43" y="822"/>
      <point x="35" y="813"/>
      <point x="35" y="785" type="curve" smooth="yes"/>
      <point x="35" y="698"/>
      <point x="99" y="669"/>
      <point x="176" y="669" type="curve" smooth="yes"/>
      <point x="227" y="669"/>
      <point x="285" y="682"/>
      <point x="332" y="682" type="curve" smooth="yes"/>
      <point x="412" y="682"/>
      <point x="415" y="648"/>
      <point x="415" y="573" type="curve"/>
    </contour>
  </outline>
</glyph>
<glyph name="uni0989" format="1">
  <advance width="594"/>
  <unicode hex="0989"/>
  <outline>
    <contour>
      <point x="522" y="574" type="line"/>
      <point x="522" y="701"/>
      <point x="464" y="735"/>
      <point x="371" y="735" type="curve" smooth="yes"/>
      <point x="297" y="735"/>
      <point x="223" y="713"/>
      <point x="147" y="713" type="curve" smooth="yes"/>
      <point x="41" y="713"/>
      <point x="35" y="751"/>
      <point x="31" y="796" type="curve" smooth="yes"/>
      <point x="30" y="811"/>
      <point x="27" y="822"/>
      <point x="12" y="822" type="curve" smooth="yes"/>
      <point x="0" y="822"/>
      <point x="-9" y="813"/>
      <point x="-9" y="785" type="curve" smooth="yes"/>
      <point x="-9" y="700"/>
      <point x="65" y="667"/>
      <point x="145" y="667" type="curve" smooth="yes"/>
      <point x="210" y="667"/>
      <point x="303" y="687"/>
      <point x="372" y="687" type="curve" smooth="yes"/>
      <point x="473" y="687"/>
      <point x="476" y="647"/>
      <point x="476" y="574" type="curve"/>
    </contour>
    <contour>
      <point x="482" y="28"/>
      <point x="562" y="111"/>
      <point x="563" y="226" type="curve" smooth="yes"/>
      <point x="563" y="315"/>
      <point x="515" y="395"/>
      <point x="476" y="395" type="curve" smooth="yes"/>
      <point x="453" y="395"/>
      <point x="458" y="368"/>
      <point x="458" y="351" type="curve" smooth="yes"/>
      <point x="458" y="316"/>
      <point x="434" y="272"/>
      <point x="381" y="272" type="curve" smooth="yes"/>
      <point x="331" y="272"/>
      <point x="293" y="319"/>
      <point x="293" y="402" type="curve" smooth="yes"/>
      <point x="293" y="503"/>
      <point x="325" y="547"/>
      <point x="381" y="547" type="curve" smooth="yes"/>
      <point x="594" y="547" type="line" smooth="yes"/>
      <point x="607" y="547"/>
      <point x="618" y="556"/>
      <point x="618" y="567" type="curve" smooth="yes"/>
      <point x="618" y="578"/>
      <point x="607" y="587"/>
      <point x="594" y="587" type="curve" smooth="yes"/>
      <point x="367" y="587" type="line" smooth="yes"/>
      <point x="321" y="587"/>
      <point x="276" y="558"/>
      <point x="276" y="524" type="curve"/>
      <point x="295" y="524" type="line"/>
      <point x="295" y="564"/>
      <point x="255" y="587"/>
      <point x="204" y="587" type="curve" smooth="yes"/>
      <point x="0" y="587" type="line" smooth="yes"/>
      <point x="-13" y="587"/>
      <point x="-24" y="578"/>
      <point x="-24" y="567" type="curve" smooth="yes"/>
      <point x="-24" y="556"/>
      <point x="-13" y="547"/>
      <point x="0" y="547" type="curve" smooth="yes"/>
      <point x="200" y="547" type="line" smooth="yes"/>
      <point x="240" y="547"/>
      <point x="264" y="538"/>
      <point x="264" y="513" type="curve" smooth="yes"/>
      <point x="264" y="494"/>
      <point x="248" y="454"/>
      <point x="248" y="397" type="curve" smooth="yes"/>
      <point x="248" y="292"/>
      <point x="300" y="221"/>
      <point x="383" y="221" type="curve" smooth="yes"/>
      <point x="483" y="221"/>
      <point x="502" y="326"/>
      <point x="493" y="353" type="curve"/>
      <point x="480" y="348" type="line"/>
      <point x="510" y="307"/>
      <point x="517" y="266"/>
      <point x="517" y="236" type="curve" smooth="yes"/>
      <point x="517" y="150"/>
      <point x="458" y="82"/>
      <point x="363" y="82" type="curve" smooth="yes"/>
      <point x="203" y="82"/>
      <point x="106" y="267"/>
      <point x="84" y="431" type="curve" smooth="yes"/>
      <point x="82" y="443"/>
      <point x="78" y="459"/>
      <point x="62" y="459" type="curve" smooth="yes"/>
      <point x="46" y="459"/>
      <point x="42" y="445"/>
      <point x="42" y="432" type="curve" smooth="yes"/>
      <point x="42" y="316"/>
      <point x="152" y="28"/>
      <point x="367" y="28" type="curve" smooth="yes"/>
    </contour>
  </outline>
</glyph>
<glyph name="uni098A" format="1">
  <advance width="643"/>
  <unicode hex="098A"/>
  <outline>
    <contour>
      <point x="523" y="27"/>
      <point x="606" y="116"/>
      <point x="606" y="232" type="curve" smooth="yes"/>
      <point x="606" y="322"/>
      <point x="564" y="396"/>
      <point x="524" y="396" type="curve" smooth="yes"/>
      <point x="505" y="396"/>
      <point x="503" y="378"/>
      <point x="502" y="361" type="curve" smooth="yes"/>
      <point x="501" y="312"/>
      <point x="469" y="268"/>
      <point x="422" y="268" type="curve" smooth="yes"/>
      <point x="375" y="268"/>
      <point x="335" y="309"/>
      <point x="335" y="412" type="curve" smooth="yes"/>
      <point x="335" y="490"/>
      <point x="358" y="547"/>
      <point x="422" y="547" type="curve" smooth="yes"/>
      <point x="643" y="547" type="line" smooth="yes"/>
      <point x="656" y="547"/>
      <point x="667" y="556"/>
      <point x="667" y="567" type="curve" smooth="yes"/>
      <point x="667" y="578"/>
      <point x="656" y="587"/>
      <point x="643" y="587" type="curve" smooth="yes"/>
      <point x="402" y="587" type="line" smooth="yes"/>
      <point x="359" y="587"/>
      <point x="316" y="551"/>
      <point x="322" y="531" type="curve"/>
      <point x="336" y="526" type="line"/>
      <point x="334" y="566"/>
      <point x="292" y="587"/>
      <point x="243" y="587" type="curve" smooth="yes"/>
      <point x="0" y="587" type="line" smooth="yes"/>
      <point x="-13" y="587"/>
      <point x="-24" y="578"/>
      <point x="-24" y="567" type="curve" smooth="yes"/>
      <point x="-24" y="556"/>
      <point x="-13" y="547"/>
      <point x="0" y="547" type="curve" smooth="yes"/>
      <point x="236" y="547" type="line" smooth="yes"/>
      <point x="273" y="547"/>
      <point x="304" y="544"/>
      <point x="304" y="508" type="curve" smooth="yes"/>
      <point x="304" y="485"/>
      <point x="291" y="452"/>
      <point x="291" y="397" type="curve" smooth="yes"/>
      <point x="291" y="284"/>
      <point x="347" y="220"/>
      <point x="424" y="220" type="curve" smooth="yes"/>
      <point x="521" y="220"/>
      <point x="543" y="334"/>
      <point x="543" y="356" type="curve"/>
      <point x="526" y="350" type="line"/>
      <point x="555" y="316"/>
      <point x="562" y="278"/>
      <point x="562" y="243" type="curve" smooth="yes"/>
      <point x="562" y="145"/>
      <point x="492" y="85"/>
      <point x="405" y="85" type="curve" smooth="yes"/>
      <point x="252" y="85"/>
      <point x="179" y="260"/>
      <point x="178" y="453" type="curve" smooth="yes"/>
      <point x="178" y="470"/>
      <point x="175" y="484"/>
      <point x="160" y="484" type="curve" smooth="yes"/>
      <point x="141" y="484"/>
      <point x="138" y="462"/>
      <point x="138" y="424" type="curve" smooth="yes"/>
      <point x="138" y="319"/>
      <point x="165" y="207"/>
      <point x="232" y="134" type="curve"/>
      <point x="232" y="142" type="line"/>
      <point x="159" y="195"/>
      <point x="98" y="313"/>
      <point x="89" y="443" type="curve" smooth="yes"/>
      <point x="88" y="456"/>
      <point x="80" y="466"/>
      <point x="68" y="466" type="curve" smooth="yes"/>
      <point x="55" y="466"/>
      <point x="49" y="455"/>
      <point x="49" y="443" type="curve" smooth="yes"/>
      <point x="49" y="262"/>
      <point x="196" y="27"/>
      <point x="410" y="27" type="curve" smooth="yes"/>
    </contour>
    <contour>
      <point x="563" y="574" type="line"/>
      <point x="563" y="702"/>
      <point x="505" y="735"/>
      <point x="412" y="735" type="curve" smooth="yes"/>
      <point x="339" y="735"/>
      <point x="263" y="713"/>
      <point x="187" y="713" type="curve" smooth="yes"/>
      <point x="81" y="713"/>
      <point x="75" y="751"/>
      <point x="71" y="796" type="curve" smooth="yes"/>
      <point x="70" y="811"/>
      <point x="67" y="822"/>
      <point x="52" y="822" type="curve" smooth="yes"/>
      <point x="40" y="822"/>
      <point x="31" y="813"/>
      <point x="31" y="785" type="curve" smooth="yes"/>
      <point x="31" y="700"/>
      <point x="105" y="667"/>
      <point x="185" y="667" type="curve" smooth="yes"/>
      <point x="250" y="667"/>
      <point x="345" y="687"/>
      <point x="413" y="687" type="curve" smooth="yes"/>
      <point x="514" y="687"/>
      <point x="518" y="648"/>
      <point x="518" y="574" type="curve"/>
    </contour>
  </outline>
</glyph>
<glyph name="uni098C" format="1">
  <advance width="562"/>
  <unicode hex="098C"/>
  <outline>
    <contour>
      <point x="417" y="-12"/>
      <point x="525" y="105"/>
      <point x="525" y="235" type="curve" smooth="yes"/>
      <point x="525" y="528"/>
      <point x="122" y="491"/>
      <point x="101" y="658" type="curve" smooth="yes"/>
      <point x="100" y="674"/>
      <point x="95" y="693"/>
      <point x="77" y="693" type="curve" smooth="yes"/>
      <point x="63" y="693"/>
      <point x="54" y="681"/>
      <point x="54" y="656" type="curve" smooth="yes"/>
      <point x="54" y="452"/>
      <point x="482" y="496"/>
      <point x="482" y="243" type="curve" smooth="yes"/>
      <point x="482" y="139"/>
      <point x="418" y="41"/>
      <point x="310" y="24" type="curve"/>
      <point x="310" y="14" type="line"/>
      <point x="358" y="42"/>
      <point x="390" y="97"/>
      <point x="390" y="161" type="curve" smooth="yes"/>
      <point x="390" y="254"/>
      <point x="315" y="324"/>
      <point x="215" y="324" type="curve" smooth="yes"/>
      <point x="112" y="324"/>
      <point x="43" y="249"/>
      <point x="43" y="162" type="curve" smooth="yes"/>
      <point x="43" y="80"/>
      <point x="106" y="8"/>
      <point x="180" y="8" type="curve" smooth="yes"/>
      <point x="231" y="8"/>
      <point x="261" y="43"/>
      <point x="261" y="81" type="curve" smooth="yes"/>
      <point x="261" y="118"/>
      <point x="235" y="152"/>
      <point x="191" y="152" type="curve" smooth="yes"/>
      <point x="146" y="152"/>
      <point x="119" y="119"/>
      <point x="119" y="84" type="curve" smooth="yes"/>
      <point x="119" y="63"/>
      <point x="133" y="41"/>
      <point x="150" y="29" type="curve"/>
      <point x="153" y="47" type="line"/>
      <point x="112" y="64"/>
      <point x="88" y="109"/>
      <point x="88" y="154" type="curve" smooth="yes"/>
      <point x="88" y="213"/>
      <point x="128" y="283"/>
      <point x="215" y="283" type="curve" smooth="yes"/>
      <point x="294" y="283"/>
      <point x="338" y="224"/>
      <point x="338" y="161" type="curve" smooth="yes"/>
      <point x="338" y="68"/>
      <point x="281" y="38"/>
      <point x="281" y="13" type="curve" smooth="yes"/>
      <point x="281" y="0"/>
      <point x="291" y="-12"/>
      <point x="320" y="-12" type="curve" smooth="yes"/>
    </contour>
    <contour>
      <point x="168" y="43"/>
      <point x="153" y="58"/>
      <point x="153" y="77" type="curve" smooth="yes"/>
      <point x="153" y="96"/>
      <point x="168" y="111"/>
      <point x="187" y="111" type="curve" smooth="yes"/>
      <point x="206" y="111"/>
      <point x="221" y="96"/>
      <point x="221" y="77" type="curve" smooth="yes"/>
      <point x="221" y="58"/>
      <point x="206" y="43"/>
      <point x="187" y="43" type="curve" smooth="yes"/>
    </contour>
  </outline>
</glyph>
<glyph name="uni0990" format="1">
  <advance width="700"/>
  <unicode hex="0990"/>
  <outline>
    <contour>
      <point x="493" y="286" type="line"/>
      <point x="561" y="286"/>
      <point x="668" y="368"/>
      <point x="668" y="489" type="curve" smooth="yes"/>
      <point x="668" y="641"/>
      <point x="546" y="685"/>
      <point x="418" y="737" type="curve"/>
      <point x="341" y="769"/>
      <point x="300" y="803"/>
      <point x="297" y="856" type="curve"/>
      <point x="296" y="875"/>
      <point x="293" y="895"/>
      <point x="276" y="895" type="curve" smooth="yes"/>
      <point x="259" y="895"/>
      <point x="254" y="878"/>
      <point x="254" y="857" type="curve" smooth="yes"/>
      <point x="254" y="780"/>
      <point x="310" y="735"/>
      <point x="405" y="693" type="curve" smooth="yes"/>
      <point x="511" y="648"/>
      <point x="626" y="616"/>
      <point x="626" y="499" type="curve" smooth="yes"/>
      <point x="626" y="428"/>
      <point x="567" y="343"/>
      <point x="493" y="343" type="curve"/>
    </contour>
    <contour>
      <point x="513" y="-12"/>
      <point x="523" y="1"/>
      <point x="523" y="17" type="curve" smooth="yes"/>
      <point x="523" y="471" type="line" smooth="yes"/>
      <point x="523" y="553"/>
      <point x="509" y="595"/>
      <point x="450" y="595" type="curve" smooth="yes"/>
      <point x="345" y="595"/>
      <point x="186" y="448"/>
      <point x="186" y="326" type="curve" smooth="yes"/>
      <point x="186" y="272"/>
      <point x="221" y="235"/>
      <point x="274" y="235" type="curve" smooth="yes"/>
      <point x="314" y="235"/>
      <point x="354" y="261"/>
      <point x="354" y="310" type="curve" smooth="yes"/>
      <point x="354" y="357"/>
      <point x="316" y="386"/>
      <point x="276" y="386" type="curve" smooth="yes"/>
      <point x="241" y="386"/>
      <point x="210" y="364"/>
      <point x="210" y="323" type="curve"/>
      <point x="230" y="327" type="line"/>
      <point x="230" y="437"/>
      <point x="385" y="553"/>
      <point x="445" y="553" type="curve" smooth="yes"/>
      <point x="476" y="553"/>
      <point x="476" y="533"/>
      <point x="476" y="463" type="curve" smooth="yes"/>
      <point x="476" y="63" type="line"/>
      <point x="492" y="81" type="line"/>
      <point x="472" y="116"/>
      <point x="436" y="146"/>
      <point x="372" y="146" type="curve" smooth="yes"/>
      <point x="307" y="146"/>
      <point x="261" y="116"/>
      <point x="206" y="116" type="curve" smooth="yes"/>
      <point x="136" y="116"/>
      <point x="78" y="153"/>
      <point x="78" y="240" type="curve" smooth="yes"/>
      <point x="78" y="301"/>
      <point x="107" y="336"/>
      <point x="107" y="360" type="curve" smooth="yes"/>
      <point x="107" y="374"/>
      <point x="99" y="380"/>
      <point x="89" y="380" type="curve" smooth="yes"/>
      <point x="57" y="380"/>
      <point x="31" y="301"/>
      <point x="31" y="243" type="curve" smooth="yes"/>
      <point x="31" y="139"/>
      <point x="95" y="62"/>
      <point x="212" y="62" type="curve" smooth="yes"/>
      <point x="278" y="62"/>
      <point x="319" y="94"/>
      <point x="380" y="94" type="curve" smooth="yes"/>
      <point x="415" y="94"/>
      <point x="472" y="84"/>
      <point x="474" y="16" type="curve" smooth="yes"/>
      <point x="476" y="0"/>
      <point x="485" y="-12"/>
      <point x="499" y="-12" type="curve" smooth="yes"/>
    </contour>
    <contour>
      <point x="250" y="274"/>
      <point x="233" y="291"/>
      <point x="233" y="313" type="curve" smooth="yes"/>
      <point x="233" y="334"/>
      <point x="250" y="351"/>
      <point x="271" y="351" type="curve" smooth="yes"/>
      <point x="293" y="351"/>
      <point x="310" y="334"/>
      <point x="310" y="313" type="curve" smooth="yes"/>
      <point x="310" y="291"/>
      <point x="293" y="274"/>
      <point x="271" y="274" type="curve" smooth="yes"/>
    </contour>
  </outline>
</glyph>
<glyph name="uni0995" format="1">
  <advance width="660"/>
  <unicode hex="0995"/>
  <outline>
    <contour>
      <point x="350" y="-12"/>
      <point x="360" y="1"/>
      <point x="360" y="17" type="curve" smooth="yes"/>
      <point x="360" y="486" type="line" smooth="yes"/>
      <point x="360" y="537"/>
      <point x="363" y="547"/>
      <point x="400" y="547" type="curve" smooth="yes"/>
      <point x="660" y="547" type="line" smooth="yes"/>
      <point x="673" y="547"/>
      <point x="684" y="555"/>
      <point x="684" y="567" type="curve" smooth="yes"/>
      <point x="684" y="578"/>
      <point x="673" y="587"/>
      <point x="660" y="587" type="curve" smooth="yes"/>
      <point x="387" y="587" type="line" smooth="yes"/>
      <point x="336" y="587"/>
      <point x="313" y="558"/>
      <point x="313" y="479" type="curve" smooth="yes"/>
      <point x="313" y="17" type="line" smooth="yes"/>
      <point x="313" y="1"/>
      <point x="323" y="-12"/>
      <point x="336" y="-12" type="curve" smooth="yes"/>
    </contour>
    <contour>
      <point x="351" y="54" type="line"/>
      <point x="351" y="167"/>
      <point x="195" y="296"/>
      <point x="41" y="322" type="curve"/>
      <point x="47" y="305" type="line"/>
      <point x="291" y="404"/>
      <point x="343" y="439"/>
      <point x="343" y="511" type="curve" smooth="yes"/>
      <point x="343" y="560"/>
      <point x="301" y="587"/>
      <point x="240" y="587" type="curve" smooth="yes"/>
      <point x="0" y="587" type="line" smooth="yes"/>
      <point x="-10" y="587"/>
      <point x="-20" y="580"/>
      <point x="-20" y="567" type="curve" smooth="yes"/>
      <point x="-20" y="556"/>
      <point x="-11" y="547"/>
      <point x="0" y="547" type="curve" smooth="yes"/>
      <point x="240" y="547" type="line" smooth="yes"/>
      <point x="290" y="547"/>
      <point x="312" y="534"/>
      <point x="312" y="515" type="curve"/>
      <point x="313" y="486"/>
      <point x="281" y="460"/>
      <point x="40" y="355" type="curve" smooth="yes"/>
      <point x="19" y="345"/>
      <point x="10" y="332"/>
      <point x="10" y="318" type="curve" smooth="yes"/>
      <point x="10" y="302"/>
      <point x="22" y="286"/>
      <point x="47" y="278" type="curve" smooth="yes"/>
      <point x="123" y="255"/>
      <point x="313" y="163"/>
      <point x="313" y="48" type="curve"/>
    </contour>
    <contour>
      <point x="513" y="198"/>
      <point x="499" y="213"/>
      <point x="499" y="232" type="curve" smooth="yes"/>
      <point x="499" y="251"/>
      <point x="513" y="266"/>
      <point x="532" y="266" type="curve" smooth="yes"/>
      <point x="552" y="266"/>
      <point x="566" y="251"/>
      <point x="566" y="232" type="curve" smooth="yes"/>
      <point x="566" y="213"/>
      <point x="552" y="198"/>
      <point x="532" y="198" type="curve" smooth="yes"/>
    </contour>
    <contour>
      <point x="588" y="163"/>
      <point x="628" y="217"/>
      <point x="628" y="283" type="curve" smooth="yes"/>
      <point x="628" y="314"/>
      <point x="621" y="381"/>
      <point x="522" y="413" type="curve" smooth="yes"/>
      <point x="465" y="431"/>
      <point x="360" y="446"/>
      <point x="360" y="496" type="curve"/>
      <point x="336" y="453" type="line"/>
      <point x="379" y="391"/>
      <point x="442" y="391"/>
      <point x="511" y="369" type="curve" smooth="yes"/>
      <point x="582" y="347"/>
      <point x="590" y="310"/>
      <point x="590" y="280" type="curve" smooth="yes"/>
      <point x="590" y="255"/>
      <point x="578" y="229"/>
      <point x="562" y="211" type="curve"/>
      <point x="565" y="184" type="line"/>
      <point x="581" y="195"/>
      <point x="595" y="213"/>
      <point x="595" y="236" type="curve" smooth="yes"/>
      <point x="595" y="272"/>
      <point x="567" y="301"/>
      <point x="527" y="301" type="curve" smooth="yes"/>
      <point x="487" y="301"/>
      <point x="455" y="273"/>
      <point x="455" y="233" type="curve" smooth="yes"/>
      <point x="455" y="192"/>
      <point x="489" y="163"/>
      <point x="532" y="163" type="curve" smooth="yes"/>
    </contour>
  </outline>
</glyph>
<glyph name="uni0996" format="1">
  <advance width="560"/>
  <unicode hex="0996"/>
  <outline>
    <contour>
      <point x="452" y="58" type="line"/>
      <point x="429" y="182"/>
      <point x="243" y="289"/>
      <point x="130" y="289" type="curve"/>
      <point x="130" y="270" type="line"/>
      <point x="276" y="270"/>
      <point x="344" y="353"/>
      <point x="344" y="439" type="curve" smooth="yes"/>
      <point x="344" y="525"/>
      <point x="279" y="582"/>
      <point x="250" y="582" type="curve" smooth="yes"/>
      <point x="240" y="582"/>
      <point x="233" y="575"/>
      <point x="233" y="560" type="curve" smooth="yes"/>
      <point x="233" y="547"/>
      <point x="238" y="532"/>
      <point x="238" y="515" type="curve" smooth="yes"/>
      <point x="238" y="447"/>
      <point x="183" y="420"/>
      <point x="129" y="420" type="curve" smooth="yes"/>
      <point x="111" y="420"/>
      <point x="93" y="424"/>
      <point x="76" y="433" type="curve"/>
      <point x="91" y="409" type="line"/>
      <point x="131" y="409"/>
      <point x="163" y="433"/>
      <point x="163" y="473" type="curve" smooth="yes"/>
      <point x="163" y="518"/>
      <point x="127" y="542"/>
      <point x="92" y="542" type="curve" smooth="yes"/>
      <point x="53" y="542"/>
      <point x="23" y="513"/>
      <point x="23" y="471" type="curve" smooth="yes"/>
      <point x="23" y="413"/>
      <point x="78" y="381"/>
      <point x="137" y="381" type="curve" smooth="yes"/>
      <point x="214" y="381"/>
      <point x="274" y="429"/>
      <point x="274" y="508" type="curve" smooth="yes"/>
      <point x="274" y="531"/>
      <point x="264" y="550"/>
      <point x="258" y="558" type="curve"/>
      <point x="250" y="540" type="line"/>
      <point x="279" y="526"/>
      <point x="304" y="491"/>
      <point x="304" y="442" type="curve" smooth="yes"/>
      <point x="304" y="336"/>
      <point x="185" y="316"/>
      <point x="124" y="314" type="curve" smooth="yes"/>
      <point x="110" y="314"/>
      <point x="86" y="311"/>
      <point x="86" y="289" type="curve" smooth="yes"/>
      <point x="86" y="271"/>
      <point x="103" y="262"/>
      <point x="120" y="257" type="curve" smooth="yes"/>
      <point x="363" y="182"/>
      <point x="416" y="88"/>
      <point x="416" y="39" type="curve"/>
    </contour>
    <contour>
      <point x="74" y="435"/>
      <point x="60" y="450"/>
      <point x="60" y="469" type="curve" smooth="yes"/>
      <point x="60" y="488"/>
      <point x="74" y="503"/>
      <point x="94" y="503" type="curve" smooth="yes"/>
      <point x="113" y="503"/>
      <point x="127" y="488"/>
      <point x="127" y="469" type="curve" smooth="yes"/>
      <point x="127" y="450"/>
      <point x="113" y="435"/>
      <point x="94" y="435" type="curve" smooth="yes"/>
    </contour>
    <contour>
      <point x="453" y="-12"/>
      <point x="464" y="1"/>
      <point x="464" y="17" type="curve" smooth="yes"/>
      <point x="464" y="484" type="line" smooth="yes"/>
      <point x="464" y="537"/>
      <point x="466" y="547"/>
      <point x="504" y="547" type="curve" smooth="yes"/>
      <point x="560" y="547" type="line" smooth="yes"/>
      <point x="573" y="547"/>
      <point x="584" y="555"/>
      <point x="584" y="567" type="curve" smooth="yes"/>
      <point x="584" y="578"/>
      <point x="573" y="587"/>
      <point x="560" y="587" type="curve" smooth="yes"/>
      <point x="482" y="587" type="line" smooth="yes"/>
      <point x="441" y="587"/>
      <point x="416" y="558"/>
      <point x="416" y="499" type="curve" smooth="yes"/>
      <point x="416" y="17" type="line" smooth="yes"/>
      <point x="416" y="1"/>
      <point x="427" y="-12"/>
      <point x="440" y="-12" type="curve" smooth="yes"/>
    </contour>
  </outline>
</glyph>
